<?xml version="1.0" encoding="utf-8"?>
<!-- Generator: Adobe Illustrator 19.0.0, SVG Export Plug-In . SVG Version: 6.00 Build 0)  -->
<svg version="1.1" id="图层_1" xmlns="http://www.w3.org/2000/svg" xmlns:xlink="http://www.w3.org/1999/xlink" x="0px" y="0px"
	 viewBox="0 0 595.3 841.9" style="enable-background:new 0 0 595.3 841.9;" xml:space="preserve">
<style type="text/css">
	.st0{fill:#272635;}
</style>
<g>
	<g>
		<path class="st0" d="M268.3,401.4h59.1v221.5h-59.1V401.4L268.3,401.4z M268.3,401.4"/>
		<path class="st0" d="M179.8,342.3H416v59.1H179.8V342.3L179.8,342.3z M179.8,342.3"/>
		<path class="st0" d="M150.2,430.9h295.3v59.1H150.2V430.9L150.2,430.9z M150.2,430.9"/>
		<path class="st0" d="M311.9,325.4l-41.7,41.8L165.7,262.8l41.8-41.8L311.9,325.4z M311.9,325.4"/>
		<path class="st0" d="M283.9,325.4l41.7,41.8L430,262.8l-41.8-41.8L283.9,325.4z M283.9,325.4"/>
	</g>
	<path class="st0" d="M652.2,185.7c0-65.2-52.9-118.1-118.1-118.1H61.6c-65.2,0-118.1,52.9-118.1,118.1v472.4
		c0,65.2,52.9,118.1,118.1,118.1h472.4c65.2,0,118.1-52.9,118.1-118.1V185.7L652.2,185.7z M593.1,636.7c0,44.5-36.1,80.5-80.5,80.5
		H83.1c-44.5,0-80.5-36.1-80.5-80.5V207.2c0-44.5,36.1-80.5,80.5-80.5h429.5c44.5,0,80.5,36.1,80.5,80.5V636.7L593.1,636.7z
		 M593.1,636.7"/>
</g>
</svg>
