<?xml version="1.0" encoding="utf-8"?>
<!-- Generator: Adobe Illustrator 19.0.0, SVG Export Plug-In . SVG Version: 6.00 Build 0)  -->
<svg version="1.1" id="图层_1" xmlns="http://www.w3.org/2000/svg" xmlns:xlink="http://www.w3.org/1999/xlink" x="0px" y="0px"
	 viewBox="0 0 822 822" style="enable-background:new 0 0 822 822;" xml:space="preserve">
<style type="text/css">
	.st0{fill:#272635;}
</style>
<g>
	<path class="st0" d="M127.9,666.6V132c0-8.1,6.6-14.7,14.7-14.7H528h27.5h68.7c8.1,0,14.7,6.6,14.7,14.7v299.1h59.6V132
		c0-40.9-33.3-74.2-74.2-74.2h-68.7h-27.5H142.6c-40.9,0-74.2,33.3-74.2,74.2v534.6c0,40.9,33.3,74.2,74.2,74.2h240.9v-59.6H142.6
		C134.5,681.3,127.9,674.7,127.9,666.6z"/>
	<path class="st0" d="M489.4,409.3h-80.7v-26.6h80.7v-48.5h-58.9l83.4-142.8h-58.2l-71.2,124.3c-4.6-8.3-10.6-18.3-17.8-30.4
		l-0.2-0.3c-13.8-23.3-31-52.2-50.9-88.5l-2.8-5.1H253l84.2,142.8h-64v48.5h83v26.6h-83v46.3h83v68.5h53v-68.5h80.2V409.3z"/>
	<path class="st0" d="M601,470.9c-85.4,0-154.5,66.1-154.5,147.8c0,81.6,69.2,147.8,154.5,147.8c85.4,0,154.5-66.1,154.5-147.8
		C755.5,537.1,686.4,470.9,601,470.9z M695.5,639.5h-73.7v73.7h-41.6v-73.7h-73.7v-41.6h73.7v-73.7h41.6v73.7h73.7V639.5z"/>
</g>
</svg>
