<?xml version="1.0" encoding="utf-8"?>
<!-- Generator: Adobe Illustrator 19.0.0, SVG Export Plug-In . SVG Version: 6.00 Build 0)  -->
<svg version="1.1" id="图层_1" xmlns="http://www.w3.org/2000/svg" xmlns:xlink="http://www.w3.org/1999/xlink" x="0px" y="0px"
	 viewBox="0 0 822 822" style="enable-background:new 0 0 822 822;" xml:space="preserve">
<style type="text/css">
	.st0{fill:#272635;}
</style>
<g>
	<path class="st0" d="M377.7,335.4c0,0,25.8,63.2-5.1,104.5c-28.1,37.5-64.2,70.2-64.2,131.7c0,64,26.4,97.5,100,129.6
		c0,0,106.7-20.1,106.7-132C515.2,457.2,377.7,335.4,377.7,335.4L377.7,335.4z M408.2,695.9c0,0-34.7-26.1-34.7-72.8
		c0-46.8,38.4-75.6,38.4-75.6s36.9,35.7,36.9,75.9C448.8,663.5,408.2,695.9,408.2,695.9L408.2,695.9z"/>
</g>
<path class="st0" d="M722.2,697.2l-43.6-351.1c-4.7-38.1-39.8-69-78.2-69h-16.8c0-0.1,0-0.1,0-0.2v-46.5
	c0-95.6-76.9-172.9-171.8-172.9C317,57.6,240,135,240,230.5V277c0,0.1,0,0.1,0,0.2h-16.8c-38.5,0-73.5,30.9-78.2,69l-43.6,351.1
	c-4.7,38.1,22.5,69.1,60.9,69.1h499C699.6,766.3,727,735.4,722.2,697.2z M308.5,230.5c0-57.5,46.4-104,103.4-104
	c57.1,0,103.4,46.4,103.4,104v46.6H308.5V230.5z M611.4,706.5H212.2c-30.7,0-52.5-23.8-48.7-53.1l34.9-269.9
	c3.8-29.3,31.8-53.1,62.6-53.1l13.4-0.1h274.9l13.4,0.1c30.8,0,58.8,23.8,62.6,53.1l34.9,269.9C664,682.7,642.1,706.5,611.4,706.5z"
	/>
</svg>
