<?xml version="1.0" encoding="utf-8"?>
<!-- Generator: Adobe Illustrator 19.0.0, SVG Export Plug-In . SVG Version: 6.00 Build 0)  -->
<svg version="1.1" id="图层_1" xmlns="http://www.w3.org/2000/svg" xmlns:xlink="http://www.w3.org/1999/xlink" x="0px" y="0px"
	 viewBox="0 0 822 822" style="enable-background:new 0 0 822 822;" xml:space="preserve">
<style type="text/css">
	.st0{fill:#272635;}
</style>
<g>
	<path class="st0" d="M667.9,303.1c0-20.3-10.2-30.5-30.5-30.5H178.9c-20.3,0-30.5,10.2-30.5,30.5c0,10.2,10.2,30.5,30.5,30.5h458.5
		C657.7,333.6,667.9,323.4,667.9,303.1z"/>
	<path class="st0" d="M178.9,394.5c-20.3,0-30.5,10.2-30.5,30.5c0,20.3,10.2,30.5,30.5,30.5h243.7c20.3,0,30.5-10.2,30.5-30.5
		c0-20.3-10.2-30.5-30.5-30.5H178.9z"/>
	<polygon class="st0" points="663.6,577.7 663.6,474.5 605.3,474.5 605.3,577.7 502.1,577.7 502.1,636 605.3,636 605.3,739.2 
		663.6,739.2 663.6,636 766.7,636 766.7,577.7 	"/>
	<path class="st0" d="M460,671.5c-64.5,0-193.7,0-193.7,0L115.8,531V371v-66.7v-51.7v-28.1c0-44.5,36.1-80.5,80.5-80.5h429.5
		c44.5,0,80.5,36.1,80.5,80.5v28.1v51.7h0.1c0,0,0,125.4,0,176.7s59,46.2,59,0s0-278,0-278c0-65.2-52.9-118.1-118.1-118.1H174.9
		c-65.2,0-118.1,52.9-118.1,118.1v349.4l188.1,178.1c0,0,143.9,0,213.1,0C505,730.5,506.5,671.5,460,671.5z"/>
</g>
</svg>
