<?xml version="1.0" encoding="utf-8"?>
<!-- Generator: Adobe Illustrator 19.0.0, SVG Export Plug-In . SVG Version: 6.00 Build 0)  -->
<svg version="1.1" id="图层_1" xmlns="http://www.w3.org/2000/svg" xmlns:xlink="http://www.w3.org/1999/xlink" x="0px" y="0px" viewBox="0 0 595.3 841.9" style="enable-background:new 0 0 595.3 841.9;" xml:space="preserve">
	<style type="text/css">
		.st0{fill:none;stroke:#272636;stroke-width:30;stroke-linecap:round;stroke-linejoin:round;stroke-miterlimit:10;}
		.st1{fill:#272636;}
		.st2{fill:none;stroke:#272636;stroke-width:20;stroke-linecap:round;stroke-linejoin:round;stroke-miterlimit:10;}
	</style>
	<g>
		<path class="st0" d="M116.5,176.1L-32.3,73.3c-13.7-9.5-24.8-3.8-24.8,12.5v534.3c0,16.4,11.1,37.3,24.8,46.8l148.8,102.8
			c13.7,9.5,24.8,3.8,24.8-12.5V222.9C141.3,206.5,130.2,185.6,116.5,176.1L116.5,176.1L116.5,176.1z"/>
		<path class="st0" d="M396.4,394.2V85.8c0-16.4-11.1-22-24.8-12.5L222.8,176.1c-13.7,9.5-24.8,30.4-24.8,46.8v534.3
			c0,16.4,11.1,22,24.8,12.5l86.7-59.9c-30.3-50-54.8-101.9-54.8-139.3C254.7,481.9,316,408.4,396.4,394.2L396.4,394.2L396.4,394.2z"
			/>
		<path class="st0" d="M626.7,176.1L477.9,73.3c-13.7-9.5-24.8-3.8-24.8,12.5v308.4c80.4,14.2,141.7,87.7,141.7,176.4
			c0,37.4-24.4,89.3-54.8,139.3l86.7,59.9c13.7,9.5,24.8,3.8,24.8-12.5V222.9C651.5,206.5,640.4,185.6,626.7,176.1L626.7,176.1
			L626.7,176.1z"/>
		<path class="st1" d="M424.8,453.6c-62.6,0-113.4,53.9-113.4,120.4c0,66.5,113.4,200.6,113.4,200.6S538.1,640.5,538.1,574
			C538.1,507.5,487.4,453.6,424.8,453.6z M425.3,653.6c-41.7,0-75.6-35.9-75.6-80.2c0-44.3,33.8-80.2,75.6-80.2
			c41.7,0,75.6,35.9,75.6,80.2C500.9,617.7,467.1,653.6,425.3,653.6z"/>
		<path class="st1" d="M425.3,524.5c-26.1,0-47.2,22.5-47.2,50.2c0,27.7,21.1,50.1,47.2,50.1c26.1,0,47.3-22.5,47.3-50.1
			C472.6,546.9,451.4,524.5,425.3,524.5L425.3,524.5L425.3,524.5z"/>
		<path class="st2" d="M425.3,524.5"/>
	</g>
</svg>
