<?xml version="1.0" encoding="utf-8"?>
<!-- Generator: Adobe Illustrator 19.0.0, SVG Export Plug-In . SVG Version: 6.00 Build 0)  -->
<svg version="1.1" id="图层_1" xmlns="http://www.w3.org/2000/svg" xmlns:xlink="http://www.w3.org/1999/xlink" x="0px" y="0px" viewBox="0 0 595.3 841.9" style="enable-background:new 0 0 595.3 841.9;" xml:space="preserve">
	<g>
		<path class="st0" d="M538.1,436h-82.3l-89-240.6c1-4.7,1.5-9.5,1.5-14.5c0-29-17.5-53.9-42.4-64.9V81.7c0-7.8-6.3-14.2-14.1-14.2
			h-28.3c-7.8,0-14.1,6.3-14.1,14.2v34.3c-24.9,11-42.4,35.9-42.4,64.9c0,5,0.5,9.8,1.5,14.5l-89,240.6H57c-7.8,0-14.1,6.3-14.1,14.2
			s6.3,14.2,14.1,14.2h71.9L61.5,646.5c-1.1,2.9-1.2,6.1-0.3,9.1l24,79V762c0,7.8,6.3,14.2,14.2,14.2c7.8,0,14.1-6.3,14.1-14.2v-26.9
			l103.6-270.7h52v42.5c0,7.8,6.3,14.2,14.1,14.2h28.3c7.8,0,14.1-6.3,14.1-14.2v-42.5h52l103.6,270.7V762c0,7.8,6.3,14.2,14.1,14.2
			c7.8,0,14.1-6.3,14.1-14.2v-27.4l24-79c0.9-3,0.8-6.2-0.3-9.1l-67.3-182.1h71.9c7.8,0,14.2-6.3,14.2-14.2S545.9,436,538.1,436
			L538.1,436z M297.5,138.4c23.4,0,42.4,19.1,42.4,42.5c0,23.5-19,42.5-42.4,42.5c-23.4,0-42.4-19.1-42.4-42.5
			C255.1,157.5,274.1,138.4,297.5,138.4L297.5,138.4z M325.8,436v-42.5c0-7.8-6.3-14.2-14.1-14.2h-28.3c-7.8,0-14.1,6.3-14.1,14.2
			V436h-41.1l69.4-181.4L367,436H325.8L325.8,436z M325.8,436"/>
	</g>
</svg>
