<?xml version="1.0" encoding="utf-8"?>
<!-- Generator: Adobe Illustrator 19.0.0, SVG Export Plug-In . SVG Version: 6.00 Build 0)  -->
<svg version="1.1" id="图层_1" xmlns="http://www.w3.org/2000/svg" xmlns:xlink="http://www.w3.org/1999/xlink" x="0px" y="0px"
	 viewBox="-203.5 -121 842 842" style="enable-background:new -203.5 -121 842 842;" xml:space="preserve">
<style type="text/css">
	.st0{fill:#272635;}
</style>
<g>
	<rect x="382.8" y="112.9" class="st0" width="22.7" height="85"/>
	<rect x="302.6" y="151.8" class="st0" width="22.7" height="46.1"/>
	<rect x="423.7" y="88.5" class="st0" width="22.7" height="109.5"/>
	<rect x="340.4" y="130.2" class="st0" width="22.7" height="67.7"/>
	<polygon class="st0" points="352.1,86.9 374.1,105.6 427.1,53.2 443.9,68.3 452.9,19.9 401.9,30.7 417.7,44.8 373.4,88.6 
		351.4,69.9 288.1,131.7 297.3,140.2 	"/>
	<polygon class="st0" points="302.3,143.5 302.3,143.5 302.3,143.5 	"/>
	<path class="st0" d="M376.2,280.6c91.1,0,165-73.9,165-165c0-91.1-73.8-164.9-165-164.9c-91.1,0-164.9,73.8-164.9,164.9
		C211.2,206.8,285.1,280.6,376.2,280.6z M376.2-20.2c74.9,0,135.8,60.9,135.8,135.8c0,74.9-60.9,135.8-135.8,135.8
		c-74.9,0-135.8-60.9-135.8-135.8C240.3,40.8,301.3-20.2,376.2-20.2z"/>
	<path class="st0" d="M135.2,355.6l-17.7,7.1l18.3,37.3h75.5l-26.7-64.4l-20.6,8.3l-13.3-29.8l-4.2-9.3h-9.7H59.2l-23.1-46.6
		l91.8-40.3c22.9-11.2,23.3-52,5.7-70.3C99.5,116,65.4,84.4,31.3,52.8C-2.5,21.5-36.3-9.8-70.1-41.1c-21.7-18.9-52.1-2.5-55.3,23
		c-3.2,48-6.5,96-9.7,144c-3.2,47.6-6.4,95.1-9.6,142.6c-1.1,30.1,28.8,54.5,49.5,47.3L7.6,270.7l28.8,58l4.3,8.7h9.3h77.1
		L135.2,355.6z M-10.9,239.2L-10.9,239.2l-92.9,40.8c-3.3-1.2-8.1-6.4-8.2-9.7c0,0,7.3-107.5,9.6-141.7l3.7-54.1
		c1.9-28.8,3.9-57.6,5.8-86.3c0.5-0.3,1.2-0.7,1.8-0.7c0.2,0,0.3,0,0.7,0.3C-56.8,19-23.2,50.1,10.4,81.2
		c27.9,25.9,55.8,51.7,83.7,77.5l17.4,16.1c1.3,2,2,7.1,1.5,10l-90.7,39.8L-10.9,239.2z"/>
	<path class="st0" d="M428.9,426.1l-22.8,0c-21.3-81.3-142.2-74.7-155.8-160.5c-29.2-1-57.8,18.9-62.4,46.3l21.5,52.5
		c18.3,15.6,49.4,30.1,62.8,45.2H147.6h-6.1c-17.9,0-32.5,15.6-32.5,34.6c0,13.9,7.8,26,19,31.4c-9.8,6-16.5,17.2-16.5,30.1v0
		c0,16.1,10.5,29.8,24.6,33.5c-4.9,6.1-7.9,13.9-7.9,22.5v0c0,19,14.6,34.6,32.5,34.6h1c-5.7,6.3-9.3,14.8-9.3,24.2
		c0,19,14.7,34.6,32.5,34.6h63.5h80h1l28.4-30.1l71-9.9v44.2h92.5V392.5h-92.5V426.1z M461.8,429.3h26.8v193.2h-26.8v-49.1
		L343.2,590l-26.7,28.4H188.7l53.7-58.8H164l33.6-41.6l-48.8-13.1l53.6-32.8l-52.1-25.6l201,0l-55.8-62.9
		c-10.7-12.1-26.2-21.9-41.2-31.3c-6.5-4.1-13.3-8.4-18.8-12.4L224.2,312c1.4-1.4,3.1-2.9,5.1-4.1c18.8,37.8,54.6,57.7,84.6,74.3
		c33.9,18.8,54.9,31.9,60.7,54.2l6.9,26.4l80.2,0.1V429.3z"/>
</g>
</svg>
