<?xml version="1.0" encoding="utf-8"?>
<!-- Generator: Adobe Illustrator 19.0.0, SVG Export Plug-In . SVG Version: 6.00 Build 0)  -->
<svg version="1.1" id="图层_1" xmlns="http://www.w3.org/2000/svg" xmlns:xlink="http://www.w3.org/1999/xlink" x="0px" y="0px" viewBox="0 0 595.3 841.9" style="enable-background:new 0 0 595.3 841.9;" xml:space="preserve">
	<g>
		<path class="st0" d="M482.7,294.7v-28.3h85v28.3H482.7L482.7,294.7z M482.7,351.4V323h85v28.3H482.7L482.7,351.4z M482.7,408.1
			v-28.3h85v28.3H482.7L482.7,408.1z M482.7,464.8v-28.3h85v28.3H482.7L482.7,464.8z M57.5,238v-28.3H341V238H57.5L57.5,238z
			 M57.5,294.7v-28.3H341v28.3H57.5L57.5,294.7z M270.8,629.4C213,629.4,166,582.3,166,524.5c0-57.8,47.1-104.9,104.9-104.9
			c57.8,0,104.9,47.1,104.9,104.9C375.7,582.3,328.7,629.4,270.8,629.4L270.8,629.4z M270.8,438.7c-47.3,0-85.8,38.5-85.8,85.8
			s38.5,85.8,85.8,85.8c47.3,0,85.8-38.5,85.8-85.8S318.2,438.7,270.8,438.7L270.8,438.7z M613.6,762.4H199.2v-28.3h411V195.5H454.3
			v-28.3h156.4c27.4,0,27.9,26,27.9,26v541.4C638.6,734.5,639.1,762.4,613.6,762.4L613.6,762.4z M414.2,705.7h-429
			c-27.4,0-26.9-26.9-26.9-26.9V110.9c0,0-1.4-28.8,28.8-28.8c30.2,0,394,0.5,424.2,0c30.2-0.5,28.8,29.8,28.8,29.8v566
			C440.2,677.8,438.8,705.7,414.2,705.7L414.2,705.7z M-13.4,677.4h425.2V110.4H-13.4V677.4L-13.4,677.4z M297.8,434.1 M267.5,464.1
			l18.5,37.5l41.4,6l-30,29.2l7.1,41.2l-37-19.5l-37,19.5l7.1-41.2l-30-29.2l41.4-6L267.5,464.1z"/>
	</g>
</svg>
