<?xml version="1.0" encoding="utf-8"?>
<!-- Generator: Adobe Illustrator 19.0.0, SVG Export Plug-In . SVG Version: 6.00 Build 0)  -->
<svg version="1.1" id="图层_1" xmlns="http://www.w3.org/2000/svg" xmlns:xlink="http://www.w3.org/1999/xlink" x="0px" y="0px" viewBox="0 0 595.3 841.9" style="enable-background:new 0 0 595.3 841.9;" xml:space="preserve">
	<g>
		<path class="st0" d="M297.2,775.9c-195.3,0-354.3-159-354.3-354.3c0-195.4,159-354.3,354.3-354.3v44.3c-170.9,0-310,139.1-310,310
			c0,171,139.1,310,310,310c170.9,0,310-139.1,310-310h44.3C651.6,617,492.6,775.9,297.2,775.9 M490.1,178.8
			c-23.7-18.8-49.7-34-77.6-45.1l8.3-21l-8.4,20.9c-36.6-14.7-75.3-22.1-115.2-22.1V67.3c45.5,0,89.9,8.5,131.7,25.3
			c31.8,12.8,61.7,30.1,88.8,51.6L490.1,178.8L490.1,178.8z M490.1,178.8"/>
		<path class="st0" d="M281.6,583L106.3,407.7l31.3-31.3l143.9,144L588,214l31.3,31.3L281.6,583z M281.6,583"/>
		<path class="st0" d="M20.8,480.7c-0.4-2.7-42.2-266.7,242-331.6l9.9,43.1C29.8,247.7,62.9,464.1,64.4,473.3L20.8,480.7L20.8,480.7z
			 M20.8,480.7"/>
	</g>
</svg>
