<?xml version="1.0" encoding="utf-8"?>
<!-- Generator: Adobe Illustrator 19.0.0, SVG Export Plug-In . SVG Version: 6.00 Build 0)  -->
<svg version="1.1" id="图层_1" xmlns="http://www.w3.org/2000/svg" xmlns:xlink="http://www.w3.org/1999/xlink" x="0px" y="0px" viewBox="0 0 595.3 841.9" style="enable-background:new 0 0 595.3 841.9;" xml:space="preserve">
	<g>
		<path class="st0" d="M46.5,191v94.7c0,8,6.5,14.4,14.7,14.4h464.6c8.1,0,14.6-6.5,14.6-14.4V191c0-7.9-6.5-14.4-14.6-14.4H61.1
			C53.1,176.6,46.5,183,46.5,191L46.5,191z M635,373.2c0-7.9-6.5-14.4-14.6-14.4H61.1c-8.1,0-14.7,6.5-14.7,14.4v94.7
			c0,7.9,6.5,14.4,14.7,14.4h559.3c8.1,0,14.7-6.5,14.7-14.4L635,373.2L635,373.2z M429.5,555.4c0-7.9-6.5-14.4-14.6-14.4H61.1
			c-8.1,0-14.7,6.5-14.7,14.4v94.7c0,7.9,6.5,14.4,14.7,14.4h353.8c8.1,0,14.6-6.5,14.6-14.4V555.4L429.5,555.4L429.5,555.4z
			 M8,736.2V108.3c0-13.2-10.9-24-24.3-24c-13.5,0-24.3,10.8-24.3,24v627.8c0,13.3,10.9,24,24.3,24C-2.9,760.1,8,749.4,8,736.2
			L8,736.2z M8,736.2"/>
	</g>
</svg>
