<?xml version="1.0" encoding="utf-8"?>
<!-- Generator: Adobe Illustrator 19.0.0, SVG Export Plug-In . SVG Version: 6.00 Build 0)  -->
<svg version="1.1" id="图层_1" xmlns="http://www.w3.org/2000/svg" xmlns:xlink="http://www.w3.org/1999/xlink" x="0px" y="0px"
	 viewBox="0 0 595.3 841.9" style="enable-background:new 0 0 595.3 841.9;" xml:space="preserve">
<style type="text/css">
	.st0{fill:#272536;}
</style>
<g>
	<path class="st0" d="M332.8,665.1h-1.3c-0.1,0-0.2,0-0.2,0c-5.3,0-9.8-4.1-11.9-10.6c-15.9,7.9-34,14.5-52.1,14.5
		c-23.2,0-44.9-10.7-63.2-20.6c-16,10.7-36.1,23.6-57.7,23.6c-23,0-44-13.6-60.5-25.6c-13.3,5.1-27.9,11.2-43.3,11.2
		c-59.6,0-97.3-33.8-97.3-86.4c0-52.7,25.1-87.8,84.7-87.8c5,0,10,0.2,14.8,0.9l27.9,7c24.3,5.5,38.9,28.5,40,29.6
		c6.8-1.4,37.9-1.8,45.3-1.8c6.8,0,13.4,0.6,19.9,1.8c21.7-29,47.4-56.7,89.6-56.7c17.2,0,28.7,4,43.5,9.7l20.5,10
		c12.6,7.7,23.4,17.5,32.1,28.7c0.3,0,2.6,0,4.3,0c1.1-3.8,3.4-7.2,6.7-9.5l0.4-0.3l23.5-12.9c-0.4,0-0.7,0-1.1,0
		c-0.4,0-0.8,0-1.2,0c-9.9-14.7-22.4-27.4-36.9-37.5l96.7-96.7l-83.9-83.9l81.7-81.7L375,111.5l-81.7,81.7l-83.9-83.9l-114,114
		c-54.1,54.1-82.5,151.8-57.8,224c-5.6-0.8-11.3-1.1-17.1-1.1c-68.7,0-124.3,55.6-124.3,124.3c0,68.7,55.6,124.3,124.3,124.3
		c17.7,0,34.7-3.7,49.9-10.4c19,15.5,43.3,24.8,69.7,24.8c25,0,48.1-8.3,66.6-22.3c21.3,13,46.2,20.5,72.9,20.5
		c28.3,0,54.6-8.4,76.6-22.8c4.1,1.8,8.3,3.3,12.6,4.6C362.9,675,349,665.1,332.8,665.1z M372.3,161.6l35.2,35.2l-82.4,78.3
		c-19,19-40.2,36.2-62.8,50.9l-55.9,36.4c-1,0.7-2.5,0.5-3.4-0.4c-0.9-0.9-1.1-2.4-0.4-3.4l36.4-55.9c14.7-22.6,31.8-43.7,50.9-62.8
		L372.3,161.6z M67.8,359.3c6.1-43.1,26.2-85.3,53.6-112.8l89.6-89.6l61.4,61.5l-5,5c-22.4,22.4-42.5,47.2-59.7,73.7l-40.5,62.2
		c-7,10.7-5.5,25.2,3.6,34.3c9.1,9.1,23.5,10.7,34.3,3.6l62.2-40.5c26.5-17.3,51.3-37.3,73.7-59.7l5-5l61.5,61.4l-78.4,78.4
		c-16-6.9-33.6-10.8-52.2-10.8c-45.6,0-85.8,23.3-109.2,58.7c-6.9-1.5-14.1-2.2-21.5-2.2c-7.8,0-15.4,0.9-22.8,2.6
		c-11.6-13.9-26.4-25-43.2-32.2c-4.5-8.3-7.9-17.4-10.3-27.3C65.5,402.1,64.8,381,67.8,359.3z"/>
	<path class="st0" d="M479,572.8c-23.9,0-43.3,19.4-43.3,43.3s19.4,43.3,43.3,43.3c23.9,0,43.4-19.4,43.4-43.3
		C522.3,592.3,502.9,572.8,479,572.8z M479,644.8c-15.8,0-28.6-12.8-28.6-28.6c0-15.8,12.8-28.6,28.6-28.6
		c15.8,0,28.6,12.8,28.6,28.6C507.6,632,494.8,644.8,479,644.8z"/>
	<path class="st0" d="M602.1,591.8c-1.4-7.2-5.6-11.7-10.9-11.6h-1.1c-17.9,0-32.6-14.6-32.6-32.6c0-5.9,2.8-12.4,2.8-12.4
		c2.8-6.2,0.6-13.9-5-17.8l-0.3-0.2l-31.3-17.4l-0.3-0.1c-1.9-0.8-3.9-1.2-6.1-1.2c-4.5,0-8.8,1.8-11.7,4.8
		c-3.8,3.9-15.9,14.2-25.6,14.2c-9.8,0-21.9-10.4-25.8-14.5c-2.9-3-7.3-4.8-11.8-4.8c-2.1,0-4.1,0.4-5.9,1.2l-0.3,0.1L404,517.2
		l-0.3,0.2c-5.6,3.9-7.8,11.6-5,17.8c0,0.1,2.8,6.6,2.8,12.5c0,17.9-14.6,32.6-32.6,32.6h-1.1c-5.2-0.1-9.5,4.5-10.9,11.6
		c-0.1,0.6-2.6,14-2.6,24.5c0,10.6,2.5,24,2.6,24.5c1.3,7.1,5.5,11.6,10.7,11.6c0.1,0,0.1,0,0.2,0h1.1c17.9,0,32.6,14.6,32.6,32.6
		c0,5.9-2.8,12.4-2.8,12.4c-2.8,6.2-0.6,13.9,4.9,17.8l0.3,0.2l30.7,17.2l0.3,0.1c1.9,0.8,3.9,1.2,6,1.2c4.5,0,8.9-1.9,11.8-5
		c3.6-3.9,16.1-15.1,26.2-15.1c10.1,0,22.4,11.1,26.3,15.4c2.9,3.2,7.3,5,11.8,5h0c2.1,0,4.1-0.4,5.9-1.2l0.3-0.1l31.8-17.6l0.3-0.2
		c5.6-3.9,7.7-11.6,5-17.8c0-0.1-2.8-6.5-2.8-12.5c0-17.9,14.6-32.6,32.6-32.6h1.1c5.2,0.1,9.5-4.5,10.9-11.6
		c0.1-0.6,2.6-14,2.6-24.5S602.2,592.4,602.1,591.8z M570.2,634.4c-20.9,1.1-37.6,18.4-37.6,39.6c0,7.1,2.8,13.9,3.4,15.3L511.1,703
		c0,0,0,0,0,0c-0.4,0-0.7-0.1-0.8-0.2c-0.4-0.5-4.1-4.4-9.3-8.2c-7.8-5.8-15.1-8.7-22-8.7c-6.7,0-14.1,2.9-21.8,8.5
		c-5.2,3.8-8.8,7.6-9.2,8.1c-0.1,0.1-0.5,0.2-0.8,0.2c0,0,0,0-0.1,0l-24.1-13.5c0.6-1.4,3.4-8.2,3.4-15.3
		c0-21.2-16.7-38.5-37.6-39.6c-0.3-1.7-1.9-11-1.9-18c0-7,1.6-16.4,1.9-18c20.9-1.1,37.6-18.4,37.6-39.6c0-7.1-2.7-13.8-3.4-15.3
		l25.4-14c0,0,0.1,0,0.1,0c0.4,0,0.8,0.2,0.9,0.2c0.4,0.4,4,4.1,9.1,7.8c7.6,5.4,14.8,8.2,21.4,8.2c6.5,0,13.7-2.7,21.3-8
		c5.1-3.6,8.7-7.2,9.1-7.6c0.1-0.1,0.5-0.2,0.9-0.2c0,0,0.1,0,0.1,0l24.5,13.6c-0.6,1.4-3.4,8.2-3.4,15.3
		c0,21.2,16.7,38.5,37.6,39.6c0.3,1.7,1.9,11,1.9,18C572.2,623.3,570.5,632.7,570.2,634.4z"/>
</g>
</svg>
