<?xml version="1.0" encoding="utf-8"?>
<!-- Generator: Adobe Illustrator 19.0.0, SVG Export Plug-In . SVG Version: 6.00 Build 0)  -->
<svg version="1.1" id="图层_1" xmlns="http://www.w3.org/2000/svg" xmlns:xlink="http://www.w3.org/1999/xlink" x="0px" y="0px"
	 viewBox="-203.5 -121 842 842" style="enable-background:new -203.5 -121 842 842;" xml:space="preserve">
<style type="text/css">
	.st0{fill:#272636;}
</style>
<path class="st0" d="M76.7,651.4c-50.5,0-91.7-41.1-91.7-91.7V468h41.6v91.7c0,27.6,22.5,50.1,50.1,50.1h334.5
	c27.6,0,50.1-22.5,50.1-50.1V40c0-27.6-22.5-50.1-50.1-50.1H76.7c-27.6,0-50.1,22.5-50.1,50.1v91.7H-15V40
	c0-50.5,41.1-91.7,91.7-91.7h334.5c50.5,0,91.7,41.1,91.7,91.7v519.7c0,50.5-41.1,91.7-91.7,91.7H76.7z M223.4,484.8
	c-5.6,0-10.8-2.2-14.7-6.1c-8.1-8.1-8.1-21.3,0-29.4l128.7-128.7h-426c-11.5,0-20.8-9.3-20.8-20.8s9.3-20.8,20.8-20.8h426
	L208.5,150.2c-7.9-8.1-7.9-21.2,0.2-29.2c3.9-3.9,9.2-6.1,14.7-6.1c5.6,0,10.8,2.2,14.7,6.1l163,163c4.1,4.1,6.2,9.7,5.9,15.7l0,0.1
	l0,0.1c0.3,6.1-1.8,11.7-5.9,15.8l-163,163C234.1,482.7,228.9,484.8,223.4,484.8z"/>
</svg>
