<?xml version="1.0" encoding="utf-8"?>
<!-- Generator: Adobe Illustrator 19.0.0, SVG Export Plug-In . SVG Version: 6.00 Build 0)  -->
<svg version="1.1" id="图层_1" xmlns="http://www.w3.org/2000/svg" xmlns:xlink="http://www.w3.org/1999/xlink" x="0px" y="0px"
	 viewBox="-203.5 -121 842 842" style="enable-background:new -203.5 -121 842 842;" xml:space="preserve">
<style type="text/css">
	.st0{fill:#272636;}
</style>
<g>
	<path class="st0" d="M390.4,430.9c-27.1,0-49.1,22-49.1,49.1s22,49.1,49.1,49.1c27.1,0,49.1-22,49.1-49.1S417.5,430.9,390.4,430.9z
		 M390.4,512.4c-17.9,0-32.4-14.5-32.4-32.4c0-17.9,14.5-32.4,32.4-32.4c17.9,0,32.4,14.5,32.4,32.4
		C422.9,497.9,408.3,512.4,390.4,512.4z"/>
	<path class="st0" d="M530,452.4c-1.5-8.1-6.4-13.3-12.3-13.2h-1.2c-20.3,0-36.9-16.6-36.9-36.9c0-6.7,3.2-14.1,3.2-14.1
		c3.1-7.1,0.7-15.8-5.6-20.2l-0.3-0.2L441.3,348l-0.4-0.2c-2.1-0.9-4.4-1.4-6.9-1.4c-5.1,0-10,2-13.3,5.4c-4.3,4.5-18,16.1-29,16.1
		c-11.1,0-24.9-11.8-29.2-16.4c-3.3-3.4-8.3-5.5-13.4-5.5c-2.4,0-4.7,0.4-6.7,1.3l-0.4,0.2l-36.7,20.2L305,368
		c-6.4,4.4-8.8,13.1-5.7,20.2c0,0.1,3.2,7.4,3.2,14.1c0,20.3-16.6,36.9-36.9,36.9h-1.2c-5.9-0.1-10.8,5.1-12.3,13.2
		c-0.1,0.6-3,15.8-3,27.8c0,12,2.8,27.2,3,27.8c1.5,8,6.3,13.2,12.1,13.2c0.1,0,0.1,0,0.2,0h1.2c20.3,0,36.9,16.6,36.9,36.9
		c0,6.7-3.2,14.1-3.2,14.1c-3.1,7.1-0.7,15.7,5.6,20.2l0.3,0.2l34.8,19.5l0.4,0.2c2.1,0.9,4.4,1.4,6.8,1.4c5.1,0,10.1-2.1,13.3-5.6
		c4.1-4.4,18.3-17.1,29.7-17.1c11.5,0,25.4,12.6,29.9,17.4c3.2,3.6,8.3,5.7,13.4,5.7h0c2.4,0,4.6-0.5,6.7-1.3l0.4-0.2l36.1-19.9
		l0.4-0.2c6.4-4.4,8.8-13.1,5.6-20.2c0-0.1-3.2-7.4-3.2-14.1c0-20.3,16.6-36.9,36.9-36.9h1.2c5.9,0.1,10.8-5.1,12.3-13.2
		c0.1-0.6,3-15.8,3-27.8S530.1,453,530,452.4z M493.9,500.6c-23.7,1.2-42.6,20.9-42.6,44.9c0,8,3.1,15.7,3.8,17.3l-28.3,15.6
		c0,0,0,0,0,0c-0.4,0-0.8-0.1-0.9-0.2c-0.5-0.6-4.6-4.9-10.5-9.3c-8.8-6.5-17.2-9.8-24.9-9.8c-7.6,0-16,3.3-24.7,9.7
		c-5.9,4.3-9.9,8.6-10.5,9.2c-0.1,0.1-0.5,0.2-0.9,0.2c0,0,0,0-0.1,0L327,562.9c0.7-1.6,3.8-9.3,3.8-17.3c0-24-18.9-43.7-42.6-44.9
		c-0.3-1.9-2.2-12.5-2.2-20.4c0-8,1.9-18.5,2.2-20.4c23.7-1.2,42.6-20.9,42.6-44.9c0-8-3.1-15.7-3.8-17.3l28.8-15.8c0,0,0.1,0,0.1,0
		c0.5,0,0.9,0.2,1.1,0.3c0.5,0.5,4.5,4.7,10.3,8.8c8.6,6.2,16.8,9.3,24.3,9.3c7.4,0,15.5-3.1,24.1-9.1c5.8-4.1,9.8-8.2,10.3-8.6
		c0.1-0.1,0.6-0.3,1.1-0.3c0,0,0.1,0,0.1,0l27.8,15.5c-0.7,1.6-3.8,9.3-3.8,17.3c0,24,18.9,43.7,42.6,44.9
		c0.3,1.9,2.2,12.5,2.2,20.4C496.1,488.1,494.2,498.7,493.9,500.6z"/>
	<path class="st0" d="M347.9,239.5c48.9,16,104.8,4.6,143.7-34.3c37-37,49.1-89.5,36.4-136.7l-79.9,79.9l-78.3-21l-21-78.3
		l79.9-79.9c-47.2-12.7-99.7-0.6-136.7,36.4c-37.3,37.2-49.3,90.1-36.2,137.5L40.2,358.9C-7.2,345.7-60,357.8-97.3,395
		c-37,37-49.1,89.5-36.4,136.7l79.9-79.9l78.3,21l21,78.3L-34.4,631c47.2,12.7,99.7,0.6,136.7-36.4c38.9-38.9,50.3-94.8,34.3-143.7
		L347.9,239.5z M78.2,570.5c-6,6-12.5,11.2-19.6,15.5l24.8-24.8L52.3,445l-116.2-31.2l-24.6,24.6c4.3-7,9.4-13.5,15.3-19.4
		c20.2-20.2,47.1-31.3,75.7-31.3c9.7,0,19.4,1.3,28.7,3.9l19.1,5.3L294,153.2l-5.3-19.1c-10.3-37.2,0.2-77.2,27.4-104.4
		c6-6,12.5-11.2,19.6-15.5L310.9,39l31.2,116.2l116.2,31.2l24.6-24.6c-4.3,7-9.4,13.5-15.3,19.4c-20.2,20.2-47.1,31.3-75.7,31.3
		c-11.4,0-22.6-1.8-33.4-5.3l-19.9-6.5L97.8,441.6l6.5,19.8C116.9,500.1,106.9,541.9,78.2,570.5z"/>
</g>
</svg>
