<?xml version="1.0" encoding="utf-8"?>
<!-- Generator: Adobe Illustrator 19.0.0, SVG Export Plug-In . SVG Version: 6.00 Build 0)  -->
<svg version="1.1" id="图层_1" xmlns="http://www.w3.org/2000/svg" xmlns:xlink="http://www.w3.org/1999/xlink" x="0px" y="0px" viewBox="0 0 595.3 841.9" style="enable-background:new 0 0 595.3 841.9;" xml:space="preserve">
	<style type="text/css">
		.st0{fill:#272636;}
		.st1{fill:none;stroke:#272636;stroke-width:43;stroke-miterlimit:10;}
	</style>
	<g>
		<g>
			<path class="st0" d="M657,470.3c-2.5,3.7-3.9,7.4-6.7,9.6c-36.6,29.2-73.4,58.2-110.2,87.2c-5.8,4.6-12.7,4.2-15.9-0.2
				c-3.1-4.3-1.9-10.7,3.5-15c36.6-29.1,73.3-58.3,110.3-87c3.1-2.4,8.8-2.3,13.1-1.8C653.1,463.2,654.7,467.3,657,470.3L657,470.3z
				 M657,470.3"/>
			<path class="st0" d="M454.1,452.1c-18.9,18.2-78.4,84.8-117.1,128.1c-11.2,12.5-21,26.4-30.7,40.2c-3.3,4.7-5.4,10.8-6.1,16.5
				c-2.2,18.5,11.5,31.2,29.6,26.6c13.3-3.4,26.8-7.7,38.6-14.4c31.4-17.9,46.9-27.3,77.7-46.2c2.2-1.3,7.9-5.1,7.9-5.1
				s37.7-26.4,42.2-29.8c37.8-28.9,75.7-57.7,113-87.3c19.8-15.7,38.8-32.4,53.6-53.1c12-16.8,11.7-40.9-0.2-56.1
				c-11.7-14.9-35.7-21.1-54.4-12.9c-11.5,5-22.9,10.8-33.1,18.1C549,395.2,473,433.9,454.1,452.1z M616.7,377.2
				c9.7-4.1,23.5-0.3,29.4,7.2c5.8,7.4,6.5,22.1,0.3,30.3c-6,8-12.7,15.5-19.8,22.4c-11.4,11-23.5,21.4-35.7,32.4
				c-13.7-17.2-26.6-33.6-40-50.5C572.1,403.2,592.7,387.4,616.7,377.2z M531.1,434.5c0.9-0.7,1.9-1.3,3.7-2.4
				c13.4,16.9,26.3,33.3,39.7,50.2c-12.9,10-25.1,19.8-37.6,29.3c-47.4,36.3-95.2,72.1-146.8,102.3c-17.6,10.3-36.5,18.1-54.9,26.9
				c-2.1,1-4.5,1.8-6.8,2c-2.4,0.2-4.9-0.5-7.4-0.8c0.3-2.3,0-4.9,1-6.8c3.6-6.4,7.1-13.1,11.7-18.7c11-13.4,22.1-26.8,34.2-39.2
				C418.6,525.5,474.5,479.7,531.1,434.5z"/>
		</g>
		<path class="st1" d="M466.5,581.3v133.7c0,31.2-25.5,56.7-56.7,56.7H-1.4c-31.2,0-56.7-25.5-56.7-56.7V229l109.6,0.7
			c39.4,0,48.6-16.8,48.6-56.2L99.2,71.4h310.6c31.2,0,56.7,25.5,56.7,56.7v334.6"/>
		<line class="st1" x1="-64.3" y1="223" x2="93" y2="65.4"/>
		<rect x="51.6" y="310.6" class="st0" width="329.6" height="42.3"/>
		<rect x="51.6" y="410.1" class="st0" width="329.6" height="42.3"/>
		<rect x="51.6" y="509.6" class="st0" width="263.6" height="42.3"/>
		<rect x="51.6" y="609.2" class="st0" width="199.6" height="42.3"/>
		<rect x="474.7" y="570.3" class="st0" width="13.3" height="22.7"/>
	</g>
</svg>
