<?xml version="1.0" encoding="utf-8"?>
<!-- Generator: Adobe Illustrator 19.0.0, SVG Export Plug-In . SVG Version: 6.00 Build 0)  -->
<svg version="1.1" id="图层_1" xmlns="http://www.w3.org/2000/svg" xmlns:xlink="http://www.w3.org/1999/xlink" x="0px" y="0px"
	 viewBox="40 -57.4 595.3 841.9" style="enable-background:new 40 -57.4 595.3 841.9;" xml:space="preserve">
<style type="text/css">
	.st0{fill:#272636;}
</style>
<g>
	<path class="st0" d="M265.6,144.7c0-2.9-2.3-5.2-5.2-5.2h-36.5c-2.9,0-5.2,2.3-5.2,5.2v36.5c0,2.9,2.3,5.2,5.2,5.2h36.5
		c2.9,0,5.2-2.3,5.2-5.2V144.7z"/>
	<path class="st0" d="M159.3,144.7c0-2.9-2.3-5.2-5.2-5.2h-36.5c-2.9,0-5.2,2.3-5.2,5.2v36.5c0,2.9,2.3,5.2,5.2,5.2h36.5
		c2.9,0,5.2-2.3,5.2-5.2V144.7z"/>
	<path class="st0" d="M265.6,248.8c0-2.9-2.3-5.2-5.2-5.2h-36.5c-2.9,0-5.2,2.3-5.2,5.2v36.5c0,2.9,2.3,5.2,5.2,5.2h36.5
		c2.9,0,5.2-2.3,5.2-5.2V248.8z"/>
	<path class="st0" d="M159.3,248.8c0-2.9-2.3-5.2-5.2-5.2h-36.5c-2.9,0-5.2,2.3-5.2,5.2v36.5c0,2.9,2.3,5.2,5.2,5.2h36.5
		c2.9,0,5.2-2.3,5.2-5.2V248.8z"/>
	<path class="st0" d="M260.4,336.6h-36.5c-2.9,0-5.2,2.3-5.2,5.2v36.5c0,2.9,2.3,5.2,5.2,5.2h36.5c2.9,0,5.2-2.3,5.2-5.2v-36.5
		C265.6,338.9,263.3,336.6,260.4,336.6z"/>
	<path class="st0" d="M154.1,336.6h-36.5c-2.9,0-5.2,2.3-5.2,5.2v36.5c0,2.9,2.3,5.2,5.2,5.2h36.5c2.9,0,5.2-2.3,5.2-5.2v-36.5
		C159.3,338.9,157,336.6,154.1,336.6z"/>
	<path class="st0" d="M45.3,621V73.6c0-14.5,12.8-27.4,27.3-27.4h234.9c14.5,0,25.2,12.9,25.2,27.4v398.3c2.3-3.6,4.7-7.1,7.2-10.5
		c0.1-0.2,0.3-0.4,0.4-0.6c1.1-1.4,2.2-2.9,3.3-4.3c0.5-0.6,0.9-1.1,1.4-1.7c0.8-1,1.7-2,2.5-3c0.5-0.6,1.1-1.3,1.7-1.9
		c0.8-0.9,1.6-1.8,2.4-2.7c0.6-0.6,1.2-1.3,1.8-1.9c0.8-0.9,1.6-1.7,2.4-2.5c0.6-0.6,1.3-1.3,1.9-1.9c0.8-0.8,1.7-1.6,2.5-2.4
		c0.7-0.6,1.3-1.2,2-1.8c0.9-0.8,1.7-1.6,2.6-2.3c2.5-2.2,5-4.4,7.6-6.4V281.8h160.9v115.4c11.1,3.3,21.8,7.8,31.8,13.1V266.1
		c0-11.1-6.4-20.2-16.9-20.2H365.9V64.6c0-30.7-23.7-56.6-54.3-56.6H68.6C37.9,8,11.3,33.9,11.3,64.6V621h-59.1
		c-1.4,0-2.6,1.8-2.6,4v35.4c0,2.2,1.2,4,2.6,4h382c-8.8-13.3-15.8-27.9-20.8-43.5H45.3z"/>
	<path class="st0" d="M715.7,379.9c6.4-6.4,9.6-14.8,9.6-23.1c0-8.4-3.2-16.7-9.6-23.1c-12.8-12.8-33.5-12.8-46.3,0l-94,93.9
		c-1.1,1.1-1.9,2.3-2.8,3.4c-24.3-15.9-53.4-25.1-84.6-25.1c-85.8,0-155.4,69.5-155.4,155.4c0,85.8,69.6,155.4,155.4,155.4
		c85.8,0,155.4-69.6,155.4-155.4c0-31.2-9.3-60.3-25.2-84.6c1.2-0.9,2.4-1.7,3.4-2.8L715.7,379.9z M488.1,681.2
		c-66.1,0-119.9-53.8-119.9-119.9c0-66.1,53.8-119.9,119.9-119.9c66.1,0,119.9,53.8,119.9,119.9C608,627.4,554.2,681.2,488.1,681.2z
		"/>
</g>
</svg>
