<?xml version="1.0" encoding="utf-8"?>
<!-- Generator: Adobe Illustrator 19.0.0, SVG Export Plug-In . SVG Version: 6.00 Build 0)  -->
<svg version="1.1" id="图层_1" xmlns="http://www.w3.org/2000/svg" xmlns:xlink="http://www.w3.org/1999/xlink" x="0px" y="0px" viewBox="0 0 595.3 841.9" style="enable-background:new 0 0 595.3 841.9;" xml:space="preserve">
	<g>
		<path class="st0" d="M527.2,449.9c0-127.1-103-230.1-230.1-230.1C170.1,219.8,67,322.8,67,449.9c0,10.6,8.6,19.2,19.2,19.2
			c10.6,0,19.2-8.6,19.2-19.2c0-105.9,85.9-191.8,191.8-191.8S488.9,344,488.9,449.9c0,10.6,8.6,19.2,19.2,19.2
			C518.7,469,527.2,460.5,527.2,449.9L527.2,449.9L527.2,449.9z M527.2,449.9"/>
		<path class="st0" d="M267.5,458.1L185,387.4c-8-6.9-20.1-6-27,2.1c-6.9,8-6,20.1,2.1,27l83.4,71.4c-2.1,5.9-3.2,12.3-3.2,18.9
			c0,31.5,25.5,57,57,57c31.5,0,57-25.5,57-57c0-31.5-25.5-57-57-57C286.3,449.9,276.2,452.9,267.5,458.1L267.5,458.1z M267.5,458.1"
			/>
		<path class="st0" d="M487.3,714.7c84.6-60.9,135.8-158.6,135.8-264.8c0-180-145.9-326-326-326c-180,0-326,145.9-326,326
			c0,104.1,49.2,200.1,131,261.3c8.5,6.3,20.5,4.6,26.8-3.9c6.3-8.5,4.6-20.5-3.9-26.8C52.9,626.4,9.5,541.8,9.5,449.9
			c0-158.9,128.8-287.6,287.6-287.6c158.9,0,287.6,128.8,287.6,287.6c0,93.8-45.2,179.9-119.9,233.7c-8.6,6.2-10.6,18.2-4.4,26.8
			C466.7,718.9,478.7,720.8,487.3,714.7L487.3,714.7L487.3,714.7z M487.3,714.7"/>
	</g>
</svg>
