<?xml version="1.0" encoding="utf-8"?>
<!-- Generator: Adobe Illustrator 19.0.0, SVG Export Plug-In . SVG Version: 6.00 Build 0)  -->
<svg version="1.1" id="图层_1" xmlns="http://www.w3.org/2000/svg" xmlns:xlink="http://www.w3.org/1999/xlink" x="0px" y="0px"
	 viewBox="-203.5 -121 842 842" style="enable-background:new -203.5 -121 842 842;" xml:space="preserve">
<style type="text/css">
	.st0{fill:#272636;}
</style>
<g>
	<polygon class="st0" points="61.4,430.7 41.8,390.8 22.1,430.7 -21.9,437.1 9.9,468.2 2.4,512 41.8,491.3 81.1,512 73.6,468.2 
		105.5,437.1 	"/>
	<rect x="-16.2" y="19.3" class="st0" width="315.6" height="32.9"/>
	<rect x="-16.2" y="99.5" class="st0" width="315.6" height="32.9"/>
	<rect x="-16.2" y="177.8" class="st0" width="315.6" height="32.9"/>
	<rect x="-16.2" y="252.4" class="st0" width="315.6" height="32.9"/>
	<path class="st0" d="M40.7,345.8c-60.2,0-109,48.8-109,109c0,60.2,48.8,109,109,109c60.2,0,109-48.8,109-109
		C149.7,394.6,100.9,345.8,40.7,345.8z M40.7,549.1c-52.1,0-94.3-42.2-94.3-94.3c0-52.1,42.2-94.3,94.3-94.3
		c52.1,0,94.3,42.2,94.3,94.3C134.9,506.9,92.7,549.1,40.7,549.1z"/>
	<rect x="380.1" y="507.3" class="st0" width="20.2" height="80.2"/>
	<rect x="308.6" y="544" class="st0" width="20.2" height="43.5"/>
	<rect x="416.6" y="484.2" class="st0" width="20.2" height="103.2"/>
	<rect x="342.3" y="523.6" class="st0" width="20.2" height="63.9"/>
	<polygon class="st0" points="411.2,443 371.7,484.3 352.2,466.7 295.7,525 303.9,533.1 352.7,482.7 372.3,500.4 419.6,451 
		434.6,465.2 442.6,419.5 397.2,429.8 	"/>
	<polygon class="st0" points="303.9,533.1 303.9,533.1 303.9,533.1 	"/>
	<path class="st0" d="M377.7,340.2c-91.1,0-164.9,73.8-164.9,164.9c0,91.1,73.8,165,164.9,165c91.1,0,165-73.9,165-165
		C542.7,414.1,468.9,340.3,377.7,340.2z M377.7,633.5c-70.7,0-128.3-57.5-128.3-128.3c0-70.7,57.6-128.3,128.3-128.3
		c70.8,0,128.3,57.6,128.3,128.3C506.1,575.9,448.5,633.5,377.7,633.5z"/>
	<path class="st0" d="M245.3,635.5c-36.1-33.5-58.7-81.3-58.7-134.4c0-101.2,82.1-183.3,183.3-183.3c21.4,0,42,3.7,61.1,10.4v-31
		h0.2V-23.5c0-26.1-21.2-47.3-47.3-47.3H-102c-26.1,0-47.3,21.2-47.3,47.3v614c0,26.1,21.2,47.3,47.3,47.3h349.8l-2.8-2.4H245.3z
		 M-102.4,603.1c-8.7,0-15.8-7.1-15.8-15.8V-21.4c0-8.7,7.1-15.8,15.8-15.8h485.4c8.7,0,15.8,7.1,15.8,15.8v303.9
		c-7.9-0.9-15.9-1.3-23.9-1.3c-121.3,0-219.9,98.7-219.9,219.9c0,33.9,7.9,72,22.6,102H-102.4z"/>
</g>
</svg>
