<?xml version="1.0" encoding="utf-8"?>
<!-- Generator: Adobe Illustrator 19.0.0, SVG Export Plug-In . SVG Version: 6.00 Build 0)  -->
<svg version="1.1" id="图层_1" xmlns="http://www.w3.org/2000/svg" xmlns:xlink="http://www.w3.org/1999/xlink" x="0px" y="0px" viewBox="0 0 595.3 841.9" style="enable-background:new 0 0 595.3 841.9;" xml:space="preserve">
	<g>
		<path class="st0" d="M148.3,180.7h265.8c7.9,0,14.4-6.5,14.4-14.4c0-7.9-6.5-14.4-14.4-14.4H148.3c-7.9,0-14.4,6.5-14.4,14.4
			C133.9,174.2,140.3,180.7,148.3,180.7z"/>
		<path class="st0" d="M148.3,266.6h174.1c7.9,0,14.4-6.5,14.4-14.4c0-7.9-6.5-14.4-14.4-14.4H148.3c-7.9,0-14.4,6.5-14.4,14.4
			C133.9,260.2,140.3,266.6,148.3,266.6z"/>
		<path class="st0" d="M519.1,277.1V85.2c0-9.7-8-17.7-17.7-17.7H93.9c-9.7,0-17.7,8-17.7,17.7v190.9L-28.4,435v199.4
			c0,78,63.8,141.8,141.8,141.8h368.6c78,0,141.8-63.8,141.8-141.8V435L519.1,277.1z M104.5,95.9h386.3v310.8H382.7
			c0,47-38.1,85-85.1,85c-47,0-85.1-38.1-85.1-85H104.5V95.9z M76.2,321.8v84.8H29.5L76.2,321.8z M575.8,631.2
			c0,39.9-44.8,96.1-91.7,96.1c-46.9,0-314.5,0-361,0S19.5,679.9,19.5,640.6s0-187.7,0-187.7h161.2c0,0,21.4,75.9,107.4,75.9
			c86,0,129.6-75.9,129.6-75.9h158.2C575.8,452.9,575.8,591.4,575.8,631.2z M519.1,406.6v-82.9l46.7,82.9H519.1z"/>
	</g>
</svg>
