<?xml version="1.0" encoding="utf-8"?>
<!-- Generator: Adobe Illustrator 19.0.0, SVG Export Plug-In . SVG Version: 6.00 Build 0)  -->
<svg version="1.1" id="图层_1" xmlns="http://www.w3.org/2000/svg" xmlns:xlink="http://www.w3.org/1999/xlink" x="0px" y="0px" viewBox="0 0 595.3 841.9" style="enable-background:new 0 0 595.3 841.9;" xml:space="preserve">
	<style type="text/css">
		.st1{fill:none;stroke:#272636;stroke-width:40;stroke-miterlimit:10;}
	</style>
	<g>
		<g>
			<path class="st0" d="M411.7,62.7H183.9v708.7h227.8V62.7z M386.4,391.8H285.2v25.3h101.2v50.6h-50.6V493h50.6v50.6h-75.9v25.3
				h75.9v50.6h-50.6v25.3h50.6v97.7H234.6V341.1h101.2h50.6V391.8L386.4,391.8z M386.4,164h-50.6v25.3h50.6v50.6h-75.9v25.3h75.9
				v50.6h-50.6H234.6V113.4h151.9V164L386.4,164z M386.4,164"/>
		</g>
		<g>
			<polyline class="st1" points="-56.5,325 69.8,325 109.3,760.4 476.4,760.4 515,325 652.2,325 		"/>
		</g>
	</g>
</svg>
