<?xml version="1.0" encoding="utf-8"?>
<!-- Generator: Adobe Illustrator 19.0.0, SVG Export Plug-In . SVG Version: 6.00 Build 0)  -->
<svg version="1.1" id="图层_1" xmlns="http://www.w3.org/2000/svg" xmlns:xlink="http://www.w3.org/1999/xlink" x="0px" y="0px"
	 viewBox="0 0 595.3 841.9" style="enable-background:new 0 0 595.3 841.9;" xml:space="preserve">
<style type="text/css">
	.st0{fill:#272636;}
</style>
<path class="st0" d="M416.5,534.5c-0.3,0-0.5,0-0.7,0c-5.9-8.7-13.3-16.3-21.9-22.2l57.4-57.4l-49.8-49.8l48.5-48.5L403.4,310
	l-48.5,48.5l-49.8-49.8l-67.7,67.7c-32.1,32.1-49,90.1-34.3,132.9c-3.3-0.5-6.7-0.7-10.2-0.7c-40.8,0-73.8,33-73.8,73.8
	s33,73.8,73.8,73.8c10.5,0,20.6-2.2,29.6-6.2c11.3,9.2,25.7,14.7,41.4,14.7c14.9,0,28.5-4.9,39.5-13.2c12.6,7.7,27.4,12.1,43.3,12.1
	c16.8,0,32.4-5,45.5-13.6c7.4,3.2,15.6,5.1,24.3,5.1c33.3,0,60.3-27,60.3-60.3S449.8,534.5,416.5,534.5z M401.8,339.7l20.9,20.9
	l-48.9,46.5c-11.3,11.3-23.8,21.5-37.2,30.2l-33.2,21.6c-0.6,0.4-1.5,0.3-2-0.2s-0.7-1.4-0.2-2l21.6-33.2
	c8.7-13.4,18.9-25.9,30.2-37.2L401.8,339.7z M221.1,457c3.6-25.6,15.5-50.6,31.8-66.9l53.2-53.2l36.4,36.5l-2.9,2.9
	c-13.3,13.3-25.2,28-35.4,43.7l-24,36.9c-4.2,6.4-3.3,15,2.2,20.3c5.4,5.4,14,6.3,20.3,2.2l36.9-24c15.7-10.2,30.4-22.2,43.7-35.4
	l2.9-2.9l36.5,36.4L376.1,500c-9.5-4.1-20-6.4-31-6.4c-27.1,0-50.9,13.8-64.8,34.8c-4.1-0.9-8.4-1.3-12.7-1.3
	c-4.7,0-9.2,0.5-13.5,1.5c-6.9-8.2-15.6-14.8-25.6-19.1c-2.6-5-4.7-10.3-6.1-16.2C219.7,482.4,219.3,469.9,221.1,457z M399.9,633.8
	c-7.5,0-13.7-4.3-20.1-6.8c-11.4,6.6-25.8,13.8-40.4,13.8c-13.8,0-26.6-6.3-37.5-12.2c-9.5,6.4-21.4,14-34.2,14
	c-13.6,0-26.1-8.1-35.9-15.2c-7.9,3-16.6,6.7-25.7,6.7c-35.4,0-57.7-20-57.7-51.3s14.9-52.1,50.2-52.1c3,0,5.9,0.1,8.8,0.5l16.6,4.2
	c14.4,3.2,23.1,16.9,23.7,17.6c4.1-0.8,22.5-1.1,26.9-1.1c4.1,0,8,0.3,11.8,1.1c12.9-17.2,28.1-33.7,53.2-33.7
	c10.2,0,17,2.4,25.8,5.7l12.2,5.9c7.5,4.6,13.9,10.4,19,17.1c0.2,0,3.3,0,3.5,0c28.9,0,47.4,18.8,47.4,44.3
	C447.3,617.9,428.7,633.8,399.9,633.8z"/>
<g>
	<path class="st0" d="M529.6,231.1"/>
	<path class="st0" d="M520,122.1V67.6h-81.8v54.5h-99.4V67.6h-81.8v54.5h-99.4V67.6H75.9v54.5H11.7v654.2h572.4V122.1H520z
		 M410.9,149.3h27.3v54.5h27.3v-27.2V94.9h27.3v81.8v27.2h27.3v-54.5h27.3v81.8h0v0h0v0H520h-81.8h-27.3V149.3z M229.8,149.3
		L229.8,149.3H257v54.5h27.3v-27.2V94.9h27.3v81.8v27.2h27.3v-54.5h27.3v81.8h-27.3H257h-27.3V149.3z M48.7,231.1v-81.8h27.3v54.5
		h27.3v-27.2V94.9h27.3v81.8v27.2h27.3v-54.5h27.3v81.8h-27.3H75.9L48.7,231.1L48.7,231.1z M548,740.2H47.9V262.8H548V740.2z"/>
</g>
</svg>
