<?xml version="1.0" encoding="utf-8"?>
<!-- Generator: Adobe Illustrator 19.0.0, SVG Export Plug-In . SVG Version: 6.00 Build 0)  -->
<svg version="1.1" id="图层_1" xmlns="http://www.w3.org/2000/svg" xmlns:xlink="http://www.w3.org/1999/xlink" x="0px" y="0px" viewBox="0 0 595.3 841.9" style="enable-background:new 0 0 595.3 841.9;" xml:space="preserve">
	<g>
		<path class="st0" d="M523.7,295.2c53.7,38.1,97.8,89.3,127.8,149.2c-65.8,131.5-199.8,221.5-354.3,221.5c-43.3,0-85-7.1-124-20.1
			l53.9-53.9c22.9,5.1,46.3,7.6,70.1,7.6c62,0,122.4-17.6,174.7-51c41.6-26.6,76.9-62.1,103.4-104c-25.6-40.5-59.5-75.1-99.4-101.4
			L523.7,295.2L523.7,295.2L523.7,295.2z M297.2,573.2c-15.7,0-31-2.1-45.5-5.9l216.7-216.7c3.8,14.5,5.9,29.8,5.9,45.5
			C474.3,493.8,395,573.2,297.2,573.2L297.2,573.2z M607.2,90.1H570l-152,152c-38.1-12.4-78.7-19.1-120.9-19.1
			C142.6,223,8.7,313-57.1,444.4c29.5,59,72.8,109.6,125.4,147.5L-57.1,717.3v37.2H-20l627.2-627.2V90.1L607.2,90.1L607.2,90.1z
			 M230.7,307.4c33.2,0,60.8,24.4,65.7,56.3l-75.8,75.8c-31.9-4.9-56.3-32.4-56.3-65.7C164.3,337.2,194.1,307.4,230.7,307.4
			L230.7,307.4z M19.1,444.4c26.5-41.9,61.8-77.5,103.4-104c2.7-1.7,5.4-3.4,8.2-5.1c-6.9,18.9-10.7,39.3-10.7,60.6
			c0,40.5,13.6,77.8,36.5,107.7L116,544.2C77.2,518.1,44.2,484.1,19.1,444.4L19.1,444.4z M19.1,444.4"/>
	</g>
</svg>
