<?xml version="1.0" encoding="utf-8"?>
<!-- Generator: Adobe Illustrator 19.0.0, SVG Export Plug-In . SVG Version: 6.00 Build 0)  -->
<svg version="1.1" id="图层_1" xmlns="http://www.w3.org/2000/svg" xmlns:xlink="http://www.w3.org/1999/xlink" x="0px" y="0px" viewBox="0 0 595.3 841.9" style="enable-background:new 0 0 595.3 841.9;" xml:space="preserve">
	<g>
		<path class="st0" d="M540.4,67.8H54.6C28.4,67.8,7.2,89,7.2,115.1v614c0,26.1,21.2,47.3,47.3,47.3h485.9
			c26.2,0,47.3-21.2,47.3-47.3v-614C587.8,89,566.6,67.8,540.4,67.8L540.4,67.8z M555.4,725.9c0,8.7-7.1,15.8-15.8,15.8H54.2
			c-8.7,0-15.8-7.1-15.8-15.8V117.1c0-8.7,7.1-15.8,15.8-15.8h485.4c8.7,0,15.8,7.1,15.8,15.8V725.9L555.4,725.9z M261.7,524.5
			l-26.3-53.3l-26.3,53.3l-58.8,8.5l42.5,41.5l-10,58.6l52.6-27.7l52.6,27.7l-10-58.6l42.6-41.5L261.7,524.5z M140.4,157.9H456v32.9
			H140.4V157.9L140.4,157.9z M140.4,238.1H456V271H140.4V238.1L140.4,238.1z M140.4,316.3H456v32.9H140.4V316.3L140.4,316.3z
			 M324.6,406.7c21.7,12.1,25.6,20.7,25.6,20.7H456v-32.9H289.6C289.6,394.6,302.9,394.6,324.6,406.7L324.6,406.7z M233.9,411
			c-80.5,0-145.7,65.2-145.7,145.7c0,80.5,65.2,145.7,145.7,145.7c80.5,0,145.7-65.2,145.7-145.7C379.6,476.2,314.4,411,233.9,411
			L233.9,411z M233.9,682.7c-69.6,0-126-56.4-126-126c0-69.6,56.4-126,126-126c69.6,0,126,56.4,126,126
			C359.9,626.3,303.5,682.7,233.9,682.7L233.9,682.7z M233.9,682.7"/>
	</g>
</svg>
