<?xml version="1.0" encoding="utf-8"?>
<!-- Generator: Adobe Illustrator 19.0.0, SVG Export Plug-In . SVG Version: 6.00 Build 0)  -->
<svg version="1.1" id="图层_1" xmlns="http://www.w3.org/2000/svg" xmlns:xlink="http://www.w3.org/1999/xlink" x="0px" y="0px"
	 viewBox="0 0 595.3 841.9" style="enable-background:new 0 0 595.3 841.9;" xml:space="preserve">
<style type="text/css">
	.st0{fill:#272636;}
</style>
<g>
	<rect x="323.4" y="430.8" class="st0" width="56.5" height="223.9"/>
	<rect x="123.6" y="533.3" class="st0" width="56.5" height="121.5"/>
	<rect x="425.2" y="366.3" class="st0" width="56.5" height="288.4"/>
	<rect x="217.8" y="476.3" class="st0" width="56.5" height="178.4"/>
	<polygon class="st0" points="410.2,251.3 299.9,366.6 245.3,317.3 87.5,480.2 110.6,502.8 246.9,362.2 301.6,411.5 433.6,273.5 
		475.5,313.2 497.8,185.6 371,214.2 	"/>
	<polygon class="st0" points="110.6,502.8 110.6,502.8 110.5,502.8 	"/>
	<path class="st0" d="M540.2,67.4H54.3C28.2,67.4,7,88.6,7,114.8v614c0,26.1,21.2,47.3,47.3,47.3h485.9c26.2,0,47.3-21.2,47.3-47.3
		v-614C587.5,88.6,566.3,67.4,540.2,67.4z M555.1,725.5c0,8.7-7.1,15.8-15.8,15.8H53.9c-8.7,0-15.8-7.1-15.8-15.8V116.8
		c0-8.7,7.1-15.8,15.8-15.8h485.4c8.7,0,15.8,7.1,15.8,15.8V725.5z"/>
</g>
</svg>
