<?xml version="1.0" encoding="utf-8"?>
<!-- Generator: Adobe Illustrator 19.0.0, SVG Export Plug-In . SVG Version: 6.00 Build 0)  -->
<svg version="1.1" id="图层_1" xmlns="http://www.w3.org/2000/svg" xmlns:xlink="http://www.w3.org/1999/xlink" x="0px" y="0px" viewBox="0 0 595.3 841.9" style="enable-background:new 0 0 595.3 841.9;" xml:space="preserve">
	<path class="st0" d="M619.9,285.4v-48.3c0-17.8-14.4-32.2-32.2-32.2H297.8c0.4,0-65.6-64.4-69.8-64.4H7.9
		c-17.8,0-32.2,14.4-32.2,32.2v112.7c-17.8,0-32.2,14.4-32.2,32.2l32.2,354.3v0c0,9.7,4.4,18.3,11.1,24.2c5.7,4.9,13,8,21.1,8h579.8
		c17.8,0,32.2-14.4,32.2-32.2l32.2-354.3C652.1,299.8,637.7,285.4,619.9,285.4z M15,186.9h214.7c1.5,0,64.2,56.3,65.5,56.3h285.4
		v42.2H15V186.9z M569.5,636c0,14-12.2,25.4-27.2,25.4H53.3c-6.8,0-13-2.4-17.8-6.3c-5.7-4.7-9.4-11.4-9.4-19v0L-1.1,357.1
		c0-14,12.2-25.4,27.2-25.4h19.8h7.4h489.1h27.2c15,0,27.2,11.4,27.2,25.4L569.5,636z"/>
</svg>
