<?xml version="1.0" encoding="utf-8"?>
<!-- Generator: Adobe Illustrator 19.0.0, SVG Export Plug-In . SVG Version: 6.00 Build 0)  -->
<svg version="1.1" id="图层_1" xmlns="http://www.w3.org/2000/svg" xmlns:xlink="http://www.w3.org/1999/xlink" x="0px" y="0px" viewBox="0 0 595.3 841.9" style="enable-background:new 0 0 595.3 841.9;" xml:space="preserve">
	<g>
		<path class="st0" d="M76,390.6h265v43.1H76V390.6L76,390.6z M76,390.6"/>
		<path class="st0" d="M76,479.8h265v43.1H76V479.8L76,479.8z M76,479.8"/>
		<path class="st0" d="M565.5,79H205.1c-5.7,1.4-14,2.7-18.1,2.7c-31.9,5.5-66.5,50-66.5,79.3v95.9H24.8c-34.7,0-81.9,41.9-81.9,82.3
			v235c0,37.6,48.6,85,88.8,82.1v111.4l142.9-111.4h214.8c37.6,0,83.3-43.1,84.6-84.9v-61.2l88.8,87.8V478.4
			c38.8,1.4,88.8-46.1,88.8-85V161.1C651.6,124.8,604.3,76,565.5,79L565.5,79z M429.7,577c-1.4,12.6-18.1,34.9-34.6,34.9H159.2
			L76,677.2v-65.3H20.7c-12.6-1.4-33.5-18.1-33.5-33.3V334.9c-2.7-13.8,22.2-36,36.2-33.3h368.9c15.2,0,37.4,18.1,37.4,33.3V577
			L429.7,577z M607.3,399.1c-1.4,12.4-18.1,34.6-34.9,34.6h-53.9v57.1l-43.1-43.1V337.9c-1.4-36.2-47-82.3-84.4-82.3H164.8v-98.8
			c-2.8-13.8,22.2-36,36-33.3h368.9c15.4-4.1,37.6,19.5,37.6,33.3V399.1L607.3,399.1z M607.3,399.1"/>
	</g>
</svg>
