<?xml version="1.0" encoding="utf-8"?>
<!-- Generator: Adobe Illustrator 19.0.0, SVG Export Plug-In . SVG Version: 6.00 Build 0)  -->
<svg version="1.1" id="图层_1" xmlns="http://www.w3.org/2000/svg" xmlns:xlink="http://www.w3.org/1999/xlink" x="0px" y="0px"
	 viewBox="40 -57.4 595.3 841.9" style="enable-background:new 40 -57.4 595.3 841.9;" xml:space="preserve">
<style type="text/css">
	.st0{fill-rule:evenodd;clip-rule:evenodd;fill:#272536;}
</style>
<g>
	<polygon class="st0" points="322.9,76.8 264.2,76.8 264.2,111.4 411,111.4 411,76.8 352.3,76.8 352.3,42.2 425.6,42.2 425.6,7.7 
		249.5,7.7 249.5,42.2 322.9,42.2 	"/>
	<path class="st0" d="M513.7,59.5h-29.3v34.6h29.4c33,0,58.7,30.3,58.7,69.1v432.1c0,47.5-33.1,86.4-73.4,86.4H176.2
		c-40.3,0-73.4-38.9-73.4-86.4V163.2c0-38.9,25.7-69.1,58.7-69.1h29.4V59.5h-29.4c-49.2,0-88,45.7-88,103.7v432.1
		c0,66.6,46.2,121,102.7,121H499c56.5,0,102.7-54.4,102.7-121V163.2C601.7,105.3,562.9,59.5,513.7,59.5z"/>
	<path class="st0" d="M194.4,356.9c25.1,17.2,97,51.3,97,51.3s8.8-4,0.9-31.7l-7.9-23.5h105.8c0,0,63.9-2.4,63.9,63.1
		c0,30.4-15.4,71-63.9,71H232.8v34.8h157.4c0,0,107.1,1.3,105.8-105.8c0,0,4-105.8-105.8-105.8H284.3c0,0,5.3-15.9,7.9-29.1
		c4-13.2,9.3-35.7-7.9-23.8c-17.2,11.9-50.3,29.1-78,48.9C178.5,326.1,167.9,338.3,194.4,356.9z"/>
</g>
</svg>
