<?xml version="1.0" encoding="utf-8"?>
<!-- Generator: Adobe Illustrator 19.0.0, SVG Export Plug-In . SVG Version: 6.00 Build 0)  -->
<svg version="1.1" id="图层_1" xmlns="http://www.w3.org/2000/svg" xmlns:xlink="http://www.w3.org/1999/xlink" x="0px" y="0px" viewBox="0 0 595.3 841.9" style="enable-background:new 0 0 595.3 841.9;" xml:space="preserve">
	<g>
		<polygon class="st0" points="652.2,637.6 560.5,637.6 560.5,603.9 652.2,603.9 652.2,637.6 	"/>
		<polygon class="st0" points="652.2,669.5 560.5,669.5 560.5,700.4 652.2,700.4 652.2,669.5 	"/>
		<polygon class="st0" points="652.2,540.9 560.5,540.9 560.5,571.8 652.2,571.8 652.2,540.9 	"/>
		<g>
			<path class="st0" d="M58.3,176.1c12.3,0,23.5,6.8,29.2,17.4L89,307.2c0.2,11.6,5.1,22.7,13.7,30.5c7.8,7.1,17.9,11,28.3,11
				c1.1,0,2.2,0,3.3-0.1c4-0.3,8.6-0.6,13-0.6c43.2,0,83.9,16.8,114.5,47.4c30.6,30.6,47.4,71.2,47.4,114.5c0,4.3-0.2,8.8-0.7,14.1
				c-1.1,11.8,2.8,23.4,10.8,32.2c8,8.7,19.2,13.7,31,13.7h127.8v101.9H147.4c-43.2,0-83.9-16.8-114.5-47.4
				C2.3,593.6-14.5,553-14.5,509.8c0-20.2,3.7-39.8,11-58.5c7-18,17.2-34.5,30.3-49.2c7.4-8.3,11.2-19.2,10.5-30.3L29.2,231
				c-0.2-3.8-1-7.6-2.2-11.3c-5-14.5-0.8-30,6.2-33.5c11-5.6,19-8.7,22.8-10C56.8,176.1,57.6,176.1,58.3,176.1
				C58.3,176.1,58.3,176.1,58.3,176.1 M58.3,134.1c-3.7,0-7.5,0.3-11.2,0.8c0,0-12.7,3.4-33,13.9c-28.4,14.5-37.7,52.8-26.8,84.6
				l8.1,140.8c-32.1,36.2-51.8,83.4-51.8,135.6c0,112.6,91.3,203.9,203.9,203.9h372.8V527.7H350.4c0.6-6,0.9-11.9,0.9-18
				c0-112.6-91.3-203.9-203.9-203.9c-5.5,0-11,0.3-16.3,0.8l-1.6-121.8C118.7,153.6,89.5,134.1,58.3,134.1L58.3,134.1z"/>
		</g>
		<g>
			<path class="st0" d="M147.4,460.9c26.9,0,48.7,21.9,48.7,48.8c0,26.9-21.9,48.7-48.7,48.7c-26.9,0-48.7-21.9-48.7-48.7
				C98.6,482.8,120.5,460.9,147.4,460.9 M147.4,418.9c-50.1,0-90.7,40.7-90.7,90.8c0,50.1,40.6,90.7,90.7,90.7
				c50.2,0,90.7-40.6,90.7-90.7C238.1,459.7,197.5,418.9,147.4,418.9L147.4,418.9z"/>
		</g>
		<path class="st0" d="M72.2,509.8"/>
	</g>
</svg>
