<?xml version="1.0" encoding="utf-8"?>
<!-- Generator: Adobe Illustrator 19.0.0, SVG Export Plug-In . SVG Version: 6.00 Build 0)  -->
<svg version="1.1" id="图层_1" xmlns="http://www.w3.org/2000/svg" xmlns:xlink="http://www.w3.org/1999/xlink" x="0px" y="0px"
	 viewBox="-101 -120.9 595.3 841.9" style="enable-background:new -101 -120.9 595.3 841.9;" xml:space="preserve">
<style type="text/css">
	.st0{fill:#272636;}
</style>
<g>
	<rect x="223.3" y="308.9" class="st0" width="56.5" height="223.9"/>
	<rect x="23.5" y="411.3" class="st0" width="56.5" height="121.5"/>
	<rect x="325.1" y="244.4" class="st0" width="56.5" height="288.4"/>
	<rect x="117.7" y="354.4" class="st0" width="56.5" height="178.4"/>
	<polygon class="st0" points="310.1,129.4 199.8,244.7 145.2,195.4 -12.6,358.3 10.5,380.8 146.8,240.2 201.5,289.6 333.5,151.5 
		375.4,191.3 397.7,63.7 271,92.3 	"/>
	<polygon class="st0" points="10.5,380.9 10.5,380.8 10.5,380.9 	"/>
	<path class="st0" d="M440.1-54.5H70l-0.2-0.2L-92.8,106.7h-0.3v0.3v34.5v465.4c0,26.1,21.2,47.3,47.3,47.3h485.9
		c26.2,0,47.3-21.2,47.3-47.3v-614C487.4-33.3,466.3-54.5,440.1-54.5z M69.4-6.9v97.8c0,8.7-7.1,15.8-15.8,15.8h-98.7L69.4-6.9z
		 M455.1,603.6c0,8.7-7.1,15.8-15.8,15.8H-46.2c-8.7,0-15.8-7.1-15.8-15.8V141.5H54.4c26.2,0,47.3-21.2,47.3-47.3v-115h337.5
		c8.7,0,15.8,7.1,15.8,15.8V603.6z"/>
</g>
</svg>
