<?xml version="1.0" encoding="utf-8"?>
<!-- Generator: Adobe Illustrator 19.0.0, SVG Export Plug-In . SVG Version: 6.00 Build 0)  -->
<svg version="1.1" id="图层_1" xmlns="http://www.w3.org/2000/svg" xmlns:xlink="http://www.w3.org/1999/xlink" x="0px" y="0px" viewBox="0 0 595.3 841.9" style="enable-background:new 0 0 595.3 841.9;" xml:space="preserve">
	<g>
		<path class="st0" d="M42.2,776.2h85.4V592.7H42.2V776.2L42.2,776.2L42.2,776.2z M184.6,776.2h85.4V506.7h-85.4L184.6,776.2
			L184.6,776.2L184.6,776.2z M344,776.2h85.4V437.9H344V776.2L344,776.2L344,776.2z M497.8,776.2h85.4V340.5h-85.4V776.2L497.8,776.2
			L497.8,776.2z M573.8,260.2l33.7-192.7L416,110.7l59.1,56L308.5,340.9l-82.5-74.4L-12.3,512.6l34.9,34.1h-0.1l206-212.5l82.7,74.6
			l199.4-208.6L573.8,260.2L573.8,260.2L573.8,260.2z"/>
	</g>
</svg>
