<?xml version="1.0" encoding="utf-8"?>
<!-- Generator: Adobe Illustrator 19.0.0, SVG Export Plug-In . SVG Version: 6.00 Build 0)  -->
<svg version="1.1" id="图层_1" xmlns="http://www.w3.org/2000/svg" xmlns:xlink="http://www.w3.org/1999/xlink" x="0px" y="0px"
	 viewBox="0 0 595.3 841.9" style="enable-background:new 0 0 595.3 841.9;" xml:space="preserve">
<style type="text/css">
	.st0{fill-rule:evenodd;clip-rule:evenodd;fill:#272536;}
	.st1{fill:#272636;}
</style>
<g>
	<g>
		<path class="st0" d="M524.6,530.1h-67.3v38h-46.7v111.8h49.9h12.3h37.5h12.4h49.8v-74.6h-47.9V530.1z M457.4,665.3h-31.3v-77.7
			h31.3V665.3L457.4,665.3L457.4,665.3z M474.3,665.3V547.1H509v58.1h0v60.1H474.3L474.3,665.3L474.3,665.3L474.3,665.3z
			 M558.9,665.3h-34.3v-45.5h34.3V665.3L558.9,665.3z"/>
	</g>
	<g>
		<path class="st0" d="M491.6,431.1c-96,0-173.8,77.8-173.8,173.8s77.8,173.8,173.8,173.8S665.4,701,665.4,604.9
			S587.6,431.1,491.6,431.1z M491.6,754c-82.3,0-149-66.7-149-149c0-82.3,66.7-149,149-149c82.3,0,149,66.7,149,149
			C640.6,687.2,573.9,754,491.6,754z"/>
	</g>
	<g>
		<path class="st1" d="M349.4,502.8l40.1-40.1C374.1,473.8,360.5,487.4,349.4,502.8z"/>
		<path class="st1" d="M438.7,407.7l-6.2-6.2l145.1-145.1c21.9-21.9,21.9-56.1,0-78L491.3,92c-21.9-21.9-56.1-21.9-78,0L268.2,237.1
			L117.6,86.5c-21.9-21.9-56.1-21.9-78,0L-48,174.2c-21.9,21.9-21.9,56.1,0,78l150.6,150.6L-22,527.4c-8.2,8.2-20.5,61.6-35.6,156.1
			v1.4c0,11,4.1,21.9,11,30.1c6.8,8.2,19.2,12.3,30.1,11h1.4c95.8-15.1,149.2-27.4,158.8-37l124.6-124.6l20.2,20.2
			C296.9,499.1,357.9,429.2,438.7,407.7z M436.9,118c10.2-10.2,26.8-10.2,35.7,0l81.7,81.7c10.2,10.2,10.2,26.8,0,35.7l-40.8,40.8
			L396.1,157.6L436.9,118z M77.5,326.4l63.6-63.6c5.1-5.1,5.1-12.7,0-17.8c-5.1-5.1-12.7-5.1-17.8,0l-63.6,63.6l-31.8-31.8
			l63.6-63.6c5.1-5.1,5.1-12.7,0-17.8c-5.1-5.1-12.7-5.1-17.8,0L10.1,259l-26.7-26.7c-10.2-10.2-10.2-25.5,0-35.6l81.4-81.4
			c10.2-10.2,25.5-10.2,35.6,0l140,140L123.3,372.2L77.5,326.4z M-17.9,699.8c-6.8,0-12.3-5.5-12.3-12.3
			c8.2-52,19.2-112.3,27.4-135.5l120.5,120.5C94.4,680.7,35.5,691.6-17.9,699.8z M27.4,522.2l334.2-334.3l118.3,118.3L145.6,640.4
			L27.4,522.2z"/>
	</g>
</g>
</svg>
