<?xml version="1.0" encoding="utf-8"?>
<!-- Generator: Adobe Illustrator 19.0.0, SVG Export Plug-In . SVG Version: 6.00 Build 0)  -->
<svg version="1.1" id="图层_1" xmlns="http://www.w3.org/2000/svg" xmlns:xlink="http://www.w3.org/1999/xlink" x="0px" y="0px"
	 viewBox="0 0 595.3 841.9" style="enable-background:new 0 0 595.3 841.9;" xml:space="preserve">
<style type="text/css">
	.st0{fill:#272636;}
</style>
<polygon class="st0" points="161.6,553.3 141.9,513.4 122.3,553.3 78.3,559.7 110.1,590.7 102.6,634.6 141.9,613.9 181.3,634.6 
	173.8,590.7 205.6,559.7 "/>
<polygon class="st0" points="84,141.9 399.6,141.9 399.6,174.8 84,174.8 84,141.9 "/>
<polygon class="st0" points="84,222.1 399.6,222.1 399.6,255 84,255 84,222.1 "/>
<polygon class="st0" points="84,300.3 399.6,300.3 399.6,333.2 84,333.2 84,300.3 "/>
<polygon class="st0" points="84,374.9 399.6,374.9 399.6,407.8 84,407.8 84,374.9 "/>
<path class="st0" d="M140.8,468.3c-60.2,0-109,48.8-109,109c0,60.2,48.8,109,109,109c60.2,0,109-48.8,109-109
	C249.9,517.1,201.1,468.3,140.8,468.3z M140.8,671.7c-52.1,0-94.3-42.2-94.3-94.3c0-52.1,42.2-94.3,94.3-94.3
	c52.1,0,94.3,42.2,94.3,94.3C235.1,629.4,192.9,671.7,140.8,671.7z"/>
<path class="st0" d="M177.5,666.7"/>
<rect x="480.3" y="629.9" class="st0" width="20.2" height="80.2"/>
<rect x="408.8" y="666.5" class="st0" width="20.2" height="43.5"/>
<rect x="516.7" y="606.8" class="st0" width="20.2" height="103.2"/>
<rect x="442.5" y="646.2" class="st0" width="20.2" height="63.9"/>
<polygon class="st0" points="511.4,565.6 471.9,606.9 452.3,589.2 395.9,647.6 404.1,655.6 452.9,605.3 472.5,623 519.8,573.5 
	534.8,587.8 542.7,542.1 497.4,552.3 "/>
<polygon class="st0" points="404.1,655.6 404.1,655.6 404.1,655.6 "/>
<path class="st0" d="M477.9,756.1c70.8,0,128.3-57.5,128.3-128.3c0-70.7-57.5-128.3-128.3-128.3c-70.7,0-128.3,57.6-128.3,128.3
	C349.7,698.5,407.2,756.1,477.9,756.1 M477.9,792.7c-91.1,0-164.9-73.8-164.9-165c0-91.1,73.8-164.9,164.9-164.9
	c91.1,0,165,73.8,165,164.9C642.9,718.9,569,792.7,477.9,792.7L477.9,792.7L477.9,792.7L477.9,792.7z M477.9,792.7"/>
<path class="st0" d="M499.5,391.4v13.7c-8.1-0.9-16.2-1.4-24.4-1.4c-121.3,0-219.9,98.7-219.9,219.9c0,34.1,8,72.6,23,102.7h-4
	h-96.6v31.7h168c-36.1-33.5-58.7-81.3-58.7-134.4c0-101.2,82.1-183.3,183.3-183.3c21.4,0,42,3.7,61.1,10.4v-59.4H499.5z"/>
<path class="st0" d="M-2.2,725.6c-8.7,0-15.8-7.1-15.8-15.8V101.1c0-8.7,7.1-15.8,15.8-15.8h485.4c8.7,0,15.8,7.1,15.8,15.8v318.7
	h32.4V99.1c0-26.1-21.2-47.3-47.3-47.3H-1.8C-28,51.8-49.2,73-49.2,99.1v614c0,26.1,21.2,47.3,47.3,47.3H348l-42-34.8H-2.2z"/>
</svg>
