<?xml version="1.0" encoding="utf-8"?>
<!-- Generator: Adobe Illustrator 19.0.0, SVG Export Plug-In . SVG Version: 6.00 Build 0)  -->
<svg version="1.1" id="图层_1" xmlns="http://www.w3.org/2000/svg" xmlns:xlink="http://www.w3.org/1999/xlink" x="0px" y="0px" viewBox="0 0 595.3 841.9" style="enable-background:new 0 0 595.3 841.9;" xml:space="preserve">
	<g>
		<path class="st0" d="M701.9,360.3H409.6c-9,0-16.2,8.2-16.2,18.4v367.1c0,10.1,7.3,18.4,16.2,18.4h292.3c9,0,16.2-8.2,16.2-18.4
			V378.7C718.1,368.6,710.8,360.3,701.9,360.3z M489.9,715.8c0,7.3-5.5,13.2-12.3,13.2h-36.8c-6.8,0-12.3-5.9-12.3-13.2v-26.3
			c0-7.3,5.5-13.2,12.3-13.2h36.8c6.8,0,12.3,5.9,12.3,13.2V715.8z M489.9,636.8c0,7.2-5.5,13.1-12.3,13.1h-36.8
			c-6.8,0-12.3-5.9-12.3-13.1v-26.2c0-7.2,5.5-13.1,12.3-13.1h36.8c6.8,0,12.3,5.9,12.3,13.1V636.8z M489.9,557.9
			c0,7.3-5.5,13.2-12.3,13.2h-36.8c-6.8,0-12.3-5.9-12.3-13.2v-26.3c0-7.3,5.5-13.2,12.3-13.2h36.8c6.8,0,12.3,5.9,12.3,13.2V557.9z
			 M586.5,715.8c0,7.3-5.5,13.2-12.3,13.2h-36.8c-6.8,0-12.3-5.9-12.3-13.2v-26.3c0-7.3,5.5-13.2,12.3-13.2h36.8
			c6.8,0,12.3,5.9,12.3,13.2V715.8z M586.5,636.8c0,7.2-5.5,13.1-12.3,13.1h-36.8c-6.8,0-12.3-5.9-12.3-13.1v-26.2
			c0-7.2,5.5-13.1,12.3-13.1h36.8c6.8,0,12.3,5.9,12.3,13.1V636.8z M586.5,557.9c0,7.3-5.5,13.2-12.3,13.2h-36.8
			c-6.8,0-12.3-5.9-12.3-13.2v-26.3c0-7.3,5.5-13.2,12.3-13.2h36.8c6.8,0,12.3,5.9,12.3,13.2V557.9z M683,715.8
			c0,7.3-5.5,13.2-12.3,13.2h-36.8c-6.8,0-12.3-5.9-12.3-13.2v-26.3c0-7.3,5.5-13.2,12.3-13.2h36.8c6.8,0,12.3,5.9,12.3,13.2V715.8z
			 M683,636.8c0,7.2-5.5,13.1-12.3,13.1h-36.8c-6.8,0-12.3-5.9-12.3-13.1v-26.2c0-7.2,5.5-13.1,12.3-13.1h36.8
			c6.8,0,12.3,5.9,12.3,13.1V636.8z M683,557.9c0,7.3-5.5,13.2-12.3,13.2h-36.8c-6.8,0-12.3-5.9-12.3-13.2v-26.3
			c0-7.3,5.5-13.2,12.3-13.2h36.8c6.8,0,12.3,5.9,12.3,13.2V557.9z M683,474.5c0,9.7-7.9,17.6-17.6,17.6H446.1
			c-9.7,0-17.6-7.9-17.6-17.6v-70.2c0-9.7,7.9-17.6,17.6-17.6h219.4c9.7,0,17.6,7.9,17.6,17.6V474.5z"/>
		<g>
			<path class="st0" d="M331.3,95.6c5.2,0,13.6,1.9,23.4,4.1c3.2,0.7,6.5,1.5,10.2,2.2c-8,12.7-32.2,48.2-56.2,82.7H151
				c-14.9-21.5-44.5-64.3-57-83.5c11-1.7,34.1-3.6,51.5-4c0.1,0,0.3,0,0.5,0c4,0,7.1,1.3,15.5,5.3c13.8,6.6,32.8,15.6,65.9,15.6
				c2.7,0,5.5-0.1,8.3-0.2c44.1-1.9,69.9-12.5,85.3-18.8c3.2-1.3,7.1-2.9,8.5-3.3C329.7,95.6,330.4,95.6,331.3,95.6 M331.3,65.6
				c-2.6,0-5.1,0.2-7.6,0.7c-14.1,2.7-35.1,19.2-89.3,21.5c-2.4,0.1-4.8,0.2-7,0.2c-46.2,0-55.5-20.9-81.5-20.9c-0.4,0-0.8,0-1.2,0
				C126.4,67.5,89.3,70,79,73.8C68.7,77.6,51.4,90,67.6,115.5c16.2,25.5,67.7,99.1,67.7,99.1h189c0,0,65.5-93.7,69.9-103.4
				c4.3-9.7,11.4-32-14.1-36.8C359,70.3,343.9,65.6,331.3,65.6L331.3,65.6z"/>
		</g>
		<g>
			<path class="st0" d="M315.3,298.8c5.2,3.9,13,10,22.7,18.2V744H33.4c-1,0-1.9,0-2.9,0.1c-1.4,0.1-3.1,0.1-5.3,0.1
				c-18.6,0-54.3-5.4-83.8-41.9c-10.1-12.4-18.1-32.3-21.5-53.1c-3.7-22.7-2-44.9,5-62.3c17.8-44.7,40.5-87.9,67.5-128.3
				C14,426.1,38.5,395.3,65.1,367c33.8-35.9,62.6-58.7,75.4-68.2H315.3 M325,268.8H130.9c0,0-151.9,100.7-233.9,307
				c-19.1,48.1-5.7,112.2,21.1,145.4c39.3,48.6,87.6,53,107.1,53c4.3,0,7.2-0.2,8.3-0.2H368V303.2C342.2,280.4,325,268.8,325,268.8
				L325,268.8z"/>
		</g>
		<path class="st0" d="M246,661.6"/>
		<polygon class="st0" points="295.7,518 295.7,537.6 237,537.6 237,576.7 295.7,576.7 295.7,596.3 237,596.3 237,635.4 197.8,635.4 
			197.8,596.3 139.1,596.3 139.1,576.7 197.9,576.7 197.9,537.6 139.1,537.6 139.1,518 199.7,518.2 119.6,439.7 158.7,439.7 
			217.4,498.5 276.1,439.7 315.3,439.7 241.9,518.2 295.7,518 	"/>
	</g>
</svg>
