<?xml version="1.0" encoding="utf-8"?>
<!-- Generator: Adobe Illustrator 19.0.0, SVG Export Plug-In . SVG Version: 6.00 Build 0)  -->
<svg version="1.1" id="图层_1" xmlns="http://www.w3.org/2000/svg" xmlns:xlink="http://www.w3.org/1999/xlink" x="0px" y="0px" viewBox="0 0 595.3 841.9" style="enable-background:new 0 0 595.3 841.9;" xml:space="preserve">
	<g>
		<path class="st0" d="M719.6,384.4c6.9-6.9,10.3-15.9,10.3-24.9c0-9-3.4-18-10.3-24.9c-13.8-13.8-36.1-13.8-49.9,0L568.4,435.8
			c-1.2,1.2-2.1,2.5-3,3.7c-26.3-17.1-57.5-27.1-91.2-27.1c-92.6,0-167.6,75-167.6,167.6c0,92.5,75,167.6,167.6,167.6
			c92.6,0,167.6-75.1,167.6-167.6c0-33.7-10-65-27.1-91.3c1.3-1,2.5-1.8,3.7-3L719.6,384.4L719.6,384.4z M474.1,694.6
			c-63.2,0-114.7-51.5-114.7-114.7c0-63.2,51.5-114.7,114.7-114.7c63.2,0,114.6,51.5,114.6,114.7
			C588.8,643.2,537.3,694.6,474.1,694.6L474.1,694.6z M474.1,694.6"/>
		<g>
			<path class="st0" d="M278,649.3H-17.5c-7.2,0-13.8-2.6-18.9-6.7c-6.1-5-10-12.1-10-20.2l-28.9-296.6c0-14.9,13-27,28.9-27h21.1
				h7.9h520h28.9c15.9,0,28.9,12.1,28.9,27l-11,47.5c19.2,0.6,37.6,4.1,54.8,10.2l14.9-99.7c0-18.9-15.3-34.2-34.2-34.2v-51.4
				c0-18.9-15.3-34.2-34.2-34.2H242.4c0.4,0-69.7-68.5-74.2-68.5h-234c-18.9,0-34.2,15.3-34.2,34.2v119.8
				c-18.9,0-34.2,15.3-34.2,34.2l34.2,376.7c0,10.3,4.7,19.5,11.8,25.7c6.1,5.2,13.8,8.5,22.4,8.5h356.7
				C284.7,680.4,280.3,665.1,278,649.3z M-58.2,144.8H170c1.6,0,68.3,59.9,69.6,59.9h303.4v44.9H-58.2V144.8z"/>
		</g>
	</g>
</svg>
