<?xml version="1.0" encoding="utf-8"?>
<!-- Generator: Adobe Illustrator 19.0.0, SVG Export Plug-In . SVG Version: 6.00 Build 0)  -->
<svg version="1.1" id="图层_1" xmlns="http://www.w3.org/2000/svg" xmlns:xlink="http://www.w3.org/1999/xlink" x="0px" y="0px" viewBox="0 0 595.3 841.9" style="enable-background:new 0 0 595.3 841.9;" xml:space="preserve">
	<path class="st0" d="M524.1,513.8c-0.5,0-0.9,0-1.4,0c-11.2-16.7-25.4-31.1-41.9-42.5l109.7-109.7l-95.2-95.2l92.7-92.7l-89-89
		l-92.7,92.7l-95.2-95.2L181.8,211.5c-61.4,61.4-93.6,172.2-65.6,254c-6.3-0.9-12.8-1.3-19.4-1.3c-77.9,0-141,63.1-141,141
		s63.1,141,141,141c20.1,0,39.3-4.2,56.6-11.8c21.6,17.6,49.1,28.1,79.1,28.1c28.4,0,54.5-9.4,75.5-25.3
		c24.1,14.7,52.4,23.2,82.7,23.2c32.1,0,61.9-9.5,86.9-25.9c14.2,6.2,29.9,9.7,46.4,9.7c63.6,0,115.2-51.6,115.2-115.2
		S587.7,513.8,524.1,513.8z M499,126.3l47.4,47.4l-98.7,98.7c-25.6,25.6-54.1,48.7-84.5,68.5l-75.3,49c-1.4,0.9-3.4,0.7-4.6-0.5
		s-1.5-3.2-0.5-4.6l49-75.3c19.8-30.4,42.8-58.8,68.5-84.5L499,126.3z M137.7,368.8c7.4-52.2,31.7-103.2,64.9-136.5l108.5-108.5
		l74.3,74.4l-6,6c-27.1,27.1-51.4,57.1-72.3,89.2l-49,75.3c-8.5,13-6.7,30.5,4.4,41.5c11,11,28.5,12.9,41.5,4.4l75.3-49
		c32.1-20.9,62.1-45.2,89.2-72.3l6-6l74.4,74.3L454,456.5c-19.4-8.4-40.7-13.1-63.2-13.1c-55.2,0-103.8,28.2-132.2,71
		c-8.4-1.8-17.1-2.7-26-2.7c-9.5,0-18.7,1.1-27.6,3.1c-14.1-16.8-31.9-30.2-52.3-39c-5.4-10.1-9.6-21.1-12.5-33.1
		C134.9,420.6,134,395,137.7,368.8z M508.6,712c-15.5,0-28.3-8.9-41.6-14.1c-23.5,13.6-53.5,28.5-83.7,28.5
		c-28.5,0-55.1-13.1-77.7-25.3c-19.7,13.2-44.3,29-70.9,29c-28.2,0-54-16.7-74.3-31.4c-16.3,6.3-34.3,13.8-53.2,13.8
		c-73.2,0-119.5-41.5-119.5-106.2s30.8-107.9,104-107.9c6.2,0,12.3,0.3,18.2,1.1l34.3,8.6c29.8,6.7,47.8,35,49.1,36.4
		c8.4-1.7,46.6-2.2,55.6-2.2c8.4,0,16.5,0.7,24.4,2.2c26.7-35.6,58.2-69.7,110.1-69.7c21.1,0,35.2,4.9,53.4,11.9l25.2,12.3
		c15.5,9.5,28.8,21.5,39.4,35.3c0.5,0,6.8,0,7.3,0c59.8,0,98.2,38.9,98.2,91.8C606.8,679.1,568.3,712,508.6,712z"/>
</svg>
