<?xml version="1.0" encoding="utf-8"?>
<!-- Generator: Adobe Illustrator 19.0.0, SVG Export Plug-In . SVG Version: 6.00 Build 0)  -->
<svg version="1.1" id="图层_1" xmlns="http://www.w3.org/2000/svg" xmlns:xlink="http://www.w3.org/1999/xlink" x="0px" y="0px"
	 viewBox="0 0 595.3 841.9" style="enable-background:new 0 0 595.3 841.9;" xml:space="preserve">
<style type="text/css">
	.st0{fill:#272636;}
</style>
<g>
	<path class="st0" d="M651.3,463.7c-4.3-0.5-10-0.6-13.1,1.8c-37,28.7-73.6,57.9-110.3,87c-5.4,4.3-6.7,10.8-3.5,15
		c3.3,4.5,10.1,4.8,15.9,0.2c36.8-29,73.6-58,110.2-87.2c2.7-2.2,4.2-5.9,6.7-9.6C654.8,468,653.3,463.9,651.3,463.7z"/>
	<path class="st0" d="M662.6,372.1c-11.7-14.9-35.7-21.1-54.4-12.9c-11.5,5-22.9,10.8-33.1,18.1c-17.3,12.4-57.1,33.9-87.2,52.2
		V134.9c0-46.8-38.3-85-85-85H78.7L-79,208.5v501.3c0,46.8,38.3,85,85,85h396.8c46.8,0,85-38.3,85-85V593.7h0.3v-19.3
		c4-2.8,7-5,8.1-5.8c37.8-28.9,75.7-57.7,113-87.3c19.8-15.7,38.8-32.4,53.6-53.1C674.8,411.4,674.5,387.3,662.6,372.1z M78.4,109.5
		v84.2c0,7.8-6.4,14.2-14.2,14.2h-81.7L78.4,109.5z M411,750.3h-413c-20.3,0-36.9-16.6-36.9-36.9V251.2H64.6
		c31.2,0,56.7-25.5,56.7-56.7V94.4H411c20.3,0,36.9,16.6,36.9,36.9v328c-23.6,24.2-75.7,82.5-110.7,121.6
		c-11.2,12.5-21,26.4-30.7,40.2c-3.3,4.7-5.4,10.8-6.1,16.5c-2.2,18.5,11.5,31.2,29.6,26.6c13.3-3.4,26.8-7.7,38.6-14.4
		c31.4-17.9,46.9-27.3,77.7-46.2c0.4-0.3,1-0.6,1.6-1v110.9C447.8,733.7,431.2,750.3,411,750.3z M537,512.3
		c-47.4,36.3-95.2,72.1-146.8,102.3c-17.6,10.3-36.5,18.1-54.9,26.9c-2.1,1-4.5,1.8-6.8,2c-2.4,0.2-4.9-0.5-7.4-0.8
		c0.3-2.3,0-4.9,1-6.8c3.6-6.4,7.1-13.1,11.7-18.7c11-13.4,22.1-26.8,34.2-39.2c50.7-51.8,106.7-97.6,163.2-142.8
		c0.9-0.7,1.9-1.3,3.7-2.4c13.4,16.9,26.3,33.3,39.7,50.2C561.7,493,549.4,502.8,537,512.3z M646.6,415.4c-6,8-12.7,15.5-19.8,22.4
		c-11.4,11-23.5,21.4-35.7,32.4c-13.7-17.2-26.6-33.6-40-50.5c21.2-15.8,41.8-31.6,65.9-41.9c9.7-4.1,23.5-0.3,29.4,7.2
		C652,392.5,652.7,407.1,646.6,415.4z"/>
	<rect x="51.8" y="311.3" class="st0" width="329.6" height="42.3"/>
	<rect x="51.8" y="410.8" class="st0" width="329.6" height="42.3"/>
	<rect x="51.8" y="510.4" class="st0" width="263.6" height="42.3"/>
	<rect x="51.8" y="609.9" class="st0" width="199.6" height="42.3"/>
</g>
</svg>
