<?xml version="1.0" encoding="utf-8"?>
<!-- Generator: Adobe Illustrator 19.0.0, SVG Export Plug-In . SVG Version: 6.00 Build 0)  -->
<svg version="1.1" id="图层_1" xmlns="http://www.w3.org/2000/svg" xmlns:xlink="http://www.w3.org/1999/xlink" x="0px" y="0px" viewBox="0 0 595.3 841.9" style="enable-background:new 0 0 595.3 841.9;" xml:space="preserve">
	<g>
		<path class="st0" d="M438.9,394.9V267.6h70.7c0,0,35.9-2.5,49.4,15.8c13.5,18.3,9.9,42.5,9.9,42.5v189.3c0,0,2.4,28.7-12.7,45.7
			s-42.2,16-42.2,16h-75.1V453.5L272.4,602.1l166.6,159.5V638.7h101.7c61.8,0,95.3-33.5,95.3-95.3V301.1c0-61.8-33.5-95.3-95.3-95.3
			H438.9V83L272.4,233.4L438.9,394.9L438.9,394.9z M-41.5,393.4h281.5V82.1H-41.5V393.4L-41.5,393.4z M-41.5,762.4H241v-311H-41.5
			V762.4L-41.5,762.4z M176.8,515v185.5H22V515H176.8L176.8,515z M176.8,515"/>
	</g>
</svg>
