<?xml version="1.0" encoding="utf-8"?>
<!-- Generator: Adobe Illustrator 21.1.0, SVG Export Plug-In . SVG Version: 6.00 Build 0)  -->
<svg version="1.1" id="图层_1" xmlns="http://www.w3.org/2000/svg" xmlns:xlink="http://www.w3.org/1999/xlink" x="0px" y="0px"
	 viewBox="0 0 754.4 841.9" style="enable-background:new 0 0 754.4 841.9;" xml:space="preserve">
<style type="text/css">
	.st0{fill:#272636;}
</style>
<path class="st0" d="M161.7,154.2c0-21.8,15.5-39.5,34.5-39.5h362c19,0,34.5,17.7,34.5,39.5l25.9,197.6h33.3l-24.6-197.6
	c0-43.7-30.9-79.1-69-79.1h-362c-38.1,0-69,35.4-69,79.1l-24.6,197.6h33.2L161.7,154.2L161.7,154.2z M196.2,302.4
	c0,16.4,11.6,29.6,25.9,29.6h310.3c14.3,0,25.9-13.3,25.9-29.6c0-16.4-11.6-9.9-25.9-9.9H222.1C207.8,292.5,196.2,286,196.2,302.4
	L196.2,302.4z M515.1,233.2c14.3,0,25.9-13.3,25.9-29.6c0-16.4-11.6-9.9-25.9-9.9l-275.8,0c-14.3,0-25.9-6.5-25.9,9.9
	c0,16.4,11.6,29.6,25.9,29.6L515.1,233.2L515.1,233.2z M644.4,391.3H110c-38.1,0-69,35.4-69,79.1l17.3,217.4c0,43.7,30.9,79,68.9,79
	h499.9c38.1,0,69-35.4,69-79l17.2-217.4C713.4,426.7,682.5,391.3,644.4,391.3L644.4,391.3z M661.7,687.7c0,21.8-15.5,39.5-34.5,39.5
	l-499.9,0c-19,0-34.5-17.7-34.5-39.5L75.5,470.4c0-21.8,15.4-39.5,34.5-39.5h534.4c19,0,34.5,17.7,34.5,39.5L661.7,687.7
	L661.7,687.7z M472,618.5c0-16.4-11.6-29.6-25.9-29.6l-137.9,0c-14.3,0-25.9,13.3-25.9,29.6c0,16.4,11.6,29.6,25.9,29.6l0,0l0,0
	h137.9l0,0l0,0C460.4,648.2,472,634.9,472,618.5L472,618.5z"/>
</svg>
