<?xml version="1.0" encoding="utf-8"?>
<!-- Generator: Adobe Illustrator 19.0.0, SVG Export Plug-In . SVG Version: 6.00 Build 0)  -->
<svg version="1.1" id="图层_1" xmlns="http://www.w3.org/2000/svg" xmlns:xlink="http://www.w3.org/1999/xlink" x="0px" y="0px"
	 viewBox="40 -57.4 595.3 841.9" style="enable-background:new 40 -57.4 595.3 841.9;" xml:space="preserve">
<style type="text/css">
	.st0{fill:#272536;}
</style>
<g>
	<path class="st0" d="M636.5,390.8H372.4v251.9c0,30.9,24.9,56,55.6,56h208.5c30.7,0,55.6-25.1,55.6-56V446.8
		C692.1,415.8,667.2,390.8,636.5,390.8z M650.4,614.7c0,23.2-18.7,42-41.7,42H455.8c-23,0-41.7-18.8-41.7-42v-182h194.6
		c23,0,41.7,18.8,41.7,42V614.7z"/>
	<path class="st0" d="M-2.9,446.8v195.9c0,30.9,24.9,56,55.6,56h208.5c30.7,0,55.6-25.1,55.6-56V390.8H52.7
		C22,390.8-2.9,415.8-2.9,446.8z M275.1,432.8v182c0,23.2-18.7,42-41.7,42H80.5c-23,0-41.7-18.8-41.7-42v-140
		c0-23.2,18.7-42,41.7-42H275.1z"/>
	<path class="st0" d="M636.5,26.9H428c-30.7,0-55.6,25.1-55.6,56v251.9h264.1c30.7,0,55.6-25.1,55.6-56V82.9
		C692.1,51.9,667.2,26.9,636.5,26.9z M650.4,250.8c0,23.2-18.7,42-41.7,42H414.1v-182c0-23.2,18.7-42,41.7-42h152.9
		c23,0,41.7,18.8,41.7,42V250.8z"/>
	<rect x="195.1" y="117.2" class="st0" width="28.2" height="144.1"/>
	<rect x="144.2" y="149.4" class="st0" width="28.2" height="111.9"/>
	<polygon class="st0" points="37.9,185.3 37.9,185.3 37.9,185.3 	"/>
	<polygon class="st0" points="106,115.1 133.3,139.7 199.3,70.8 220.2,90.6 231.4,26.9 168,41.2 187.6,59.7 132.5,117.3 105.2,92.7 
		26.4,174.1 37.9,185.3 	"/>
	<rect x="91.5" y="172.1" class="st0" width="28.2" height="89.1"/>
	<rect x="44.4" y="200.6" class="st0" width="28.2" height="60.7"/>
	<path class="st0" d="M39,328.9h264.1V77c0-2.4-0.2-4.8-0.5-7.2c-6.3,36.6-20.7,70.5-41.2,99.7v117.4H66.8c-11.8,0-22.5-5-30.1-12.9
		c-18.4-1.6-36.3-5.3-53.3-10.7v9.6C-16.6,303.9,8.3,328.9,39,328.9z"/>
</g>
</svg>
