<?xml version="1.0" encoding="utf-8"?>
<!-- Generator: Adobe Illustrator 19.0.0, SVG Export Plug-In . SVG Version: 6.00 Build 0)  -->
<svg version="1.1" id="图层_1" xmlns="http://www.w3.org/2000/svg" xmlns:xlink="http://www.w3.org/1999/xlink" x="0px" y="0px" viewBox="0 0 595.3 841.9" style="enable-background:new 0 0 595.3 841.9;" xml:space="preserve">
	<g>
		<path class="st0" d="M148.6,67.1H0.3c-31.2,0-56.7,30.1-56.7,66.7V709c0,36.8,25.5,66.7,56.7,66.7h595.4
			c31.2,0,56.7-30.1,56.7-66.7V133.8c0-36.8-25.5-66.7-56.7-66.7l0,0H447.3 M581,109.3c18.1,0,32.8,17.3,32.8,38.7v546.8l0,0
			c0,21.4-14.7,38.7-32.8,38.7H15c-18.1,0-32.8-17.3-32.8-38.7V148c0-21.4,14.7-38.7,32.8-38.7H581L581,109.3z M595.7,93.1"/>
		<path class="st0" d="M533.5,363v-40.1H403.8V176.4h-40.1v146.5H232.3V176.4h-40.1v146.5H62.4V363h129.7v131.4H62.4v40.1h129.7
			v131.8h40.1V534.5h131.4v131.8h40.1V534.5h129.7v-40.1H403.8V363H533.5L533.5,363z M363.7,494.4H232.3V363h131.4V494.4L363.7,494.4
			z M363.7,494.4"/>
	</g>
</svg>
