<?xml version="1.0" encoding="utf-8"?>
<!-- Generator: Adobe Illustrator 19.0.0, SVG Export Plug-In . SVG Version: 6.00 Build 0)  -->
<svg version="1.1" id="图层_1" xmlns="http://www.w3.org/2000/svg" xmlns:xlink="http://www.w3.org/1999/xlink" x="0px" y="0px" viewBox="0 0 595.3 841.9" style="enable-background:new 0 0 595.3 841.9;" xml:space="preserve">
	<g>
		<g>
			<path class="st0" d="M468.4,530.8c13.3,8.4,23.4,19.4,31.4,33.6c8,13.7,11.9,29.2,11.9,46c0,13.3-2.7,25.2-7.5,36.7
				c-4.9,11.5-11.9,21.2-20.3,29.6c-8.4,8.4-18.6,15-29.6,19.9c-11.5,4.9-23.4,7.5-36.7,7.5c-16.8,0-31.8-4-45.5-11.9
				c-13.7-8-24.8-18.1-33.2-30.9c-1.8-1.8-3.1-3.1-4-4.9c-1.3-1.8-2.7-3.5-4.9-5.7c-6.2-8.8-10.2-19.5-11.9-32.3
				c-1.8-12.8-2.2-26.1-1.8-39.8c0.4-13.7,0.9-27.4,1.3-40.7c0.4-13.3-0.4-25.2-3.1-35.4c-4.4-8-9.3-16.8-15-26.1
				c-5.7-9.3-11.9-18.6-18.6-28.3c-1.3-1.8-2.2-3.1-3.1-4c-0.9-1.3-1.8-2.2-2.7-3.5c-7.5,9.3-15,18.1-22.1,27.4
				c-7.1,9.3-14.6,18.6-22.1,28.7c-1.8,2.2-3.5,4.9-4.9,7.1c-1.3,2.2-3.1,4.9-4.9,7.1c-3.5,7.5-5.3,14.1-5.3,19.4
				c0,5.7,0.9,11.1,2.2,16.4c1.3,5.3,3.1,10.6,4.9,16.4c1.8,5.7,2.7,11.9,3.1,19.4c0,7.5-0.9,15.9-3.1,26.1
				c-2.2,9.7-6.6,21.7-12.8,35.8c-6.6,17.7-18.1,32.3-34,43.8c-15.9,11.5-34,16.8-54.4,16.8c-13.3,0-25.2-2.7-36.7-7.5
				c-11.5-4.9-21.2-11.9-29.6-20.3c-8.4-8.4-15.5-18.6-20.3-29.6c-4.9-11.5-7.5-23.4-7.5-36.7c0-14.1,3.1-27.4,8.8-39.8
				c5.7-12.4,14.1-23,24.3-31.4c9.7-10.2,20.3-19,31.4-26.1c11.1-7.1,21.7-13.3,32.3-19.4c10.6-5.7,20.8-11.9,30.5-17.7
				c9.7-5.7,18.1-13.3,25.2-21.7c1.8-1.8,3.1-4,4.4-5.7c1.3-1.8,3.1-4,4.4-5.7l0.4-0.4c1.8-3.1,4-6.2,6.6-8.8
				c5.7-7.1,11.1-14.6,16.8-22.5c5.7-8,11.5-15.5,17.2-23.4c-10.2-10.6-19-19.5-26.5-26.1c-7.5-6.6-14.6-14.6-21.2-23.9
				c-13.7-18.1-25.6-37.6-35.4-57c-9.7-19.9-16.8-38.9-22.1-56.6c-5.3-17.7-8-34-8-48.2c0-14.1,2.2-24.8,7.5-31.4
				c2.7-1.8,6.6-3.5,11.9-4.4c5.3-0.9,9.3,0.9,12.4,5.7c7.5,9.3,15.9,21.7,25.2,35.8c9.3,13.7,19,28.7,29.6,45.1
				c10.6,15.9,21.7,32.7,33.6,50.4c11.5,17.7,23,34.9,34.5,51.7c2.2-3.1,4.9-6.6,7.1-9.7c2.2-3.5,4.4-6.6,7.1-9.7
				c10.6-15.5,21.2-31.4,30.9-48.2c9.7-16.4,19-32.3,27.9-47.3c8.4-15,15.9-28.7,22.5-40.7c6.2-12.4,11.1-21.7,14.6-27.9
				c2.7-4.4,7.5-6.6,14.1-7.1c6.6,0,12.4,1.8,17.2,6.2c2.2,2.2,4.4,9.3,6.2,20.8c1.8,11.5,1.3,26.1-1.8,43.8
				c-3.1,17.7-9.3,38.5-19,61.9c-9.7,23.4-24.8,48.2-45.5,74.3l-19,23.9c-6.2,8-12.8,15.9-19.4,23.9c9.3,13.7,17.7,27,26.1,39.3
				c8,12.4,15.5,23.4,22.5,33.6c9.7,10.2,19.9,18.6,30.1,24.3c10.2,5.7,19.9,11.1,28.7,15c9.3,4,17.7,8,25.6,11.5
				C455.1,520.6,462.2,525,468.4,530.8L468.4,530.8L468.4,530.8L468.4,530.8z M120.9,653.2c12.8,0,23.4-4.4,32.3-13.7
				c8.8-9.3,13.3-19.9,13.3-32.7c0-12.8-4.4-23.4-13.3-32.7c-8.8-9.3-19.9-13.7-32.3-13.7c-12.8,0-23.4,4.4-32.7,13.7
				c-9.3,9.3-13.7,19.9-13.7,32.7c0,12.8,4.4,23.4,13.7,32.7C97,648.8,108.1,653.2,120.9,653.2L120.9,653.2L120.9,653.2L120.9,653.2z
				 M417.1,653.2c12.8,0,23.4-4.4,32.7-13.3c8.8-8.8,13.3-19.9,13.3-32.3c0-12.8-4.4-23.4-13.3-32.7c-8.8-9.3-19.9-13.7-32.7-13.7
				c-12.8,0-23.4,4.4-32.7,13.7c-9.3,9.3-13.7,19.9-13.7,32.7c0,6.2,1.3,12.4,3.5,17.7c2.2,5.7,5.7,10.6,9.7,14.6c4,4,9.3,7.5,15,9.7
				C404.7,652.3,410.4,653.2,417.1,653.2L417.1,653.2L417.1,653.2L417.1,653.2z M417.1,653.2"/>
		</g>
		<g>
			<path class="st0" d="M120.5,258.9c-97.2,9.3-168-38.9-168-38.9l-8.8,109.3c0,0,155.3,67,240.4,32.4
				C133.5,323.8,120.5,258.9,120.5,258.9z"/>
			<g>
				<path class="st0" d="M360.5,154.4c-33,6.7-60.9,20-90.6,42.5c-18.9,14.3-30.3,21.9-49.1,30.5l51.2,77.9
					C291,282,360.5,154.4,360.5,154.4z"/>
				<path class="st0" d="M586.8,240.7c5.3-19.1,65.5-26.4,65.5-26.4S547.7,149.5,429,148.8c0,0,11.8,53.4-8.1,88.3
					c116.4-9.2,211.3,83.5,211.3,83.5C629.6,263.7,586.8,240.7,586.8,240.7z"/>
			</g>
		</g>
	</g>
</svg>
