<?xml version="1.0" encoding="utf-8"?>
<!-- Generator: Adobe Illustrator 19.0.0, SVG Export Plug-In . SVG Version: 6.00 Build 0)  -->
<svg version="1.1" id="图层_1" xmlns="http://www.w3.org/2000/svg" xmlns:xlink="http://www.w3.org/1999/xlink" x="0px" y="0px"
	 viewBox="-101 -120.9 595.3 841.9" style="enable-background:new -101 -120.9 595.3 841.9;" xml:space="preserve">
<style type="text/css">
	.st0{fill:#272636;}
</style>
<g>
	<rect x="223.5" y="309.5" class="st0" width="56.5" height="223.9"/>
	<rect x="23.6" y="411.9" class="st0" width="56.5" height="121.5"/>
	<rect x="325.3" y="245" class="st0" width="56.5" height="288.4"/>
	<rect x="117.9" y="355" class="st0" width="56.5" height="178.4"/>
	<polygon class="st0" points="310.2,130 200,245.3 145.4,196 -12.4,358.9 10.6,381.5 147,240.8 201.7,290.2 333.7,152.1 
		375.6,191.9 397.9,64.3 271.1,92.9 	"/>
	<polygon class="st0" points="10.7,381.5 10.6,381.5 10.6,381.5 	"/>
	<path class="st0" d="M440.2-53.9H-45.6C-71.8-53.9-93-32.7-93-6.5v614c0,26.1,21.2,47.3,47.3,47.3h485.9
		c26.2,0,47.3-21.2,47.3-47.3v-614C487.6-32.7,466.4-53.9,440.2-53.9z M455.2,604.2c0,8.7-7.1,15.8-15.8,15.8H-46
		c-8.7,0-15.8-7.1-15.8-15.8V-4.5c0-8.7,7.1-15.8,15.8-15.8h485.4c8.7,0,15.8,7.1,15.8,15.8V604.2z"/>
</g>
</svg>
