<?xml version="1.0" encoding="utf-8"?>
<!-- Generator: Adobe Illustrator 19.0.0, SVG Export Plug-In . SVG Version: 6.00 Build 0)  -->
<svg version="1.1" id="图层_1" xmlns="http://www.w3.org/2000/svg" xmlns:xlink="http://www.w3.org/1999/xlink" x="0px" y="0px" viewBox="0 0 595.3 841.9" style="enable-background:new 0 0 595.3 841.9;" xml:space="preserve">
	<g>
		<g>
			<path class="st0" d="M385.3,309.5l145.4,17.3l57.3,8.1c11.8,1.7,22.1,8,30.5,18.9c8.5,11,14.7,25.8,17.9,42.9
				c5,26.8-12.2,50.4-19.6,59.1l-151.6,44.4c7.3-19.1,10.7-43.6,3.7-73.7c-16-68.6-68.7-95.4-90.6-103.8l-5.2-2l-5.6,0.8l-1.1,0.1
				c0.7-0.7,1.5-1.3,2.3-2C374.7,314.8,381.2,311.4,385.3,309.5 M338.9,369c20.7,3.9,36.1,10.9,47,21.3c12.6,12.1,20.6,30,24.4,54.7
				c3.1,20.2-0.4,40-10.4,58.6c-5,9.4-10.5,16.2-13.9,20l-188.4,54.5c12.4-30.6,14.4-66.3,5.8-103.5c-8.3-36-27.6-61.5-47.5-79.1
				l181.8-25.5l0.7-0.1l0.7-0.1L338.9,369 M382.2,287c0,0-54.4,19.1-47.6,61.2l0,0l0,0L90.9,382.3c0,0,73.9,22.3,91.1,97.1
				c17.2,74.8-16.3,123.8-45.5,139.2l261.3-75.6c0,0,43.8-39.5,34.4-101.4c-9.4-61.8-42.9-85.9-90.1-94.5l28.6-3.9
				c21.2,8.1,63.7,31.1,77.1,88.2c18,77.2-44.7,109.9-44.7,109.9l226-66.2c0,0,37.8-36.1,29.2-82.5c-7.2-38.9-29.5-74.2-67-79.5
				l5.1-0.7L382.2,287L382.2,287z"/>
		</g>
		<g>
			<path class="st0" d="M227.7,288.9l91.2,9c-7.5,9.5-13.8,20.5-16.6,32.5l-100.1,14.1c-0.9-4.4-1.4-9.5-1.2-14.9
				C201.7,312.2,210.4,298.9,227.7,288.9 M223.2,266.3c-69.6,34.4-36.3,102.5-36.3,102.5l136.6-19.2c-7.1-35.2,47.5-68.7,47.5-68.7
				L223.2,266.3L223.2,266.3z"/>
		</g>
		<g>
			<path class="st0" d="M37.1,257.9c-5.5,7.9-9.4,16.3-11.9,25c-2.1,7.5-3.5,16.7-2.5,27.2c-18.3-4.8-36.4-9.5-45.3-11.6
				c-2.5-3.6-5.8-11.8-4.4-19.3c0.5-2.4,1.9-9.6,15.1-15.5L37.1,257.9 M96.8,274.3l0.9,1.2l9.4,1.1l52.9,6.2
				c-8.5,14-15.5,33.4-12.6,58l-62.7-13.2c-3.9-8.5-8.2-21.4-5.9-31.6C81.3,284.9,91.6,277.4,96.8,274.3 M90.9,229.4l-108.3,12.9
				C-70.7,262.9-44.1,317-31,319.2c8.1,1.3,90.9,23.6,90.9,23.6c-41.7-52.9,13.8-91.6,13.8-91.6l16.5,1.6c-4.1,2-27.4,14.1-32.9,38.4
				c-6,26.6,12.9,55.9,12.9,55.9L178.9,370c-34-70.8,28.8-103.7,28.8-103.7l-98-11.5h0L90.9,229.4L90.9,229.4z"/>
		</g>
		<g>
			<path class="st0" d="M169.5,233.1c2.4,3.7,4.2,10.7,5.1,18.2l-49-5.8c-1.2-2.6-2.6-5.1-4-7.4L169.5,233.1 M173.4,221.6l-73,7.7
				c0,0,13.4,12.3,17.4,26.4l68.5,8.1C186.2,263.8,187.1,230.2,173.4,221.6L173.4,221.6z"/>
		</g>
		<g>
			<path class="st0" d="M232.9,225c4.8,1.6,6.7,4,7.6,5.8c2.4,4.5,2.1,10.8,1.3,15.4l-34.9,6.7c-0.7-9.1-3-17.1-5.4-23.3L232.9,225
				 M233.5,214.8l-47.3,6.9c0,0,13.4,19.3,10.4,43.4l53.2-10.2C249.8,254.8,261.9,221.6,233.5,214.8L233.5,214.8z"/>
		</g>
		<g>
			<path class="st0" d="M290,218.9c1.8,0.5,5.3,1.9,6,5c0.9,3.9-0.9,9.1-2.6,12.7l-23.6,3.9c0-7.1-1.1-13.1-2.7-18L290,218.9
				 M290.2,208.7l-37.9,6c0,0,11.2,13.8,6.1,37.8l41.4-6.9c0,0,8.5-12.9,5.9-24.1S290.2,208.7,290.2,208.7L290.2,208.7z"/>
		</g>
		<path class="st0" d="M64.6,388.4c-60,0-108.7,55.4-108.7,123.8c0,52.4,64.5,123.8,108.7,123.8c60,0,108.7-55.4,108.7-123.8
			C173.4,443.8,124.7,388.4,64.6,388.4z M154.4,482.9c5.2,0,9.5,5,9.5,11.2c0,6.2-4.2,11.2-9.5,11.2s-9.5-5-9.5-11.2
			C145,487.9,149.2,482.9,154.4,482.9z M137.3,447c5.2,0,9.5,5,9.5,11.2c0,6.2-4.2,11.2-9.5,11.2c-5.2,0-9.5-5-9.5-11.2
			C127.8,452,132,447,137.3,447z M112,420.3c5.2,0,9.5,5,9.5,11.2c0,6.2-4.2,11.2-9.5,11.2c-5.2,0-9.5-5-9.5-11.2
			C102.5,425.3,106.8,420.3,112,420.3z M81.4,406.4c5.2,0,9.5,5,9.5,11.2c0,6.2-4.2,11.2-9.5,11.2c-5.2,0-9.5-5-9.5-11.2
			C71.9,411.4,76.2,406.4,81.4,406.4z M48.8,406.4c5.2,0,9.5,5,9.5,11.2c0,6.2-4.2,11.2-9.5,11.2s-9.5-5-9.5-11.2
			C39.3,411.4,43.6,406.4,48.8,406.4z M15.2,421.8c5.2,0,9.5,5,9.5,11.2c0,6.2-4.2,11.2-9.5,11.2s-9.5-5-9.5-11.2
			C5.8,426.8,10,421.8,15.2,421.8z M-3.3,447c5.2,0,9.5,5,9.5,11.2c0,6.2-4.2,11.2-9.5,11.2s-9.5-5-9.5-11.2
			C-12.8,452-8.5,447-3.3,447z M-12.8,482.9c5.2,0,9.5,5,9.5,11.2c0,6.2-4.2,11.2-9.5,11.2s-9.5-5-9.5-11.2
			C-22.2,487.9-18,482.9-12.8,482.9z M-12.8,541.3c-5.2,0-9.5-5-9.5-11.2c0-6.2,4.2-11.2,9.5-11.2s9.5,5,9.5,11.2
			C-3.3,536.3-7.6,541.3-12.8,541.3z M2.9,577.6c-5.2,0-9.5-5-9.5-11.2s4.2-11.2,9.5-11.2c5.2,0,9.5,5,9.5,11.2S8.1,577.6,2.9,577.6z
			 M24.7,606.6c-5.2,0-9.5-5-9.5-11.2c0-6.2,4.2-11.2,9.5-11.2s9.5,5,9.5,11.2C34.1,601.6,29.9,606.6,24.7,606.6z M52.1,617.8
			c-5.2,0-9.5-5-9.5-11.2c0-6.2,4.2-11.2,9.5-11.2s9.5,5,9.5,11.2C61.6,612.7,57.4,617.8,52.1,617.8z M5.8,512.1
			c0-40.8,28.2-73.9,63.1-73.9s63.1,33.1,63.1,73.9c0,40.8-28.2,73.9-63.1,73.9S5.8,552.9,5.8,512.1z M90.9,619.9
			c-5.2,0-9.5-5-9.5-11.2c0-6.2,4.2-11.2,9.5-11.2s9.5,5,9.5,11.2C100.3,614.9,96.1,619.9,90.9,619.9z M118.4,606.6
			c-5.2,0-9.5-5-9.5-11.2c0-6.2,4.2-11.2,9.5-11.2c5.2,0,9.5,5,9.5,11.2C127.8,601.6,123.6,606.6,118.4,606.6z M141.4,577.6
			c-5.2,0-9.5-5-9.5-11.2s4.2-11.2,9.5-11.2s9.5,5,9.5,11.2S146.6,577.6,141.4,577.6z M154.4,541.3c-5.2,0-9.5-5-9.5-11.2
			c0-6.2,4.2-11.2,9.5-11.2s9.5,5,9.5,11.2C163.9,536.3,159.7,541.3,154.4,541.3z"/>
	</g>
</svg>
