<?xml version="1.0" encoding="utf-8"?>
<!-- Generator: Adobe Illustrator 19.0.0, SVG Export Plug-In . SVG Version: 6.00 Build 0)  -->
<svg version="1.1" id="图层_1" xmlns="http://www.w3.org/2000/svg" xmlns:xlink="http://www.w3.org/1999/xlink" x="0px" y="0px"
	 viewBox="0 0 595.3 841.9" style="enable-background:new 0 0 595.3 841.9;" xml:space="preserve">
<style type="text/css">
	.st0{fill-rule:evenodd;clip-rule:evenodd;fill:#272536;}
</style>
<g>
	<path class="st0" d="M519.6,543.3h-71.8v40.5H398v119.3h53.3h13.1h40.1h13.2h53.1v-79.6h-51.1V543.3z M447.9,687.6h-33.4v-82.9
		h33.4V687.6L447.9,687.6L447.9,687.6z M465.9,687.6V561.5h37v62h0v64.2H465.9L465.9,687.6L465.9,687.6L465.9,687.6z M556.2,687.6
		h-36.6V639h36.6V687.6L556.2,687.6z"/>
</g>
<polygon class="st0" points="232.3,436.9 116.7,317.8 78.9,354.1 233,513.3 459.7,270.7 421.2,235.1 "/>
<g>
	<path class="st0" d="M484.4,437.7c-102.4,0-185.5,83-185.5,185.5s83,185.5,185.5,185.5s185.5-83,185.5-185.5
		S586.8,437.7,484.4,437.7z M484.4,782.2c-87.8,0-159-71.2-159-159c0-87.8,71.2-159,159-159c87.8,0,159,71.2,159,159
		C643.4,711,572.2,782.2,484.4,782.2z"/>
</g>
<g>
	<path class="st0" d="M258.6,693l-6.3,1.6l-7.8-2c-77-19.9-145.3-89-195.4-174.7C1.5,436-28.1,341.9-30.2,158.4l-0.5-43.2L7.8,120
		c36.2,4.5,73.6,4.4,112.3-1c39-5.4,79.3-16,120.8-32.3l11.4-4.5l11.3,4.5c41.6,16.3,81.8,26.9,120.8,32.3
		c38.8,5.3,76.2,5.5,112.4,1l38.4-4.8l-0.5,43.2c-1.2,109.1-12.2,186.7-31,248.8c12.9,2.2,25.4,5.6,37.4,9.9
		c23-73,36.5-164.5,38-294.9l0.5-50l-44.5,5.5c-41.9,5.2-85.2,5-130-1.1c-45.1-6.2-91.7-18.5-139.8-37.4l-13.1-5.2l-13.2,5.2
		C191,58.2,144.5,70.4,99.3,76.7c-44.8,6.2-88.1,6.4-130,1.1l-44.5-5.5l0.5,50c2.4,212.4,36.7,321.3,91.9,415.9
		c57.9,99.2,137,179.1,226.1,202.2l9,2.3l9-2.3c5.6-1.5,11.2-3.2,16.8-5.1C270.2,722.1,263.6,707.9,258.6,693z"/>
</g>
</svg>
