<?xml version="1.0" encoding="utf-8"?>
<!-- Generator: Adobe Illustrator 19.0.0, SVG Export Plug-In . SVG Version: 6.00 Build 0)  -->
<svg version="1.1" id="图层_1" xmlns="http://www.w3.org/2000/svg" xmlns:xlink="http://www.w3.org/1999/xlink" x="0px" y="0px" viewBox="0 0 595.3 841.9" style="enable-background:new 0 0 595.3 841.9;" xml:space="preserve">
	<g>
		<g>
			<path class="st0" d="M280,115.7l0,40c57.5,0,119.9,22.3,171.1,61.2c51.2,38.9,85.8,89.8,98,144c-2.5,14.5-5.2,29.4-8.2,44.6
				c-0.2,1.1-0.4,2.1-0.5,3.2c-11.5,12.2-20,29.2-23.7,49.1c-3.2,17.4-2.3,33.9,2.1,48.1c-0.7,1.8-1.4,3.6-1.9,5.5l-0.9,3.3
				c-0.6,2.3-1.2,4.6-1.8,6.8c-20.7,79-30.5,103.1-55.2,135.7c-26.1,34.5-71.7,66.4-128.3,89.7c-58.7,24.1-125.6,37.4-188.4,37.4
				c-39.1,0-75.7-5-109.1-14.8c-2.4-4-6-12-8.3-25.3c-3.2-18.1-2.9-39.8,0.7-59.5l20.6-98.4L301.4,615c1.7,0.2,3.4,0.3,5.1,0.3
				c11.3,0,21.8-4.1,29.8-11.3c2.7,0.5,5.6,0.8,8.4,0.8c21.9,0,40.6-15.6,44.5-37.2l31.8-176.7c0,0,0,0,0-0.1
				c2.8-15.5-2.6-31.1-14.3-41.6c0,0,0,0-0.1-0.1l-29.1-26c-8.8-7.8-20.1-12.1-31.8-12.1c-6,0-11.9,1.1-17.2,3.2
				c-8.2-5.5-17.8-8.8-27.9-9.3l-196.1-9.7c13.1-44.7,34.6-79.2,64.1-102.9c15.1-12.2,32.4-21.5,51.4-27.6c18.5-6,38.6-9,59.9-9
				V115.7 M280,115.7C180.7,115.7,89,172,59.5,310.7L44,313.9L-6.6,507.8l20.7,36.2L-13.7,677c-9.6,51.8,0,109.3,25.6,127.8
				c41.1,13.5,85.6,19.6,130.4,19.6c140.8,0,286-60.2,348.6-143c29.1-38.4,40.4-67.1,62-149.7c0.9-3.3,1.8-6.7,2.7-10.1
				c5,0.2,9.3,0.4,11.3,0.8c1.3,0.2,2.6,0.4,3.9,0.4c16.8,0,33.8-20.1,39.2-47.4c5.8-29.4-4-56-21.9-59.4c-1.5-0.3-4.4-1.4-7.8-2.8
				c3.4-17.5,6.6-35.1,9.6-52.9C563,219,414.5,115.8,280,115.7L280,115.7z M265,514.6c-0.5,0-0.9,0-1.4-0.1l-226-21
				c-9.1-0.8-15.3-9.8-12.8-18.6l36-130.2c1.8-6.4,7.6-10.8,14.2-10.8c0.2,0,0.5,0,0.7,0L298.7,345c9.2,0.5,15.7,9.1,13.6,18.1
				l-33,140.2C277.7,509.9,271.7,514.6,265,514.6L265,514.6z M344.8,564.8c-1.3,0-2.5-0.5-3.6-1.5L301,524.8
				c-1.3-1.3-1.9-3.2-1.5-4.9l38.7-162.8c0.9-3.7,4.2-6,7.6-6c1.8,0,3.6,0.6,5.1,2l29.1,26c1.3,1.2,2,3,1.7,4.8l-31.8,176.7
				C349.4,563.2,347.1,564.8,344.8,564.8L344.8,564.8z M574.9,511.7c-0.9,0-1.9-0.1-2.8-0.3c-13.1-2.7-20.2-23.4-16-46.2
				c3.9-21.2,16.3-36.9,28.6-36.9c0.9,0,1.9,0.1,2.8,0.3c13.1,2.7,20.2,23.4,16,46.2C599.5,496,587.1,511.7,574.9,511.7L574.9,511.7z
				 M306.6,575.3c-0.2,0-0.4,0-0.6,0L35.1,544.8c-1.7-0.2-3.2-1.2-3.9-2.8l-10.8-21.7c-1.7-3.4,0.8-7.3,4.5-7.3c0.2,0,0.4,0,0.5,0
				l254.8,25.8c1.1,0.1,2.2,0.6,3,1.4l26.9,26.3C313.3,569.9,310.9,575.3,306.6,575.3L306.6,575.3z"/>
		</g>
	</g>
</svg>
