<?xml version="1.0" encoding="utf-8"?>
<!-- Generator: Adobe Illustrator 19.0.0, SVG Export Plug-In . SVG Version: 6.00 Build 0)  -->
<svg version="1.1" id="图层_1" xmlns="http://www.w3.org/2000/svg" xmlns:xlink="http://www.w3.org/1999/xlink" x="0px" y="0px"
	 viewBox="0 0 595.3 841.9" style="enable-background:new 0 0 595.3 841.9;" xml:space="preserve">
<style type="text/css">
	.st0{fill-rule:evenodd;clip-rule:evenodd;fill:#272536;}
</style>
<g>
	<path class="st0" d="M620.7,555h-35.4v-53.1c0-70.9-35.4-124-106.3-124H306.6v-62h70.6c17.7,0,31-13.3,31-31V143.1
		c0-17.7-13.3-31-31-31H195.5c-17.7,0-31,13.3-31,31v137.3c0,17.7,13.3,31,31,31h70.6v66.4H102.5c-70.9,0-93,57.6-93,124V555h-35.4
		c-17.7,0-31,13.3-31,31v115.2c0,17.7,13.3,31,31,31H89.2c17.7,0,31-13.3,31-31V586c0-17.7-13.3-31-31-31H48.8v-76.9
		c0,0,0.6-62,80.3-62h137V555h-48.4c-17.7,0-31,13.3-31,31v110.7c0,17.7,13.3,31,31,31H355c17.7,0,31-13.3,31-31V586
		c0-17.7-13.3-31-31-31h-48.4V416.1h159.2c57.6,0,67,22.1,80.3,62v6V555h-40.4c-17.7,0-31,13.3-31,31v110.7c0,17.7,13.3,31,31,31
		h115.2c17.7,0,31-13.3,31-31V586C651.7,572.7,638.5,555,620.7,555L620.7,555L620.7,555L620.7,555z M195.5,276.3V151.6h181.8v124.6
		H195.5L195.5,276.3z M-14.5,691.1v-89.4h91.5v89.4H-14.5L-14.5,691.1z M224.3,691.1v-89.4h124.1v89.4H224.3L224.3,691.1z
		 M516.4,691.1v-89.4h91.5v89.4H516.4L516.4,691.1z"/>
</g>
</svg>
