<?xml version="1.0" encoding="utf-8"?>
<!-- Generator: Adobe Illustrator 19.0.0, SVG Export Plug-In . SVG Version: 6.00 Build 0)  -->
<svg version="1.1" id="图层_1" xmlns="http://www.w3.org/2000/svg" xmlns:xlink="http://www.w3.org/1999/xlink" x="0px" y="0px"
	 viewBox="0 0 595.3 841.9" style="enable-background:new 0 0 595.3 841.9;" xml:space="preserve">
<style type="text/css">
	.st0{fill:#272636;}
</style>
<path class="st0" d="M523.9,513.7c-0.5,0-0.9,0-1.4,0c-11.2-16.7-25.4-31.1-41.9-42.5l109.7-109.7l-95.2-95.2l92.7-92.7l-89-89
	l-92.7,92.7l-95.2-95.2L181.6,211.4c-61.4,61.4-93.6,172.2-65.6,254c-6.3-0.9-12.8-1.3-19.4-1.3c-77.9,0-141,63.1-141,141
	s63.1,141,141,141c20.1,0,39.3-4.2,56.6-11.8c21.6,17.6,49.1,28.1,79.1,28.1c28.4,0,54.5-9.4,75.5-25.3
	c24.1,14.7,52.4,23.2,82.7,23.2c32.1,0,61.9-9.5,86.9-25.9c14.2,6.2,29.9,9.7,46.4,9.7c63.6,0,115.2-51.6,115.2-115.2
	S587.5,513.7,523.9,513.7z M495.8,141.4l39.9,39.9l-93.4,88.8c-21.6,21.6-45.6,41-71.2,57.7l-63.4,41.3c-1.2,0.8-2.9,0.6-3.9-0.4
	c-1-1-1.3-2.7-0.4-3.9l41.3-63.4c16.7-25.6,36-49.5,57.7-71.2L495.8,141.4z M150.4,365.6c6.9-48.9,29.7-96.7,60.8-127.9l101.7-101.7
	l69.6,69.7l-5.6,5.6c-25.4,25.4-48.2,53.5-67.7,83.6l-45.9,70.5c-8,12.2-6.3,28.6,4.1,38.9c10.3,10.3,26.7,12.1,38.9,4.1l70.5-45.9
	c30.1-19.6,58.2-42.3,83.6-67.7l5.6-5.6l69.7,69.6l-88.9,88.9c-18.2-7.9-38.1-12.3-59.2-12.3c-51.7,0-97.3,26.4-123.9,66.5
	c-7.9-1.7-16-2.5-24.4-2.5c-8.9,0-17.5,1-25.9,2.9c-13.2-15.7-29.9-28.3-49-36.5c-5.1-9.5-9-19.8-11.7-31
	C147.8,414.1,147,390.2,150.4,365.6z M492.2,703.5c-14.3,0-26.1-8.2-38.4-13c-21.7,12.6-49.4,26.3-77.3,26.3
	c-26.3,0-50.9-12.1-71.7-23.4c-18.2,12.2-40.9,26.8-65.4,26.8c-26,0-49.8-15.4-68.6-29c-15,5.8-31.7,12.7-49.1,12.7
	c-67.6,0-110.3-38.3-110.3-98c0-59.7,28.4-99.6,96-99.6c5.7,0,11.4,0.3,16.8,1l31.7,7.9c27.5,6.2,44.1,32.3,45.3,33.6
	c7.8-1.6,43-2,51.3-2c7.8,0,15.2,0.6,22.5,2c24.6-32.9,53.7-64.3,101.6-64.3c19.5,0,32.5,4.5,49.3,11l23.3,11.4
	c14.3,8.8,26.6,19.8,36.4,32.6c0.5,0,6.3,0,6.7,0c55.2,0,90.7,35.9,90.7,84.7C582.8,673.1,547.3,703.5,492.2,703.5z"/>
</svg>
