<?xml version="1.0" encoding="utf-8"?>
<!-- Generator: Adobe Illustrator 19.0.0, SVG Export Plug-In . SVG Version: 6.00 Build 0)  -->
<svg version="1.1" id="图层_1" xmlns="http://www.w3.org/2000/svg" xmlns:xlink="http://www.w3.org/1999/xlink" x="0px" y="0px" viewBox="0 0 595.3 841.9" style="enable-background:new 0 0 595.3 841.9;" xml:space="preserve">
	<g>
		<path class="st0" d="M468.3,735.5h183.5V560H468.3V735.5z M527.6,615.3h65v65h-65V615.3z"/>
		<path class="st0" d="M570,154.6H129.2V96.8H-54.3v175.4h183.5v-57.7h422.4c22.5,0,40.9,18.4,40.9,40.9v97.2
			c0,22.5-18.4,40.9-40.9,40.9h-20.1v-60.2l-170.7,88.2l170.7,88.2v-56.3H570c45,0,81.9-36.8,81.9-81.9V236.5
			C651.9,191.4,615,154.6,570,154.6z M70,217.1H5v-65h65V217.1z"/>
		<path class="st0" d="M296,630.3H43.4c-22.5,0-40.9-18.4-40.9-40.9v-97.2c0-22.5,18.4-40.9,40.9-40.9h131.1v57.7h183.5V333.4H174.5
			v57.8H25.1c-45,0-81.9,36.8-81.9,81.9v135.3c0,45,36.8,81.9,81.9,81.9H296v56.3l170.7-88.2L296,570V630.3z M233.8,388.7h65v65h-65
			V388.7z"/>
	</g>
</svg>
