<?xml version="1.0" encoding="utf-8"?>
<!-- Generator: Adobe Illustrator 19.0.0, SVG Export Plug-In . SVG Version: 6.00 Build 0)  -->
<svg version="1.1" id="图层_1" xmlns="http://www.w3.org/2000/svg" xmlns:xlink="http://www.w3.org/1999/xlink" x="0px" y="0px" viewBox="0 0 595.3 841.9" style="enable-background:new 0 0 595.3 841.9;" xml:space="preserve">
	<g>
		<path class="st0" d="M686.8,393.6L314.9,74.8c-10.4-8.9-25.7-8.9-36.1,0L-93.1,393.6c-8.8,7.5-12,19.8-8,30.7
			c4,10.9,14.4,18.1,26,18.1H35.8v306.8c0,15.3,12.4,27.7,27.7,27.7h147.8c15.3,0,27.7-12.4,27.7-27.7V611h129.4v138.1
			c0,15.3,12.4,27.7,27.7,27.7H544c15.3,0,27.7-12.4,27.7-27.7V441.5h91.9c9.4,1.3,19.5-2.6,26.2-10.4
			C699.7,419.5,698.4,403.6,686.8,393.6L686.8,393.6z M516.3,721.4h-92.4V583.3c0-15.3-12.4-27.7-27.7-27.7H211.4
			c-15.3,0-27.7,12.4-27.7,27.7v138.1H91.3V414.6c0-15.3-12.4-27.7-27.7-27.7H-0.1l297-254.5l294,252h-56.4
			c-6.9,0-19.1,4.8-19.1,17.9v39.1h0.8V721.4L516.3,721.4z M516.3,721.4"/>
	</g>
</svg>
