<?xml version="1.0" encoding="utf-8"?>
<!-- Generator: Adobe Illustrator 21.1.0, SVG Export Plug-In . SVG Version: 6.00 Build 0)  -->
<svg version="1.1" id="图层_1" xmlns="http://www.w3.org/2000/svg" xmlns:xlink="http://www.w3.org/1999/xlink" x="0px" y="0px"
	 viewBox="0 0 708.7 708.7" style="enable-background:new 0 0 708.7 708.7;" xml:space="preserve">
<style type="text/css">
	.st0{fill:#272636;}
</style>
<path class="st0" d="M70.7,709.1H118V567.6h472.6v141.5h47.3l0-198.2H70.7L70.7,709.1L70.7,709.1z M684.9,0.6H23.3v28.3h661.6
	L684.9,0.6L684.9,0.6z M496,397.5h141.8l0-340.2H70.7v340.2h141.8l-212.6,85h708.7L496,397.5z M519.6,114h94.5v85.1h-94.5V114z
	 M519.6,255.8h94.5v85l-94.5,0V255.8z M188.8,340.8H94.3v-85h94.5V340.8z M188.8,199.1H94.3V114h94.5V199.1z M330.6,340.8h-94.5v-85
	h94.5L330.6,340.8L330.6,340.8z M330.6,199.1h-94.5V114h94.5L330.6,199.1L330.6,199.1z M472.4,340.8h-94.5v-85h94.5L472.4,340.8z
	 M472.4,199.1h-94.5V114h94.5L472.4,199.1z M543.3,624.3h-94.5v84.8h-47.3v-84.8H307v84.8h-47.3v-84.8h-94.5v84.8H118v0.1h472.6
	v-0.1h-47.3L543.3,624.3L543.3,624.3z"/>
</svg>
