<?xml version="1.0" encoding="utf-8"?>
<!-- Generator: Adobe Illustrator 19.0.0, SVG Export Plug-In . SVG Version: 6.00 Build 0)  -->
<svg version="1.1" id="图层_1" xmlns="http://www.w3.org/2000/svg" xmlns:xlink="http://www.w3.org/1999/xlink" x="0px" y="0px" viewBox="0 0 595.3 841.9" style="enable-background:new 0 0 595.3 841.9;" xml:space="preserve">
	<g>
		<g>
			<path class="st0" d="M299.7,383.6c-56.2,0-101.8,45.6-101.8,101.8s45.6,101.8,101.8,101.8c56.2,0,101.8-45.6,101.8-101.8
				S356,383.6,299.7,383.6L299.7,383.6z M299.7,556.9c-39.5,0-71.6-32.1-71.6-71.6c0-39.5,32.1-71.6,71.6-71.6s71.6,32.1,71.6,71.6
				C371.3,524.9,339.3,556.9,299.7,556.9L299.7,556.9z"/>
		</g>
	</g>
	<path class="st0" d="M535,185.5h-30.1h-6.1L488.7,317H100.3L90.2,185.5H53.9H-54.6v36.2H56.7L90.2,658v0l0,0h36.2h336.1H493h5.8
		l33.5-436.2h117.4v-36.2H535z M123.6,621.8L103,353.3h382.9l-20.6,268.5H123.6z"/>
</svg>
