<?xml version="1.0" encoding="utf-8"?>
<!-- Generator: Adobe Illustrator 19.0.0, SVG Export Plug-In . SVG Version: 6.00 Build 0)  -->
<svg version="1.1" id="图层_1" xmlns="http://www.w3.org/2000/svg" xmlns:xlink="http://www.w3.org/1999/xlink" x="0px" y="0px"
	 viewBox="-203.5 -121 842 842" style="enable-background:new -203.5 -121 842 842;" xml:space="preserve">
<style type="text/css">
	.st0{fill:#272636;}
</style>
<g>
	<rect x="243.7" y="378.7" class="st0" width="28" height="111.1"/>
	<rect x="144.6" y="429.5" class="st0" width="28" height="60.2"/>
	<rect x="294.2" y="346.7" class="st0" width="28" height="143"/>
	<rect x="191.3" y="401.3" class="st0" width="28" height="88.5"/>
	<polygon class="st0" points="286.7,289.7 232,346.8 204.9,322.4 126.7,403.2 138.1,414.4 205.7,344.6 232.9,369.1 298.3,300.7 
		319.1,320.4 330.2,257.1 267.3,271.3 	"/>
	<path class="st0" d="M442.3,569.9l-43.8-44.1l14.3-21.4c26.5-39.7,37-78.9,35-130.1c-2.4-57.3-20.8-98.5-63-141
		c-27.6-27.9-51.2-42.9-85.2-54.2c-21-6.9-27.1-7.7-66.5-7.7c-39.4,0-45.5,0.8-66.5,7.7c-33.9,11.3-57.5,26.3-85.2,54
		c-27.7,27.9-42.9,51.7-54.2,85.4c-6.9,21-7.7,27.1-7.7,66.5c0,39.4,0.6,45.5,7.7,66.5c11.3,33.7,26.5,57.5,54.2,85.2
		c28,28.2,47.1,40.3,83,53.1c23.8,8.4,27.7,9,67.3,9c38.4,0,44-0.6,67.4-8.4c14.8-4.7,35.9-14.8,50.4-23.9l24.9-15.6l42.1,41.6
		c23.2,23,44.1,42.5,46.5,43.3c6.9,2.5,7.6,2.4,15.6-3.9c4.3-3.3,7.7-8.7,7.6-11.8C486.1,616.1,470.8,598.8,442.3,569.9z
		 M270.9,560.9c-41.1,8.7-80,3.5-119-15.8c-42.1-20.8-74.5-57.7-89.8-102.3c-7.2-20.8-8.2-27.7-8.2-58.3c0-42.5,6.9-67.1,28-98.6
		c18.9-28.2,41-47.6,71.5-62.9c31-15.6,57.5-20.8,92.8-18.3c29.3,2.2,45.2,6.8,72.6,21.1c39.4,20.6,70.9,57.7,85.6,100.4
		c7.2,21.3,8,27.6,7.9,59.9c-0.3,32.3-1.1,38.4-8.4,57.5C381.3,504.5,331.5,548.2,270.9,560.9z"/>
	<path class="st0" d="M43.5,614.1l-61.9,0c-18.7,0-34-15.3-34-34V20.7c0-18.7,15.3-34,34-34h407.7c18.7,0,34,15.3,34,34l0.2,107.7
		c0.4,10.5,9,18.9,19.6,18.9s19.2-8.4,19.6-18.9l0.2-133.2c0-26.5-21.7-48.2-48.2-48.2H-44c-26.5,0-48.2,21.7-48.2,48.2v610.4
		c0,26.5,21.7,48.2,48.2,48.2l87.5-0.3c10.8-0.1,19.5-8.9,19.5-19.7S54.3,614.2,43.5,614.1z"/>
</g>
</svg>
