<?xml version="1.0" encoding="utf-8"?>
<!-- Generator: Adobe Illustrator 19.0.0, SVG Export Plug-In . SVG Version: 6.00 Build 0)  -->
<svg version="1.1" id="图层_1" xmlns="http://www.w3.org/2000/svg" xmlns:xlink="http://www.w3.org/1999/xlink" x="0px" y="0px" viewBox="0 0 595.3 841.9" style="enable-background:new 0 0 595.3 841.9;" xml:space="preserve">
	<g>
		<path class="st0" d="M639.8,305.8c-0.1-0.1-0.1-0.2-0.2-0.3l-175.1-200c-8.5-10.1-20.4-16-33-16h-0.2c-12.6,0-24.6,5.8-33.2,16
			c-7.7,8.7-11.9,20.5-11.9,33v84.3h-67.1c-12.3,0-22.2,9.9-22.2,22.2s9.9,22.2,22.2,22.2h89.3c12.3,0,22.2-9.9,22.2-22.2V138.5
			c0-1.5,0.3-2.7,0.6-3.3l174.7,199.4c1.7,2.2,1.7,6.6,0,8.7L431.4,542.9c-0.4-0.8-0.8-1.9-0.8-3.5V423.6c0-12.3-9.9-22.2-22.2-22.2
			H296.9h-89.3v-93.5c0-26.9-20.2-48.9-45-48.9c-12.8,0-24.9,5.7-33.2,15.6L-45.1,474.8l-0.2,0.2c-15.8,18.6-15.8,47.7,0,66.3
			c0.1,0.1,0.2,0.3,0.3,0.3l174.4,197.2c8.5,10.1,20.4,16,32.9,16h0.2c12.6,0,24.6-5.8,33.2-16c7.7-8.7,11.9-20.5,11.9-33v-83.3h68.4
			c12.3,0,22.2-9.9,22.2-22.2s-9.9-22.2-22.2-22.2h-90.7c-12.3,0-22.2,9.9-22.2,22.2v105.7c0,1.5-0.3,2.7-0.6,3.3l-174-196.8
			c-1.7-2.2-1.7-6.6,0-8.7l173.8-199.4c0.4,0.8,0.8,1.9,0.8,3.5v115.7c0,12.3,9.9,22.2,22.2,22.2h111.6h89.3v93.5
			c0,26.9,20.2,48.9,45,48.9c12.8,0,24.9-5.6,33.1-15.6l175.1-200.3c0.1-0.1,0.1-0.2,0.2-0.3C655.5,353.6,655.5,324.4,639.8,305.8
			L639.8,305.8z M639.8,305.8"/>
	</g>
</svg>
