<?xml version="1.0" encoding="utf-8"?>
<!-- Generator: Adobe Illustrator 19.0.0, SVG Export Plug-In . SVG Version: 6.00 Build 0)  -->
<svg version="1.1" id="图层_1" xmlns="http://www.w3.org/2000/svg" xmlns:xlink="http://www.w3.org/1999/xlink" x="0px" y="0px" viewBox="0 0 595.3 841.9" style="enable-background:new 0 0 595.3 841.9;" xml:space="preserve">
	<g>
		<path class="st0" d="M495.8,261.2l-8.9-6.3l-6.3-9l-3.9,1.8l-8.7,4.1L57.2,444l-0.3,20.6l146.8,73.4l73.4,146.8l20.7-0.3
			l192.1-410.8l4.1-8.7L495.8,261.2L495.8,261.2z M387.4,324.7L219.7,492.4l-92.3-46.1L387.4,324.7L387.4,324.7z M420.5,349.1
			L294,619.6l-48-96L420.5,349.1L420.5,349.1z M436.2,324.7"/>
		<path class="st0" d="M297.1,67.2c-195.4,0-354.3,159-354.3,354.3c0,195.4,159,354.3,354.3,354.3c195.4,0,354.3-158.9,354.3-354.3
			C651.4,226.1,492.5,67.2,297.1,67.2L297.1,67.2z M297.1,729.2c-169.7,0-307.7-138-307.7-307.7c0-169.7,138-307.7,307.7-307.7
			c169.7,0,307.7,138,307.7,307.7C604.8,591.2,466.8,729.2,297.1,729.2L297.1,729.2z M297.1,748.8"/>
	</g>
</svg>
