<?xml version="1.0" encoding="utf-8"?>
<!-- Generator: Adobe Illustrator 19.0.0, SVG Export Plug-In . SVG Version: 6.00 Build 0)  -->
<svg version="1.1" id="图层_1" xmlns="http://www.w3.org/2000/svg" xmlns:xlink="http://www.w3.org/1999/xlink" x="0px" y="0px" viewBox="0 0 595.3 841.9" style="enable-background:new 0 0 595.3 841.9;" xml:space="preserve">
	<g>
		<path class="st0" d="M634.6,583.6L473.9,423l154.8-154.8c23.4-23.4,23.4-59.9,0-83.3l-92-92c-23.4-23.4-59.9-23.4-83.3,0
			L298.6,247.7L138,87c-23.4-23.4-59.9-23.4-83.3,0l-93.5,93.5c-23.4,23.4-23.4,59.9,0,83.3l160.7,160.7L-11,557.4
			c-8.8,8.8-21.9,65.7-38,166.5v1.5c0,11.7,4.4,23.4,11.7,32.1c7.3,8.8,20.4,13.1,32.1,11.7h1.5c102.3-16.1,159.2-29.2,169.4-39.4
			l132.9-132.9l160.7,160.7c23.4,23.4,59.9,23.4,83.3,0l93.5-93.5C658,643.5,658,605.6,634.6,583.6L634.6,583.6z M478.7,120.6
			c10.9-10.9,28.6-10.9,38.1,0l87.2,87.2c10.9,10.9,10.9,28.6,0,38.1l-43.6,43.6L435.1,162.8L478.7,120.6L478.7,120.6z M95.2,342.9
			L163,275c5.4-5.4,5.4-13.6,0-19c-5.4-5.4-13.6-5.4-19,0l-67.9,67.9L42.2,290l67.9-67.9c5.4-5.4,5.4-13.6,0-19
			c-5.4-5.4-13.6-5.4-19,0L23.2,271l-28.5-28.5c-10.9-10.9-10.9-27.2,0-38l86.9-86.9c10.9-10.9,27.2-10.9,38,0L269,266.9L144,391.8
			L95.2,342.9L95.2,342.9z M-6.7,741.4c-7.3,0-13.1-5.8-13.1-13.1C-11,672.8,0.6,608.5,9.4,583.6L138,712.2
			C113.1,721,50.3,732.6-6.7,741.4L-6.7,741.4z M167.9,678L41.7,551.8l356.6-356.7l126.2,126.2L167.9,678L167.9,678z M600.1,640.2
			l-84.2,84.2c-10.5,10.5-26.3,10.5-36.9,0l-36.9-36.9l65.8-65.8c5.3-5.3,5.3-13.2,0-18.4c-5.3-5.3-13.2-5.3-18.4,0l-65.8,65.8
			l-40.8-40.8l65.8-65.8c5.3-5.3,5.3-13.2,0-18.4c-5.3-5.3-13.2-5.3-18.4,0l-65.8,65.8l-29-29l121.1-121.1l144.8,144.8
			C610.6,613.8,610.6,629.6,600.1,640.2L600.1,640.2z M600.1,640.2"/>
	</g>
</svg>
