<?xml version="1.0" encoding="utf-8"?>
<!-- Generator: Adobe Illustrator 19.0.0, SVG Export Plug-In . SVG Version: 6.00 Build 0)  -->
<svg version="1.1" id="图层_1" xmlns="http://www.w3.org/2000/svg" xmlns:xlink="http://www.w3.org/1999/xlink" x="0px" y="0px"
	 viewBox="0 0 595.3 841.9" style="enable-background:new 0 0 595.3 841.9;" xml:space="preserve">
<style type="text/css">
	.st0{fill:#272636;}
	.st1{fill-rule:evenodd;clip-rule:evenodd;fill:#272536;}
</style>
<g>
	<rect x="311.9" y="193.5" class="st0" width="101.5" height="28.5"/>
	<rect x="311.9" y="263.2" class="st0" width="101.5" height="28.5"/>
	<rect x="311.9" y="331.1" class="st0" width="101.5" height="28.5"/>
	<polygon class="st0" points="101.8,269.7 101.8,289 159.7,289 159.7,327.6 101.8,327.6 101.8,346.8 159.6,346.8 159.6,385.4 
		198.2,385.4 198.2,346.8 256.1,346.8 256.1,327.6 198.2,327.6 198.2,289 256.1,289 256.1,269.7 203.1,269.9 275.4,192.5 
		236.8,192.5 178.9,250.4 121.1,192.5 82.5,192.5 161.5,269.9 	"/>
	<path class="st1" d="M413.4,404.8c-102.4,0-185.5,83-185.5,185.5s83,185.5,185.5,185.5s185.5-83,185.5-185.5
		S515.9,404.8,413.4,404.8z M413.4,749.3c-87.8,0-159-71.2-159-159c0-87.8,71.2-159,159-159c87.8,0,159,71.2,159,159
		C572.4,678.1,501.2,749.3,413.4,749.3z"/>
	<g>
		<path class="st0" d="M203.1,542.3H82.5v28.5h116.2C199.5,561.2,201,551.6,203.1,542.3z"/>
	</g>
	<g>
		<path class="st0" d="M231.5,474.4h-149V503h133.7C220.6,493,225.7,483.5,231.5,474.4z"/>
	</g>
	<g>
		<path class="st0" d="M303.4,404.8H82.5v28.5h183C277,422.5,289.7,412.9,303.4,404.8z"/>
	</g>
	<g>
		<path class="st0" d="M206.7,651.9H36.2c-7.6,0-13.7-6.1-13.7-13.7V110c0-7.6,6.1-13.7,13.7-13.7h421.3c7.6,0,13.7,6.1,13.7,13.7
			v272.5c9.7,2.7,19,6,28.1,9.9V108.2c0-22.7-18.4-41.1-41.1-41.1H36.5c-22.7,0-41.1,18.4-41.1,41.1v532.9
			c0,22.7,18.4,41.1,41.1,41.1h181.7C213.7,672.4,209.8,662.4,206.7,651.9z"/>
	</g>
	<path class="st1" d="M475.2,636.7h-95.9l18,30.3c1.8,3-2.5,8.6-9.5,12.6c-7,3.9-14.1,4.7-15.9,1.7c0,0-35.8-54.2-35.8-60
		c0-0.5,0.3-1,0.3-1.5c0-0.4,0.1-0.9,0.3-1.4c1.4-7.1,7.4-12.5,14.9-12.5h3.9c1.2-0.2,2.2-0.1,3.2,0h116.6c8.5,0,15.5,6.9,15.5,15.5
		C490.7,629.8,483.8,636.7,475.2,636.7L475.2,636.7z"/>
	<path class="st1" d="M490.1,562.3c-1.4,7.1-7.4,12.6-14.9,12.6h-3.9c-1.2,0.2-2.2,0.1-3.2,0H351.6c-8.5,0-15.5-6.9-15.5-15.5
		c0-8.5,6.9-15.5,15.5-15.5h95.9l-18-30.3c-1.8-3,2.5-8.6,9.5-12.6c7-3.9,14.1-4.7,15.9-1.7c0,0,35.8,54.2,35.8,60
		c0,0.5-0.3,1-0.3,1.5C490.4,561.4,490.3,561.8,490.1,562.3L490.1,562.3z"/>
</g>
</svg>
