<?xml version="1.0" encoding="utf-8"?>
<!-- Generator: Adobe Illustrator 19.0.0, SVG Export Plug-In . SVG Version: 6.00 Build 0)  -->
<svg version="1.1" id="图层_1" xmlns="http://www.w3.org/2000/svg" xmlns:xlink="http://www.w3.org/1999/xlink" x="0px" y="0px"
	 viewBox="-203.5 -121 842 842" style="enable-background:new -203.5 -121 842 842;" xml:space="preserve">
<style type="text/css">
	.st0{fill:#272636;}
</style>
<g>
	<path class="st0" d="M590.4,256.3c0-10.1-7.3-18.4-16.2-18.4H281.9c-9,0-16.2,8.2-16.2,18.4v367.1c0,10.1,7.3,18.4,16.2,18.4h292.3
		c9,0,16.2-8.2,16.2-18.4V256.3z M409.6,475h36.8c6.8,0,12.3,5.9,12.3,13.1v26.2c0,7.2-5.5,13.1-12.3,13.1h-36.8
		c-6.8,0-12.3-5.9-12.3-13.1v-26.2C397.3,480.9,402.8,475,409.6,475z M397.3,435.5v-26.3c0-7.3,5.5-13.2,12.3-13.2h36.8
		c6.8,0,12.3,5.9,12.3,13.2v26.3c0,7.3-5.5,13.2-12.3,13.2h-36.8C402.8,448.6,397.3,442.7,397.3,435.5z M409.6,553.8h36.8
		c6.8,0,12.3,5.9,12.3,13.2v26.3c0,7.3-5.5,13.2-12.3,13.2h-36.8c-6.8,0-12.3-5.9-12.3-13.2V567
		C397.3,559.7,402.8,553.8,409.6,553.8z M506.1,475H543c6.8,0,12.3,5.9,12.3,13.1v26.2c0,7.2-5.5,13.1-12.3,13.1h-36.8
		c-6.8,0-12.3-5.9-12.3-13.1v-26.2C493.8,480.9,499.3,475,506.1,475z M493.8,435.5v-26.3c0-7.3,5.5-13.2,12.3-13.2H543
		c6.8,0,12.3,5.9,12.3,13.2v26.3c0,7.3-5.5,13.2-12.3,13.2h-36.8C499.3,448.6,493.8,442.7,493.8,435.5z M506.1,553.8H543
		c6.8,0,12.3,5.9,12.3,13.2v26.3c0,7.3-5.5,13.2-12.3,13.2h-36.8c-6.8,0-12.3-5.9-12.3-13.2V567
		C493.8,559.7,499.3,553.8,506.1,553.8z M300.8,281.8c0-9.7,7.9-17.6,17.6-17.6h219.4c9.7,0,17.6,7.9,17.6,17.6V352
		c0,9.7-7.9,17.6-17.6,17.6H318.3c-9.7,0-17.6-7.9-17.6-17.6V281.8z M300.8,409.1c0-7.3,5.5-13.2,12.3-13.2h36.8
		c6.8,0,12.3,5.9,12.3,13.2v26.3c0,7.3-5.5,13.2-12.3,13.2H313c-6.8,0-12.3-5.9-12.3-13.2V409.1z M300.8,488.1
		c0-7.2,5.5-13.1,12.3-13.1h36.8c6.8,0,12.3,5.9,12.3,13.1v26.2c0,7.2-5.5,13.1-12.3,13.1H313c-6.8,0-12.3-5.9-12.3-13.1V488.1z
		 M300.8,567c0-7.3,5.5-13.2,12.3-13.2h36.8c6.8,0,12.3,5.9,12.3,13.2v26.3c0,7.3-5.5,13.2-12.3,13.2H313c-6.8,0-12.3-5.9-12.3-13.2
		V567z"/>
	<path class="st0" d="M7.5,92.1h189c0,0,65.5-93.7,69.9-103.4c4.3-9.7,11.4-32-14.1-36.8c-25.5-4.9-42.2-10.7-56.3-8.1
		c-14.1,2.7-35.1,19.2-89.3,21.5C53.6-32.4,45.2-56,17-55.4c-18.4,0.4-55.5,2.9-65.8,6.7C-59.1-44.9-76.4-32.4-60.2-7
		C-43.9,18.5,7.5,92.1,7.5,92.1z M17.7-27c0.2,0,0.3,0,0.5,0c4.5,0,8.3,1.7,16.3,5.5C48.1-15.1,66.8-6.2,99.6-6.2
		c2.7,0,5.4-0.1,8.2-0.2c43.8-1.9,69.4-12.4,84.7-18.7c3.3-1.4,7.4-3,8.8-3.3c0.5-0.1,1.3-0.2,2.2-0.2c5.4,0,13.9,1.9,23.8,4.1
		c3.8,0.8,8,1.8,12.4,2.7c-6.5,10.7-32.4,48.7-58,85.5H22.3C7.1,41.9-24.4-3.7-36.3-22.2c-0.1-0.1-0.2-0.3-0.2-0.4
		C-26.7-24.4-1.2-26.6,17.7-27z"/>
	<path class="st0" d="M240.3,180.8c-25.8-22.8-43-34.4-43-34.4H3.1c0,0-98.9,100.7-180.9,307c-19.1,48.1-5.7,112.2,21.1,145.4
		c47.9,59.3,99.2,52.8,105.3,52.8h291.6V180.8z M-51.3,623.3c-1,0-2,0-3,0.1c-1.2,0.1-2.6,0.1-4.4,0.1c-15.5,0-46-5.5-75.9-42.5
		c-20.5-25.4-32.2-78.5-16.8-117.1C-85.5,298.1-8.6,202.4,15.7,174.7h172.5c5.3,4,13.6,10.4,23.8,19.1v429.5H-51.3z"/>
	<rect x="65.2" y="423.5" class="st0" width="30.7" height="121.8"/>
	<rect x="-43.4" y="479.2" class="st0" width="30.7" height="66"/>
	<rect x="120.6" y="388.4" class="st0" width="30.7" height="156.8"/>
	<rect x="7.8" y="448.3" class="st0" width="30.7" height="97"/>
	<polygon class="st0" points="23.6,386.2 53.4,413 125.2,337.9 148,359.5 160.1,290.2 91.2,305.7 112.4,325.9 52.5,388.6 
		22.8,361.8 -63,450.4 -50.5,462.6 	"/>
</g>
</svg>
