<?xml version="1.0" encoding="utf-8"?>
<!-- Generator: Adobe Illustrator 19.0.0, SVG Export Plug-In . SVG Version: 6.00 Build 0)  -->
<svg version="1.1" id="图层_1" xmlns="http://www.w3.org/2000/svg" xmlns:xlink="http://www.w3.org/1999/xlink" x="0px" y="0px"
	 viewBox="-203.5 -121 842 842" style="enable-background:new -203.5 -121 842 842;" xml:space="preserve">
<style type="text/css">
	.st0{fill:#272636;}
</style>
<g>
	<polygon class="st0" points="476.1,510 546.4,510 546.4,484.9 482,485.2 570,384.8 523,384.8 452.6,459.9 382.3,384.8 335.3,384.8 
		431.4,485.2 358.8,484.9 358.8,510 429.2,510 429.2,560.1 358.8,560.1 358.8,585.1 429.2,585.1 429.2,635.2 476.1,635.2 
		476.1,585.1 546.5,585.1 546.5,560.1 476.1,560.1 	"/>
	<path class="st0" d="M223.6,281.6c19.4-8.2,266-119.5,297.3-133.6s36.9-43.2,0-60C485.3,71.9,237.4-40.2,220.6-47.5
		c-19.7-8.5-44.7-9.9-66.1,0C126.6-34.5-119,76.1-152.8,91.6c-23.7,10.9-23.9,41.8,0,52.5c23.9,10.7,288.1,129.7,307.3,138.5
		C175.7,292.3,196.9,293,223.6,281.6z M173.5-14.4c6.8-3.1,22.9-3.1,29.6,0C209.9-11.3,495,117.8,495,117.8S218.3,243,204.6,249.1
		c-11.2,5-21.2,5.1-33.3,0c-12.1-5.1-290.7-131.3-290.7-131.3S166.7-11.3,173.5-14.4z"/>
	<path class="st0" d="M204.7,370.5c-11.2,5-21.2,5.1-33.3,0c-12.1-5.1-308.6-138.9-308.6-138.9l-13.8,34.7
		c0,0,286.3,128.9,305.6,137.7c21.2,9.7,42.5,10.4,69.1-0.9c19.4-8.2,303.5-136.5,303.5-136.5L513,231.6
		C513,231.6,218.4,364.4,204.7,370.5z"/>
	<path class="st0" d="M171.4,491.7c-12.1-5.1-308.6-138.9-308.6-138.9l-13.8,34.7c0,0,286.3,128.9,305.6,137.7
		c21.2,9.7,42.5,10.4,69.1-0.9c5.8-2.5,35.5-15.8,74.2-33.1v-41.3c-49,22.1-88.4,39.8-93.2,41.9
		C193.5,496.7,183.5,496.9,171.4,491.7z"/>
	<path class="st0" d="M171.2,613.4c-12.1-5.1-308.6-138.9-308.6-138.9l-13.8,34.7c0,0,286.3,128.9,305.6,137.7
		c21.2,9.7,42.5,10.4,69.1-0.9c5.8-2.5,35.6-15.8,74.3-33.2v-41.3c-49.1,22.1-88.5,39.9-93.3,42
		C193.3,618.4,183.3,618.5,171.2,613.4z"/>
</g>
</svg>
