<?xml version="1.0" encoding="utf-8"?>
<!-- Generator: Adobe Illustrator 19.0.0, SVG Export Plug-In . SVG Version: 6.00 Build 0)  -->
<svg version="1.1" id="图层_1" xmlns="http://www.w3.org/2000/svg" xmlns:xlink="http://www.w3.org/1999/xlink" x="0px" y="0px" viewBox="0 0 595.3 841.9" style="enable-background:new 0 0 595.3 841.9;" xml:space="preserve">
	<path class="st0" d="M530.1,108.1l-17.4,13.7l-78-98.7L398,52.1l78,98.7l-59.4,46.9l-77.9-98.6l-36.6,28.9l77.9,98.6l-58.4,46.1
		l-82-103.8l-36.6,28.9l82,103.8l-51.4,40.6l-85.3-108l-36.6,28.9l85.3,108l-98.4,77.7c27.6,105.9-11.3,206.8-45.7,261.8
		c-34.4,55-37.5,110,24.7,105.8c62.2-4.2,73.3-107.9,105-190.5c31.7-82.5,52.9-112.2,127-189.9c74.1-77.7,232.8-180.4,251.8-205.8
		C580.2,205,530.1,108.1,530.1,108.1z M79.9,767.8c-20.1-11.6,4.2-80.4,38.1-76.2C140,694.4,100,779.5,79.9,767.8z"/>
</svg>
