<?xml version="1.0" encoding="utf-8"?>
<!-- Generator: Adobe Illustrator 19.0.0, SVG Export Plug-In . SVG Version: 6.00 Build 0)  -->
<svg version="1.1" id="图层_1" xmlns="http://www.w3.org/2000/svg" xmlns:xlink="http://www.w3.org/1999/xlink" x="0px" y="0px" viewBox="0 0 595.3 841.9" style="enable-background:new 0 0 595.3 841.9;" xml:space="preserve">
	<g>
		<g>
			<path class="st0" d="M529.3,230.7"/>
			<path class="st0" d="M519.6,121.8V67.3h-81.8v54.5h-99.4V67.3h-81.8v54.5h-99.4V67.3H75.6v54.5H11.4v654.2h572.4V121.8H519.6z
				 M410.6,149h27.3v54.5h27.3v-27.2V94.5h27.3v81.8v27.2h27.3V149h27.3v81.8h0v0h0v0h-27.3h-81.8h-27.3V149z M229.5,149L229.5,149
				h27.3v54.5H284v-27.2V94.5h27.3v81.8v27.2h27.3V149h27.3v81.8h-27.3h-81.8h-27.3V149z M48.3,230.7V149h27.3v54.5h27.3v-27.2V94.5
				h27.3v81.8v27.2h27.3V149h27.3v81.8h-27.3H75.6L48.3,230.7L48.3,230.7z M547.7,739.8H47.6V262.5h500.1V739.8z"/>
		</g>
		<polygon class="st0" points="397.8,485.4 397.8,510.5 322.6,510.5 322.6,560.6 397.8,560.6 397.8,585.6 322.6,585.6 322.6,635.7 
			272.5,635.7 272.5,585.6 197.4,585.6 197.4,560.6 272.6,560.6 272.6,510.5 197.4,510.5 197.4,485.4 274.9,485.7 172.4,385.3 
			222.5,385.3 297.6,460.4 372.8,385.3 422.9,385.3 329,485.7 397.8,485.4 	"/>
	</g>
</svg>
