<?xml version="1.0" encoding="utf-8"?>
<!-- Generator: Adobe Illustrator 21.1.0, SVG Export Plug-In . SVG Version: 6.00 Build 0)  -->
<svg version="1.1" id="图层_1" xmlns="http://www.w3.org/2000/svg" xmlns:xlink="http://www.w3.org/1999/xlink" x="0px" y="0px"
	 viewBox="0 0 708.7 708.7" style="enable-background:new 0 0 708.7 708.7;" xml:space="preserve">
<style type="text/css">
	.st0{fill:#272636;}
</style>
<g>
	<path class="st0" d="M645.2,222.9l-92.4-87.6l13.9,55.7h-61.6c-16.4,0-29.8,13.3-29.8,29.8v4.3c0,16.4,13.3,29.8,29.8,29.8h61.6
		l-13.9,55.7L645.2,222.9z"/>
	<path class="st0" d="M431.3,190.8h-72.4H356h-1.4c-16.4,0-29.8,13.3-29.8,29.8v425.7H182.7V220.5c0-16.4-13.3-29.8-29.8-29.8h-4.3
		c-16.4,0-29.8,13.3-29.8,29.8V676v4.3c0,16.4,13.3,29.8,29.8,29.8h4.3h201.6h2.9h1.4c16.4,0,29.8-13.3,29.8-29.8V254.6h42.6
		c16.4,0,29.8-13.3,29.8-29.8v-4.3C461.1,204.1,447.8,190.8,431.3,190.8z"/>
	<path class="st0" d="M150.8,171.3l87.6-92.4l-55.7,13.9V31.2c0-16.4-13.3-29.8-29.8-29.8h-4.3c-16.4,0-29.8,13.3-29.8,29.8v61.6
		L63.2,78.9L150.8,171.3z"/>
</g>
</svg>
