<?xml version="1.0" encoding="utf-8"?>
<!-- Generator: Adobe Illustrator 19.0.0, SVG Export Plug-In . SVG Version: 6.00 Build 0)  -->
<svg version="1.1" id="图层_1" xmlns="http://www.w3.org/2000/svg" xmlns:xlink="http://www.w3.org/1999/xlink" x="0px" y="0px"
	 viewBox="40 -57.4 595.3 841.9" style="enable-background:new 40 -57.4 595.3 841.9;" xml:space="preserve">
<style type="text/css">
	.st0{fill-rule:evenodd;clip-rule:evenodd;fill:#272536;}
</style>
<g>
	<path class="st0" d="M620.9,51.4c-41.9,5.2-85.2,5-130-1.1C445.7,44,399.1,31.8,351,12.9l-13.1-5.2l-13.2,5.2
		C276.6,31.8,230,44,184.9,50.3c-44.8,6.2-88.1,6.4-130,1.1l-44.5-5.5l0.5,50c2.4,212.4,36.7,321.3,91.9,415.9
		c57.9,99.2,137,179.1,226.1,202.2l9,2.3l9-2.3c89.1-23.1,168.1-103,226.1-202.2c55.2-94.6,89.5-203.6,91.9-415.9l0.5-50L620.9,51.4
		z M620.4,132c-2.1,183.5-31.7,277.7-79.4,359.4c-50.1,85.8-118.4,154.8-195.4,174.7l-7.8,2l-7.8-2c-77-19.9-145.3-89-195.4-174.7
		C87.1,409.6,57.4,315.6,55.4,132l-0.5-43.2l38.4,4.8c36.2,4.5,73.6,4.4,112.3-1c39-5.4,79.3-16,120.8-32.3l11.4-4.5l11.3,4.5
		c41.6,16.3,81.8,26.9,120.8,32.3c38.8,5.3,76.2,5.5,112.4,1l38.4-4.8L620.4,132z"/>
	<polygon class="st0" points="317.9,410.5 202.3,291.4 164.4,327.7 318.6,486.9 545.2,244.3 506.7,208.7 	"/>
</g>
</svg>
