<?xml version="1.0" encoding="utf-8"?>
<!-- Generator: Adobe Illustrator 19.0.0, SVG Export Plug-In . SVG Version: 6.00 Build 0)  -->
<svg version="1.1" id="图层_1" xmlns="http://www.w3.org/2000/svg" xmlns:xlink="http://www.w3.org/1999/xlink" x="0px" y="0px"
	 viewBox="0 0 595.3 841.9" style="enable-background:new 0 0 595.3 841.9;" xml:space="preserve">
<style type="text/css">
	.st0{fill-rule:evenodd;clip-rule:evenodd;fill:#272536;}
</style>
<g>
	<path class="st0" d="M554.9,490.9h-94.9c-52.4,0-94.9,42.5-94.9,94.9v29.4h-20c-36.7,0-66.4-29.7-66.4-66.4V428.5
		c0.3-4.6,0.3-9.2,0-13.8V297.2c0-36.7,29.7-66.4,66.4-66.4h19.7v26.2c0,52.4,42.5,94.9,94.9,94.9h94.9c52.4,0,94.9-42.5,94.9-94.9
		V162c0-52.4-42.5-94.9-94.9-94.9h-94.9c-52.4,0-94.9,42.5-94.9,94.9v21.3h-38.7c-52.4,0-94.9,42.5-94.9,94.9v4.9v51.5l-47.2-47.2
		c-37.1-37.1-97.2-37.1-134.2,0l-67.1,67.1c-37.1,37.1-37.1,97.2,0,134.2l67.1,67.1c37.1,37.1,97.2,37.1,134.2,0l47.2-47.2V563v4.8
		c0,52.4,42.5,94.9,94.9,94.9h39v18c0,52.4,42.5,94.9,94.9,94.9h94.9c52.4,0,94.9-42.5,94.9-94.9v-94.9
		C649.8,533.4,607.3,490.9,554.9,490.9L554.9,490.9z M412.2,181c0-36.7,29.7-66.4,66.4-66.4h57c36.7,0,66.4,29.7,66.4,66.4v57
		c0,36.7-29.7,66.4-66.4,66.4h-57c-36.7,0-66.4-29.7-66.4-66.4V181L412.2,181z M204.1,468.6l-40.3,40.3c-25.9,25.9-68,25.9-94,0
		l-40.3-40.3c-25.9-26-25.9-68,0-94l40.3-40.3c25.9-25.9,68-25.9,94,0l40.3,40.3C230,400.6,230,442.6,204.1,468.6L204.1,468.6z
		 M602.3,661.8c0,36.7-29.7,66.4-66.4,66.4l-57,0c-36.7,0-66.4-29.7-66.4-66.4v-57c0-36.7,29.7-66.4,66.4-66.4h57
		c36.7,0,66.4,29.7,66.4,66.4V661.8L602.3,661.8z"/>
</g>
</svg>
