<?xml version="1.0" encoding="utf-8"?>
<!-- Generator: Adobe Illustrator 19.0.0, SVG Export Plug-In . SVG Version: 6.00 Build 0)  -->
<svg version="1.1" id="图层_1" xmlns="http://www.w3.org/2000/svg" xmlns:xlink="http://www.w3.org/1999/xlink" x="0px" y="0px"
	 viewBox="-203.5 -121 842 842" style="enable-background:new -203.5 -121 842 842;" xml:space="preserve">
<style type="text/css">
	.st0{fill:#272636;}
</style>
<path class="st0" d="M565.2,356.1h-97.7v-16.8c0-9.4-0.5-18.8-1.5-28h99.2c12.4,0,22.5,10,22.5,22.4
	C587.7,346.1,577.6,356.1,565.2,356.1z M403.9,167.7c-9.8-11.5-20.6-22.1-32.3-31.8l72.2-71.7c8.9-8.8,23.3-8.8,32.2,0
	c8.9,8.8,8.9,23.1,0,31.9L403.9,167.7z M422.4,609.7H475c12.5,0,22.5,10,22.5,22.4c0,12.4-10.1,22.4-22.5,22.4H-81.1
	c-12.4,0-22.5-10-22.5-22.4c0-12.4,10.1-22.4,22.5-22.4h52.6V341.2c0-123.6,100.9-223.8,225.4-223.8
	c124.5,0,225.4,100.2,225.4,223.8L422.4,609.7L422.4,609.7z M377.3,356.1c0-98.9-80.7-179-180.3-179c-99.6,0-180.4,80.1-180.4,179
	v253.6h360.7V356.1z M201,260.8c8.8-8.7,23.1-8.7,31.9,0c8.8,8.7,8.8,22.9,0,31.6l-49,48.7h81c12.5,0,22.5,10,22.5,22.4
	c0,3.1-0.7,6.1-1.8,8.8c2.5,8,0.9,17-5.5,23.3l-88.4,87.7c-9.2,9.1-24,9.1-33.1,0c-9.2-9.1-9.2-23.8,0-32.9l65-64.6h-78.9
	c-3.8,0-7.3-1.2-10.5-2.9c-6.5,0.6-13.2-1.2-18.2-6.1c-8.8-8.7-8.8-22.9,0-31.6L201,260.8z M174.6,73.8V-31.9
	c0-12.4,10.1-22.4,22.5-22.4s22.5,10,22.5,22.4V73.8c-7.5-0.6-15.1-1.1-22.8-1.1C189.4,72.6,182,73.2,174.6,73.8z M-6.2,163.7
	l-73.1-72.6c-8.8-8.7-8.8-22.9,0-31.6c8.8-8.7,23.1-8.7,31.9,0l73.7,73.1C14.5,142,3.7,152.5-6.2,163.7z M-73.6,339.3v16.8h-97.7
	c-12.5,0-22.5-10-22.5-22.4c0-12.4,10.1-22.4,22.5-22.4H-72C-73,320.5-73.6,329.8-73.6,339.3z"/>
</svg>
