<?xml version="1.0" encoding="utf-8"?>
<!-- Generator: Adobe Illustrator 21.1.0, SVG Export Plug-In . SVG Version: 6.00 Build 0)  -->
<svg version="1.1" id="图层_1" xmlns="http://www.w3.org/2000/svg" xmlns:xlink="http://www.w3.org/1999/xlink" x="0px" y="0px"
	 viewBox="0 0 708.7 708.7" style="enable-background:new 0 0 708.7 708.7;" xml:space="preserve">
<style type="text/css">
	.st0{fill:#272636;}
</style>
<g>
	<path class="st0" d="M597.3,0H111.4C85.3,0,64.1,21.2,64.1,47.4v614c0,26.1,21.2,47.3,47.3,47.3h345.2c9.6,0,17.4-7.8,17.4-17.4
		l0,0c0-9.6-7.8-17.4-17.4-17.4H111c-8.7,0-15.8-7.1-15.8-15.8V49.4c0-8.7,7.1-15.8,15.8-15.8h485.4c8.7,0,15.8,7.1,15.8,15.8v296.9
		c0,8.9,7.2,16.2,16.2,16.2h0c8.9,0,16.2-7.2,16.2-16.2V47.4C644.6,21.2,623.4,0,597.3,0z"/>
	<path class="st0" d="M173.5,480.5c-9.6,0-17.4,7.8-17.4,17.4l0,0c0,9.6,7.8,17.4,17.4,17.4h86.8c9.6,0,17.4-7.8,17.4-17.4
		s-7.8-17.4-17.4-17.4H173.5z"/>
	<path class="st0" d="M462.5,342.8L462.5,342.8c0-9.6-7.8-17.4-17.4-17.4H173.5c-9.6,0-17.4,7.8-17.4,17.4s7.8,17.4,17.4,17.4h271.5
		C454.7,360.2,462.5,352.4,462.5,342.8z"/>
	<path class="st0" d="M173.5,188.3l364.6,0c9.6,0,17.4-7.8,17.4-17.4l0,0c0-9.6-7.8-17.4-17.4-17.4l-364.6,0
		c-9.6,0-17.4,7.8-17.4,17.4l0,0C156.1,180.5,163.9,188.3,173.5,188.3z"/>
	<path class="st0" d="M634.1,483L531.8,380.7c-6.8-6.8-17.8-6.8-24.6,0l0,0c-6.8,6.8-6.8,17.8,0,24.6l75.2,75.2H372.2
		c-9.6,0-17.4,7.8-17.4,17.4l0,0c0,9.6,7.8,17.4,17.4,17.4h206l-71,71c-6.8,6.8-6.8,17.8,0,24.6s17.8,6.8,24.6,0l102.4-102.4
		c3.5-3.5,5.2-8.1,5.1-12.7C639.3,491.2,637.6,486.5,634.1,483z"/>
</g>
</svg>
