<?xml version="1.0" encoding="utf-8"?>
<!-- Generator: Adobe Illustrator 19.0.0, SVG Export Plug-In . SVG Version: 6.00 Build 0)  -->
<svg version="1.1" id="图层_1" xmlns="http://www.w3.org/2000/svg" xmlns:xlink="http://www.w3.org/1999/xlink" x="0px" y="0px"
	 viewBox="-203.5 -121 842 842" style="enable-background:new -203.5 -121 842 842;" xml:space="preserve">
<style type="text/css">
	.st0{fill:#272636;}
</style>
<g>
	<polygon class="st0" points="9.7,381.4 9.8,381.4 9.8,381.4 	"/>
	<path class="st0" d="M439.4-53.9H-46.5c-26.1,0-47.3,21.2-47.3,47.3v614c0,26.1,21.2,47.3,47.3,47.3h485.9
		c26.2,0,47.3-21.2,47.3-47.3v-614C486.7-32.7,465.5-53.9,439.4-53.9z M454.3,604.2c0,8.7-7.1,15.8-15.8,15.8H-46.9
		c-8.7,0-15.8-7.1-15.8-15.8V-4.6c0-8.7,7.1-15.8,15.8-15.8h485.4c8.7,0,15.8,7.1,15.8,15.8V604.2z"/>
	<path class="st0" d="M87.6,224.1v-40.5c-3.8-8.6-6.1-18.1-6.1-28.3c0-38.4,31.2-69.5,69.5-69.5c38.4,0,69.5,31.2,69.5,69.5
		c0,5.3-0.6,10.4-1.8,15.3c8.7,0.4,16.6,3.9,22.3,9.8c2.3-8,3.6-16.4,3.6-25.1c0-51.7-41.9-93.7-93.7-93.7
		c-51.7,0-93.7,41.9-93.7,93.7C57.4,182.6,69.1,207.1,87.6,224.1z"/>
	<path class="st0" d="M351.7,245h-1.2c-9,0-16.2,2.6-23.4,6.9c-6.2-18-22-31-42.3-31c-9,0-17.5,2.6-24.6,6.9c-6.2-18-22-31-42.3-31
		c-7.9,0-15.3,2-21.7,5.5v-46.4c0-25.3-19.1-45.8-44.6-45.8c-25.4,0-46.2,20.5-46.2,45.8v177.8l-27.9-27.9
		c-18-17.9-49.9-15.4-65.3,0c-15.4,15.4-25.4,46.2-3.5,68.2l128.8,127.9c2.6,2.6,5.6,4.9,8.6,6.7c23.5,19.2,50.4,30.6,107.3,30.6
		c130,0,142-70.2,142-156.7v-91.5C395.8,265.6,377.2,245,351.7,245z M371.6,382.4L371.6,382.4c0,73.2-0.4,132.6-117.8,132.6
		c-49.8,0-79.6-11.1-102.3-33.5L29.6,360.3c-10.7-10.7-8.1-24.6,0.7-33.4s25.1-9.2,33.5-0.7c0,0,21.4,21.2,39.9,39.6
		c14,13.8,26.3,26,26.3,26V160.6c0-11.9,9.8-21.7,21.8-21.7c12.1,0,20.3,9.7,20.3,21.7v147h0.2c-0.1,0.8-0.2,1.6-0.2,2.4
		c0,6.7,5.5,12.1,12.2,12.1s12.2-5.4,12.2-12.1c0-0.8-0.1-1.7-0.2-2.4h0.2v-60.3c0-11.9,8.7-21.7,20.8-21.7c0,0,21.4-0.2,21.4,21.7
		v79.5h0.2c-0.1,0.8-0.2,1.6-0.2,2.4c0,6.7,5.5,12.1,12.2,12.1s12.2-5.4,12.2-12.1c0-0.8-0.1-1.7-0.2-2.4h0.2v-55.4
		c0-11.9,8.6-21.7,20.6-21.7c0,0,21.8,1.3,21.8,21.7v69.9h0.2c-0.1,0.8-0.2,1.6-0.2,2.4c0,6.7,5.5,12.1,12.2,12.1
		c6.7,0,11.8-5.4,11.8-12.1c0-0.8-0.1-1.7-0.2-2.4h0.2v-47.7c0-11.9,9-21.7,21.1-21.7c0,0,21.1-0.8,21.1,21.7
		C371.6,293.7,371.6,362.9,371.6,382.4z"/>
</g>
</svg>
