<?xml version="1.0" encoding="utf-8"?>
<!-- Generator: Adobe Illustrator 19.0.0, SVG Export Plug-In . SVG Version: 6.00 Build 0)  -->
<svg version="1.1" id="图层_1" xmlns="http://www.w3.org/2000/svg" xmlns:xlink="http://www.w3.org/1999/xlink" x="0px" y="0px"
	 viewBox="0 0 595.3 841.9" style="enable-background:new 0 0 595.3 841.9;" xml:space="preserve">
<style type="text/css">
	.st0{fill:#272636;}
</style>
<g>
	<path class="st0" d="M495.7,49.9H171.5L13.9,208.5v501.3c0,46.8,38.3,85,85,85h396.8c46.8,0,85-38.3,85-85V134.9
		C580.8,88.1,542.5,49.9,495.7,49.9z M171.3,109.5v84.2c0,7.8-6.4,14.2-14.2,14.2H75.4L171.3,109.5z M540.7,713.5
		c0,20.3-16.6,36.9-36.9,36.9h-413c-20.3,0-36.9-16.6-36.9-36.9V251.2h103.5c31.2,0,56.7-25.5,56.7-56.7V94.4h289.6
		c20.3,0,36.9,16.6,36.9,36.9V713.5z"/>
	<rect x="323" y="431" class="st0" width="56.5" height="223.9"/>
	<rect x="123.1" y="533.4" class="st0" width="56.5" height="121.5"/>
	<rect x="424.8" y="366.5" class="st0" width="56.5" height="288.4"/>
	<rect x="217.4" y="476.5" class="st0" width="56.5" height="178.4"/>
	<polygon class="st0" points="409.7,251.5 299.5,366.8 244.9,317.5 87.1,480.4 110.1,503 246.5,362.3 301.2,411.7 433.2,273.7 
		475.1,313.4 497.4,185.8 370.6,214.4 	"/>
	<polygon class="st0" points="110.2,503 110.1,503 110.1,503 	"/>
</g>
</svg>
