<?xml version="1.0" encoding="utf-8"?>
<!-- Generator: Adobe Illustrator 19.0.0, SVG Export Plug-In . SVG Version: 6.00 Build 0)  -->
<svg version="1.1" id="图层_1" xmlns="http://www.w3.org/2000/svg" xmlns:xlink="http://www.w3.org/1999/xlink" x="0px" y="0px" viewBox="0 0 595.3 841.9" style="enable-background:new 0 0 595.3 841.9;" xml:space="preserve">
	<g>
		<g>
			<path class="st0" d="M206.4,231.1L395.6,717H15.7L206.4,231.1 M206.6,121.2L-43,757h497.1L206.6,121.2L206.6,121.2z"/>
		</g>
		<path class="st0" d="M662.1,714C637.6,671.3,466,263.1,450,235.4c-3.3-5.8-8.6-9.3-14.2-9.3h-0.1c-5.6,0-10.9,3.6-14.2,9.4
			l-81.3,143.9l152,372.2h155.5c6.8,0,12.9-5,15.9-13C666.8,730.6,666.2,721.1,662.1,714L662.1,714z M507,712.6L377.4,379.1
			L436,275.5c30.9,53.6,150.1,370.8,188.2,437H507L507,712.6z M507,712.6"/>
	</g>
</svg>
