<?xml version="1.0" encoding="utf-8"?>
<!-- Generator: Adobe Illustrator 19.0.0, SVG Export Plug-In . SVG Version: 6.00 Build 0)  -->
<svg version="1.1" id="图层_1" xmlns="http://www.w3.org/2000/svg" xmlns:xlink="http://www.w3.org/1999/xlink" x="0px" y="0px" viewBox="0 0 595.3 841.9" style="enable-background:new 0 0 595.3 841.9;" xml:space="preserve">
	<g>
		<path class="st0" d="M276.7,707.9c-14.9-30.1-23-68.6-23-102.7c0-121.3,98.7-219.9,219.9-219.9c8.2,0,16.3,0.5,24.4,1.4V282.5
			h-78.3c-74.1,0-129.4-55.3-129.4-129.4V99.2h-255c-33.7,0-60.4,1.9-60.4,35.5v522.8c0,33.7,6.8,50.4,40.4,50.4h257.4 M344,739.6
			H-7.3c-44.7,0-49.4-18.1-49.4-51.3V106.9c0-35.4,24.8-39.3,37.5-39.3H322v85.5c0,54,43.8,97.7,97.7,97.7h110v181.5
			c-19.1-6.8-39.6-10.4-61.1-10.4c-101.2,0-183.3,82.1-183.3,183.3C285.3,658.3,307.9,706.1,344,739.6L344,739.6L344,739.6L344,739.6
			z M344,739.6"/>
		<path class="st0" d="M236.5,568.5H41c-6.8,0-12.2-5.5-12.2-12.2v-12.2c0-6.8,5.5-12.2,12.2-12.2h195.5c6.7,0,12.2,5.5,12.2,12.2
			v12.2C248.7,563.1,243.2,568.5,236.5,568.5L236.5,568.5L236.5,568.5L236.5,568.5z M236.5,568.5"/>
		<path class="st0" d="M273.1,446.3H41c-6.8,0-12.2-5.5-12.2-12.2v-12.2c0-6.7,5.5-12.2,12.2-12.2h232.1c6.7,0,12.2,5.5,12.2,12.2
			v12.2C285.4,440.9,279.9,446.3,273.1,446.3L273.1,446.3L273.1,446.3L273.1,446.3z M273.1,446.3"/>
		<path class="st0" d="M334.2,311.9H41c-6.8,0-12.2-5.5-12.2-12.2v-12.2c0-6.8,5.5-12.2,12.2-12.2h293.2c6.7,0,12.2,5.5,12.2,12.2
			v12.2C346.4,306.5,341,311.9,334.2,311.9L334.2,311.9L334.2,311.9L334.2,311.9z M334.2,311.9"/>
		<path class="st0" d="M486.9,739.6c70.8,0,128.3-57.5,128.3-128.3c0-70.7-57.5-128.3-128.3-128.3c-70.7,0-128.3,57.6-128.3,128.3
			C358.7,682,416.2,739.6,486.9,739.6 M486.9,776.2c-91.1,0-164.9-73.8-164.9-165c0-91.1,73.8-164.9,164.9-164.9
			c91.1,0,165,73.8,165,164.9C651.9,702.4,578.1,776.2,486.9,776.2L486.9,776.2L486.9,776.2L486.9,776.2z M486.9,776.2"/>
		<path class="st0" d="M566.4,641.8h-97.7h-12.2c-6.7,0-12.2-5.5-12.2-12.2v-97.7c0-6.8,5.5-12.2,12.2-12.2h12.2
			c6.7,0,12.2,5.5,12.2,12.2v73.3h85.5c6.7,0,12.2,5.5,12.2,12.2v12.2C578.6,636.3,573.1,641.8,566.4,641.8L566.4,641.8L566.4,641.8
			L566.4,641.8z M566.4,641.8"/>
		<path class="st0" d="M444.7,165.3l-49.4-40.4v40.4H444.7 M493.1,202h-110c-13.5,0-24.4-10.9-24.4-24.4V92c0-13.5,11-24.4,24.4-24.4
			l134.4,110C517.5,191,506.6,202,493.1,202L493.1,202L493.1,202L493.1,202z M493.1,202"/>
	</g>
</svg>
