<?xml version="1.0" encoding="utf-8"?>
<!-- Generator: Adobe Illustrator 19.0.0, SVG Export Plug-In . SVG Version: 6.00 Build 0)  -->
<svg version="1.1" id="图层_1" xmlns="http://www.w3.org/2000/svg" xmlns:xlink="http://www.w3.org/1999/xlink" x="0px" y="0px" viewBox="0 0 595.3 841.9" style="enable-background:new 0 0 595.3 841.9;" xml:space="preserve">
	<style type="text/css">
		.st1{fill:none;stroke:#272636;stroke-width:22;stroke-linecap:round;stroke-linejoin:round;stroke-miterlimit:10;}
		.st2{fill:none;stroke:#272636;stroke-width:40;stroke-linecap:round;stroke-linejoin:round;stroke-miterlimit:10;}
	</style>
	<g>
		<g>
			<path class="st0" d="M344.4,121.7v481.5h-96.8V121.7H344.4 M355,81.7H237.1c-16.3,0-29.5,13.2-29.5,29.5v502.5
				c0,16.3,13.2,29.5,29.5,29.5H355c16.3,0,29.5-13.2,29.5-29.5V111.1C384.4,94.9,371.3,81.7,355,81.7L355,81.7z"/>
		</g>
		<path class="st1" d="M237.1,643.1"/>
		<path class="st0" d="M638.3,703.7H-43.6c-7.4,0-13.4,6-13.4,13.4v32.3c0,7.4,6,13.4,13.4,13.4h681.9c7.4,0,13.4-6,13.4-13.4v-32.3
			C651.7,709.7,645.7,703.7,638.3,703.7L638.3,703.7z M638.3,703.7"/>
		<g>
			<path class="st0" d="M79.8,296.5v306.7h-96.8V296.5H79.8 M90.4,256.5H-27.5c-16.3,0-29.5,13.2-29.5,29.5v327.8
				c0,16.3,13.2,29.5,29.5,29.5H90.4c16.3,0,29.5-13.2,29.5-29.5V285.9C119.8,269.7,106.7,256.5,90.4,256.5L90.4,256.5z"/>
		</g>
		<path class="st1" d="M-27.5,643.1"/>
		<g>
			<path class="st0" d="M611.7,414.6v188.6h-96.8V414.6H611.7 M622.2,374.6H504.4c-16.3,0-29.5,13.2-29.5,29.5v209.7
				c0,16.3,13.2,29.5,29.5,29.5h117.8c16.3,0,29.5-13.2,29.5-29.5V404C651.7,387.8,638.5,374.6,622.2,374.6L622.2,374.6z"/>
		</g>
		<path class="st2" d="M622.2,374.6"/>
	</g>
</svg>
