<?xml version="1.0" encoding="utf-8"?>
<!-- Generator: Adobe Illustrator 19.0.0, SVG Export Plug-In . SVG Version: 6.00 Build 0)  -->
<svg version="1.1" id="图层_1" xmlns="http://www.w3.org/2000/svg" xmlns:xlink="http://www.w3.org/1999/xlink" x="0px" y="0px"
	 viewBox="-203.5 -121 842 842" style="enable-background:new -203.5 -121 842 842;" xml:space="preserve">
<style type="text/css">
	.st0{fill:#272636;}
</style>
<g>
	<polygon class="st0" points="10.6,381.4 10.7,381.4 10.6,381.4 	"/>
	<path class="st0" d="M440.2-53.9H-45.6C-71.8-53.9-93-32.7-93-6.6v614c0,26.1,21.2,47.3,47.3,47.3h485.9
		c26.2,0,47.3-21.2,47.3-47.3v-614C487.6-32.7,466.4-53.9,440.2-53.9z M85.2,604.3c0,8.7-7.1,15.8-15.8,15.8H-46
		c-8.7,0-15.8-7.1-15.8-15.8v-80.9c0-8.7,7.1-15.8,15.8-15.8H69.4c8.7,0,15.8,7.1,15.8,15.8V604.3z M85.2,461.1
		c0,8.7-7.1,15.8-15.8,15.8H-46c-8.7,0-15.8-7.1-15.8-15.8v-80.9c0-8.7,7.1-15.8,15.8-15.8H69.4c8.7,0,15.8,7.1,15.8,15.8V461.1z
		 M85.2,312.2c0,8.7-7.1,15.8-15.8,15.8H-46c-8.7,0-15.8-7.1-15.8-15.8v-80.9c0-8.7,7.1-15.8,15.8-15.8H69.4
		c8.7,0,15.8,7.1,15.8,15.8V312.2z M270.2,604.3c0,8.7-7.1,15.8-15.8,15.8H139c-8.7,0-15.8-7.1-15.8-15.8v-80.9
		c0-8.7,7.1-15.8,15.8-15.8h115.4c8.7,0,15.8,7.1,15.8,15.8V604.3z M270.2,461.1c0,8.7-7.1,15.8-15.8,15.8H139
		c-8.7,0-15.8-7.1-15.8-15.8v-80.9c0-8.7,7.1-15.8,15.8-15.8h115.4c8.7,0,15.8,7.1,15.8,15.8V461.1z M270.2,312.2
		c0,8.7-7.1,15.8-15.8,15.8H139c-8.7,0-15.8-7.1-15.8-15.8v-80.9c0-8.7,7.1-15.8,15.8-15.8h115.4c8.7,0,15.8,7.1,15.8,15.8V312.2z
		 M455.2,604.3c0,8.7-7.1,15.8-15.8,15.8H324c-8.7,0-15.8-7.1-15.8-15.8v-80.9c0-8.7,7.1-15.8,15.8-15.8h115.4
		c8.7,0,15.8,7.1,15.8,15.8V604.3z M455.2,461.1c0,8.7-7.1,15.8-15.8,15.8H324c-8.7,0-15.8-7.1-15.8-15.8v-80.9
		c0-8.7,7.1-15.8,15.8-15.8h115.4c8.7,0,15.8,7.1,15.8,15.8V461.1z M455.2,312.2c0,8.7-7.1,15.8-15.8,15.8H324
		c-8.7,0-15.8-7.1-15.8-15.8v-80.9c0-8.7,7.1-15.8,15.8-15.8h115.4c8.7,0,15.8,7.1,15.8,15.8V312.2z M455.2,156.4
		c0,8.7-7.1,15.8-15.8,15.8H-46c-8.7,0-15.8-7.1-15.8-15.8V-4.6c0-8.7,7.1-15.8,15.8-15.8h485.4c8.7,0,15.8,7.1,15.8,15.8V156.4z"/>
</g>
</svg>
