<?xml version="1.0" encoding="utf-8"?>
<!-- Generator: Adobe Illustrator 19.0.0, SVG Export Plug-In . SVG Version: 6.00 Build 0)  -->
<svg version="1.1" id="图层_1" xmlns="http://www.w3.org/2000/svg" xmlns:xlink="http://www.w3.org/1999/xlink" x="0px" y="0px"
	 viewBox="40 -57.4 595.3 841.9" style="enable-background:new 40 -57.4 595.3 841.9;" xml:space="preserve">
<style type="text/css">
	.st0{fill-rule:evenodd;clip-rule:evenodd;fill:#272536;}
</style>
<g>
	<path class="st0" d="M337.6,716.3C141.9,716.3-16.8,557.7-16.8,362c0-195.7,158.6-354.3,354.3-354.3
		c195.7,0,354.3,158.6,354.3,354.3C691.9,557.7,533.3,716.3,337.6,716.3L337.6,716.3L337.6,716.3z M28.6,362
		c0,170.6,138.3,308.9,308.9,308.9c170.6,0,308.9-138.3,308.9-308.9c0-170.6-138.3-308.9-308.9-308.9
		C166.9,53.1,28.6,191.4,28.6,362L28.6,362z M476.5,472.1l-157.7-61.4c-8.8-4.1-13.7-13-13.2-22.2c-0.1-0.9-0.5-1.7-0.5-2.6V157.3
		c0-12.8,10.3-23.1,23.1-23.1c12.8,0,23.1,10.3,23.1,23.1v215.9l144.8,57.2c11.6,5.4,16.5,19.1,11.1,30.7
		C501.8,472.6,488.1,477.6,476.5,472.1L476.5,472.1z"/>
</g>
</svg>
