<?xml version="1.0" encoding="utf-8"?>
<!-- Generator: Adobe Illustrator 19.0.0, SVG Export Plug-In . SVG Version: 6.00 Build 0)  -->
<svg version="1.1" id="图层_1" xmlns="http://www.w3.org/2000/svg" xmlns:xlink="http://www.w3.org/1999/xlink" x="0px" y="0px" viewBox="0 0 595.3 841.9" style="enable-background:new 0 0 595.3 841.9;" xml:space="preserve">
	<g>
		<path class="st0" d="M636.8,373.9l-273-273.1c-20.3-20.1-57-18.7-78.8,3l-60,60c-0.4-0.5-0.2-1.2-0.7-1.6l-24.6-24.6
			c-6.9-6.9-18.1-6.9-24.9,0l-88.6,88.6c-3.3,3.3-5.2,7.8-5.2,12.5c0,4.7,1.9,9.2,5.2,12.5l170.3,170.3l-7.5,7.5l-8.5-8.5
			c-22.1-22.1-60.7-22.1-82.8,0c-1.1,1.1-2.1,2.4-3,3.7c-4.5,6.9-11.1,18.1-14.3,29.5L-39.7,606c-11.1,11-17.2,25.7-17.2,41.4
			c0,15.6,6.1,30.4,17.1,41.4l56.7,56.7c11.1,11.1,25.8,17.2,41.4,17.2c15.7,0,30.4-6.1,43-18.9l146.7-179.9
			c12.8-3,25.6-10.4,31.4-14c1.6-1,3-2.1,4.2-3.3c11-11.1,17.1-25.8,17.1-41.4c0-15.6-6.1-30.4-17.1-41.4l-9.9-9.9l20-20
			c6.9-6.9,6.9-18.1,0-24.9L123.5,238.6l63.7-63.6l12.1,12.1c0.5,0.5,1.2,0.3,1.7,0.7l-8.8,8.8c-22.5,22.5-23.9,57.8-3,78.7l273,273
			c9.6,9.6,22.6,14.9,36.7,14.9c15.4,0,30.7-6.5,42.1-17.9l92.8-92.8c10.6-10.6,16.8-24.2,17.8-38.5
			C652.6,398.9,647.2,384.2,636.8,373.9L636.8,373.9L636.8,373.9L636.8,373.9z M251.9,511.5c-5.8,3.3-12.4,6.3-13.3,6.7
			c-8.2-1.2-15.9,2.2-21,8.5L66.5,712.2c-5.8,5.9-10.3,5.9-16.2,0l-56.7-56.7c-2.9-2.9-3.4-6.4-3.4-8.1c0-1.7,0.4-5.1,1.9-6.8
			L177.3,484c5.6-4.8,8.7-9.9,8.2-17.3c0.5-2.5,3.6-8.9,6.9-14.3c5.5-4,9.3-4,14.6,1.3l43.4,43.3c2.9,2.9,3.3,6.4,3.3,8.1
			C253.8,506.6,253.5,509.1,251.9,511.5L251.9,511.5L251.9,511.5L251.9,511.5z M600.6,419.3l-92.9,92.8c-2.5,2.5-5.8,4-8.8,4
			L222.6,242c-1.9-1.9-1.6-7.6,3-12.2l92.8-92.8c1.9-2,4.4-3.3,8.3-3.3c1.1,0,2.4,0.1,3.9,0.4l273,273.1
			C606.5,410.1,603.5,416.4,600.6,419.3L600.6,419.3L600.6,419.3L600.6,419.3z M600.6,419.3"/>
	</g>
</svg>
