<?xml version="1.0" encoding="utf-8"?>
<!-- Generator: Adobe Illustrator 19.0.0, SVG Export Plug-In . SVG Version: 6.00 Build 0)  -->
<svg version="1.1" id="图层_1" xmlns="http://www.w3.org/2000/svg" xmlns:xlink="http://www.w3.org/1999/xlink" x="0px" y="0px" viewBox="0 0 595.3 841.9" style="enable-background:new 0 0 595.3 841.9;" xml:space="preserve">
	<path class="st0" d="M57.9,84.1v126.8H-54.8v408.6c0,77.8,63.1,140.9,140.9,140.9h422.7c77.8,0,140.9-63.1,140.9-140.9V84.1H57.9
		L57.9,84.1z M57.9,577.3c0,35.7-13.4,68.1-35.3,92.9c-21.8-24.8-35.1-57.3-35.1-92.9V253.2h70.5L57.9,577.3L57.9,577.3L57.9,577.3z
		 M607.5,577.3c0,77.8-63.1,140.9-140.9,140.9H128.4c-20.6,0-40.2-4.5-57.8-12.5c18.5-23.8,29.6-53.7,29.6-86.1V126.3h507.3V577.3
		L607.5,577.3L607.5,577.3z M297.5,535H156.6v42.3h140.9V535L297.5,535z M297.5,464.5H156.6v42.3h140.9V464.5L297.5,464.5z
		 M297.5,394.1H156.6v42.3h140.9V394.1L297.5,394.1z M537,210.9H156.6v56.4H537V210.9L537,210.9z M297.5,323.6H156.6v42.3h140.9
		V323.6L297.5,323.6z M339.8,577.3H537V323.6H339.8V577.3L339.8,577.3z M339.8,577.3"/>
</svg>
