<?xml version="1.0" encoding="utf-8"?>
<!-- Generator: Adobe Illustrator 19.0.0, SVG Export Plug-In . SVG Version: 6.00 Build 0)  -->
<svg version="1.1" id="图层_1" xmlns="http://www.w3.org/2000/svg" xmlns:xlink="http://www.w3.org/1999/xlink" x="0px" y="0px"
	 viewBox="0 0 822 822" style="enable-background:new 0 0 822 822;" xml:space="preserve">
<style type="text/css">
	.st0{fill:#272635;}
</style>
<g>
	<path class="st0" d="M244.2,409.8l17.7-18c-7.1-12-11.2-26-11.2-41c0-15.1,4.2-29.2,11.3-41.2l-18-18.3
		c-12.8,16.9-19.9,37.4-19.9,59C224.1,372.1,231.2,392.9,244.2,409.8L244.2,409.8z"/>
	<path class="st0" d="M187.5,213.4l-21.1-21.5c-79.1,83.6-78.9,233.5,0.5,316.9l20.7-21C119.3,410.1,119.3,291.7,187.5,213.4
		L187.5,213.4z"/>
	<path class="st0" d="M205.2,459.7l21.4-21.7c-41.6-50.2-41.7-124.2-0.2-174.8l-21.2-21.6C152.1,304.2,152,397.5,205.2,459.7
		L205.2,459.7z"/>
	<path class="st0" d="M578.8,409.8c13.1-16.9,20.2-37.6,20.1-59.5c0-21.6-7.1-42.1-19.9-59l-18,18.3c7.1,12.1,11.3,26.1,11.3,41.2
		c0,15-4.1,29-11.2,41L578.8,409.8L578.8,409.8z"/>
	<path class="st0" d="M635.5,213.4c68.2,78.3,68.3,196.6,0,274.3l20.7,21c79.4-83.3,79.6-233.2,0.5-316.9L635.5,213.4L635.5,213.4z"
		/>
	<path class="st0" d="M617.9,459.7c53.2-62.2,53.1-155.4,0-218.1l-21.2,21.6c41.4,50.6,41.4,124.6-0.2,174.8L617.9,459.7
		L617.9,459.7z"/>
</g>
<path class="st0" d="M3,71.2v680.9h205v-71.9c0-38,43.4-38.1,100.1-38.1h206.8c56.7,0,100.1,0.1,100.1,38.1v71.9h205.1V71.2H3z
	 M767.3,572.7H52.1V122.8h715.2V572.7z"/>
<path class="st0" d="M411.5,572.7"/>
<path class="st0" d="M369.5,286.9h-15.9v123.7h15.9v30.7h-71v-30.7h15.7V286.9h-15.7v-30.7h71V286.9z"/>
<path class="st0" d="M528.5,434.7c-13.5,6.6-31,9.9-52.7,9.9c-27.9,0-50-8.3-66.4-25c-16.4-16.7-24.6-39-24.6-66.8
	c0-29.3,9.1-53.2,27.4-71.8c18.3-18.6,41.9-27.9,70.8-27.9c18.1,0,33.2,2.4,45.4,7.1v38.1c-12.5-7.3-26.7-11-42.6-11
	c-18.1,0-32.6,5.8-43.4,17.3c-10.8,11.6-16.3,26.7-16.3,45.3c0,18.2,5.1,32.8,15.4,43.9c10.3,11.1,24.2,16.6,41.7,16.6
	c16.5,0,31.5-4,45.1-12V434.7z"/>
</svg>
