<?xml version="1.0" encoding="utf-8"?>
<!-- Generator: Adobe Illustrator 19.0.0, SVG Export Plug-In . SVG Version: 6.00 Build 0)  -->
<svg version="1.1" id="图层_1" xmlns="http://www.w3.org/2000/svg" xmlns:xlink="http://www.w3.org/1999/xlink" x="0px" y="0px"
	 viewBox="0 0 822 822" style="enable-background:new 0 0 822 822;" xml:space="preserve">
<style type="text/css">
	.st0{fill:#272635;}
	.st1{fill:#E41812;}
	.st2{fill:#FFFFFF;}
</style>
<path class="st0" d="M2.6,71.2v680.9h205v-71.9c0-38,43.4-38.1,100.1-38.1h206.8c56.7,0,100.1,0.1,100.1,38.1v71.9h205.1V71.2H2.6z
	 M767,572.7H51.7V122.8H767V572.7z"/>
<rect x="116.3" y="220.3" class="st0" width="124.7" height="259.6"/>
<rect x="257.1" y="220.3" class="st0" width="124.7" height="259.6"/>
<rect x="397.8" y="220.3" class="st0" width="124.7" height="259.6"/>
<rect x="565.2" y="220.3" class="st1" width="124.7" height="259.6"/>
<path class="st2" d="M139.3,354.2c0-21.2,3.5-37.2,10.5-48.1c7-10.9,17.2-16.3,30.6-16.3c25.4,0,38.2,20.5,38.2,61.6
	c0,20.3-3.6,35.8-10.7,46.5c-7.2,10.7-17.2,16.1-30.1,16.1c-12.2,0-21.7-5.1-28.3-15.3C142.7,388.5,139.3,373.7,139.3,354.2z
	 M154.8,353.5c0,31.9,8.1,47.9,24.3,47.9c15.9,0,23.9-16.2,23.9-48.6c0-33.6-7.8-50.3-23.4-50.3
	C163.1,302.4,154.8,319.5,154.8,353.5z"/>
<path class="st2" d="M280.1,354.2c0-21.2,3.5-37.2,10.5-48.1c7-10.9,17.2-16.3,30.6-16.3c25.4,0,38.2,20.5,38.2,61.6
	c0,20.3-3.6,35.8-10.7,46.5c-7.2,10.7-17.2,16.1-30.1,16.1c-12.2,0-21.7-5.1-28.3-15.3C283.5,388.5,280.1,373.7,280.1,354.2z
	 M295.6,353.5c0,31.9,8.1,47.9,24.3,47.9c15.9,0,23.9-16.2,23.9-48.6c0-33.6-7.8-50.3-23.4-50.3
	C303.9,302.4,295.6,319.5,295.6,353.5z"/>
<path class="st2" d="M420.9,354.2c0-21.2,3.5-37.2,10.5-48.1c7-10.9,17.2-16.3,30.6-16.3c25.4,0,38.2,20.5,38.2,61.6
	c0,20.3-3.6,35.8-10.7,46.5c-7.2,10.7-17.2,16.1-30.1,16.1c-12.2,0-21.7-5.1-28.3-15.3C424.3,388.5,420.9,373.7,420.9,354.2z
	 M436.4,353.5c0,31.9,8.1,47.9,24.3,47.9c15.9,0,23.9-16.2,23.9-48.6c0-33.6-7.8-50.3-23.4-50.3
	C444.7,302.4,436.4,319.5,436.4,353.5z"/>
<path class="st2" d="M612.6,348.7c-14.3-6.7-21.5-16.3-21.5-29c0-8.8,3.4-16,10.1-21.6c6.7-5.6,15.3-8.3,25.8-8.3
	c9.6,0,17.5,2.6,23.7,7.8c6.2,5.2,9.3,12,9.3,20.2c0,13.3-7.5,23.6-22.4,30.8v0.3c17.5,6.3,26.3,17.1,26.3,32.3
	c0,10-3.6,17.9-10.8,23.9c-7.2,5.9-17.3,8.9-30.2,8.9c-10.6,0-19.2-2.9-25.9-8.8c-6.7-5.8-10-13.4-10-22.7
	c0-15.3,8.6-26.4,25.8-33.4V348.7z M624.4,356c-14.8,6-22.3,14.6-22.3,25.8c0,5.8,2.2,10.5,6.5,14.3c4.3,3.7,10,5.6,17,5.6
	c6.8,0,12.3-1.8,16.5-5.5c4.2-3.7,6.4-8.3,6.4-13.8C648.5,370.5,640.4,361.8,624.4,356z M644.5,319.7c0-5.4-1.7-9.6-5-12.7
	c-3.4-3.1-7.9-4.7-13.7-4.7c-5.4,0-10,1.6-13.7,4.8c-3.8,3.2-5.7,7.4-5.7,12.4c0,10,6.3,17.7,18.8,22.9
	C638.1,337.1,644.5,329.5,644.5,319.7z"/>
</svg>
