<?xml version="1.0" encoding="utf-8"?>
<!-- Generator: Adobe Illustrator 19.0.0, SVG Export Plug-In . SVG Version: 6.00 Build 0)  -->
<svg version="1.1" id="图层_1" xmlns="http://www.w3.org/2000/svg" xmlns:xlink="http://www.w3.org/1999/xlink" x="0px" y="0px"
	 viewBox="0 0 822 822" style="enable-background:new 0 0 822 822;" xml:space="preserve">
<style type="text/css">
	.st0{fill:#272635;}
</style>
<path class="st0" d="M3.4,71.2v680.9h205v-71.9c0-38,43.4-38.1,100.1-38.1h206.8c56.7,0,100.1,0.1,100.1,38.1v71.9h205.1V71.2H3.4z
	 M767.8,572.7H52.6V122.8h715.2V572.7z"/>
<path class="st0" d="M765.4,572.7"/>
<g>
	<path class="st0" d="M316.4,467l28.9,28.4c19.3-11.3,41.8-18,65.9-18c24.3,0,46.9,6.7,66.2,18.2l29.4-28.9
		c-27.1-20.6-60.1-31.9-94.9-32C376.9,434.6,343.6,446,316.4,467L316.4,467z"/>
	<path class="st0" d="M632.1,343.8l34.6-34c-134.4-127.1-375.4-126.9-509.3,0.8l33.8,33.2C316,234,506.3,234.1,632.1,343.8
		L632.1,343.8z"/>
	<path class="st0" d="M236.2,388.2l34.9,34.3c80.7-66.9,199.7-67,281-0.3l34.7-34C486.1,302.8,336.2,302.7,236.2,388.2L236.2,388.2z
		"/>
</g>
<path class="st0" d="M316.4,440"/>
</svg>
